<svg xmlns="http://www.w3.org/2000/svg" width="16" height="18" fill="none" viewBox="0 0 16 18"><path fill="#000" d="M12.5714 3.90586C13.3604 3.90586 14 3.27727 14 2.50066C14 1.72406 12.5714 0 12.5714 0C12.5714 0 11.1429 1.75465 11.1429 2.53125C11.1429 3.30785 11.7821 3.90586 12.5714 3.90586ZM8 3.90586C8.78893 3.90586 9.42857 3.27727 9.42857 2.50066C9.42857 1.72406 8 0 8 0C8 0 6.57143 1.75465 6.57143 2.53125C6.57143 3.30785 7.21071 3.90586 8 3.90586ZM13.6821 7.84336L13.7143 5.625C13.7143 5.31436 13.4584 5.0625 13.1429 5.0625H12C11.6857 5.0625 11.4286 5.31563 11.4286 5.625V7.875H9.14286V5.625C9.14286 5.31436 8.887 5.0625 8.57143 5.0625H7.42857C7.11429 5.0625 6.85714 5.31563 6.85714 5.625V7.875H4.57143V5.625C4.57143 5.31436 4.31557 5.0625 4 5.0625H2.85714C2.54143 5.0625 2.28571 5.31563 2.28571 5.625V7.87395C1.02321 7.87395 0 8.88117 0 10.0923V12.5075C0.3505 12.7221 0.763929 12.9059 1.14286 12.9059C1.88 12.9059 2.75179 12.2122 3.025 11.945C3.24821 11.7264 3.60857 11.7264 3.83179 11.945C4.075 12.2449 4.97857 12.9059 5.71429 12.9059C6.45 12.9059 7.32321 12.2122 7.59643 11.945C7.81964 11.7264 8.18 11.7264 8.40321 11.945C8.64643 12.2449 9.55 12.9059 10.2857 12.9059C11.0214 12.9059 11.8946 12.2122 12.1679 11.945C12.3911 11.7264 12.7514 11.7264 12.9746 11.945C13.2179 12.2449 14.1214 12.9059 14.8571 12.9059C15.2361 12.9059 15.6496 12.7221 16 12.5075V10.0934C16 8.88047 14.975 7.84336 13.6821 7.84336ZM12.5714 13.1238C12.0804 13.5088 11.2132 14.0611 10.2857 14.0611C9.35821 14.0611 8.49107 13.5091 8 13.1238C7.50893 13.5088 6.64179 14.0611 5.71429 14.0611C4.78679 14.0611 3.91964 13.5091 3.42857 13.1238C2.9375 13.5088 2.07036 14.0611 1.14286 14.0611C0.740357 14.0611 0.353929 13.9514 0 13.8017V16.8737C0 17.4973 0.511786 18 1.14286 18H14.8571C15.4882 18 16 17.4962 16 16.875V13.803C15.6461 13.9527 15.2596 14.0624 14.8571 14.0624C13.9286 14.0309 13.0643 13.5105 12.5714 13.1238ZM3.42857 3.90586C4.2175 3.90586 4.85714 3.27727 4.85714 2.50066C4.85714 1.72406 3.42857 0 3.42857 0C3.42857 0 2 1.75465 2 2.53125C2 3.30785 2.63964 3.90586 3.42857 3.90586Z"/></svg>