<svg width="16" height="18" viewBox="0 0 16 18" fill="none" xmlns="http://www.w3.org/2000/svg">
<path d="M5.71429 1.125V2.25H10.2857V1.125C10.2857 0.503789 10.7964 0 11.4286 0C12.0607 0 12.5714 0.503789 12.5714 1.125V2.25H14.2857C15.2321 2.25 16 3.00551 16 3.9375V5.625H0V3.9375C0 3.00551 0.7675 2.25 1.71429 2.25H3.42857V1.125C3.42857 0.503789 3.93929 0 4.57143 0C5.20357 0 5.71429 0.503789 5.71429 1.125ZM0 6.75H16V16.3125C16 17.2441 15.2321 18 14.2857 18H1.71429C0.7675 18 0 17.2441 0 16.3125V6.75ZM11.7179 10.691C12.0821 10.3922 12.0821 9.85781 11.7179 9.52734C11.4143 9.20039 10.8714 9.20039 10.5357 9.52734L7.14286 12.8707L5.43214 11.2148C5.12857 10.8879 4.58571 10.8879 4.25 11.2148C3.91786 11.5453 3.91786 12.0797 4.25 12.3785L6.53571 14.6285C6.87143 14.9871 7.41429 14.9871 7.71786 14.6285L11.7179 10.691Z" fill="black"/>
</svg>
