<svg width="19" height="19" viewBox="0 0 19 19" fill="none" xmlns="http://www.w3.org/2000/svg">
<path d="M7.22148 1.1875H11.7785C12.5467 1.1875 13.2258 1.67809 13.467 2.40543L13.8529 3.5625H16.625C17.935 3.5625 19 4.62754 19 5.9375V15.4375C19 16.7475 17.935 17.8125 16.625 17.8125H2.375C1.06318 17.8125 0 16.7475 0 15.4375V5.9375C0 4.62754 1.06318 3.5625 2.375 3.5625H5.14707L5.53301 2.40543C5.77422 1.67809 6.45332 1.1875 7.22148 1.1875ZM9.5 14.25C11.4668 14.25 13.0625 12.6543 13.0625 10.6875C13.0625 8.6873 11.4668 7.125 9.5 7.125C7.4998 7.125 5.9375 8.6873 5.9375 10.6875C5.9375 12.6543 7.4998 14.25 9.5 14.25Z" fill="black"/>
</svg>
