<svg xmlns="http://www.w3.org/2000/svg" width="20" height="20" fill="none" viewBox="0 0 20 20"><g clip-path="url(#clip0_123_39)"><path fill="#000" d="M12.1701 8.80859C11.9314 7.35352 10.8073 6.25 9.4441 6.25C9.01875 6.25 8.61493 6.33203 8.25486 6.52734C7.64931 5.62109 6.67014 5 5.55556 5C3.71493 5 2.22188 6.64453 2.22188 8.71484C2.22188 8.73438 2.23056 8.75879 2.23056 8.77832C0.959375 9.09766 0 10.3633 0 11.875C0 13.6035 1.24132 14.9648 2.77813 14.9648H11.667C13.2035 14.9648 14.4451 13.5684 14.4451 11.875C14.4444 10.3438 13.4653 9.07422 12.1701 8.80859ZM19.7188 8.74219C17.2778 9.26172 15.0313 7.16797 15.0313 4.41406C15.0313 2.82695 15.791 1.36719 17.0278 0.580859C17.2188 0.458789 17.1693 0.136719 16.9523 0.0925781C16.6528 0.0294453 16.3472 0 16.0347 0C13.3306 0 11.1354 2.39258 11.0208 5.38672C11.9497 5.85078 12.6965 6.71016 13.0653 7.79883C14.3545 8.35547 15.2878 9.64961 15.5049 11.1875C15.6828 11.207 15.8538 11.247 16.0361 11.247C17.5858 11.247 19.0035 10.4598 19.9424 9.16609C20.0903 8.97656 19.9375 8.69531 19.7188 8.74219ZM11.809 16.668L10.6979 18.543C10.4429 18.9738 10.546 19.5562 10.9291 19.843C11.0694 19.9492 11.2292 20 11.3576 20C11.6268 20 11.8917 19.8535 12.0521 19.5824L13.1632 17.7074C13.4182 17.2766 13.3151 16.6941 12.932 16.4074C12.5799 16.1211 12.0625 16.2383 11.809 16.668ZM8.47222 16.668L7.36111 18.543C7.10608 18.9738 7.20917 19.5562 7.59226 19.843C7.73611 19.9492 7.89583 20 8.02431 20C8.29344 20 8.55833 19.8535 8.71875 19.5824L9.82986 17.7074C10.0849 17.2766 9.98181 16.6941 9.59872 16.4074C9.24653 16.1211 8.72917 16.2383 8.47222 16.668ZM5.13889 16.668L4.02778 18.543C3.77274 18.9738 3.87583 19.5562 4.25892 19.843C4.40278 19.9492 4.5625 20 4.69097 20C4.9601 20 5.225 19.8535 5.38542 19.5824L6.49653 17.7074C6.75156 17.2766 6.64847 16.6941 6.26538 16.4074C5.91319 16.1211 5.39583 16.2383 5.13889 16.668ZM1.8066 16.668L0.695486 18.543C0.440451 18.9738 0.543542 19.5562 0.926632 19.843C1.06875 19.9492 1.22951 20 1.38785 20C1.65698 20 1.92188 19.8535 2.08229 19.5824L3.1934 17.7074C3.44844 17.2766 3.34535 16.6941 2.96226 16.4074C2.57813 16.1211 2.06285 16.2383 1.8066 16.668Z"/></g><defs><clipPath id="clip0_123_39"><rect width="20" height="20" fill="#fff"/></clipPath></defs></svg>