<svg width="20" height="20" viewBox="0 0 20 20" fill="none" xmlns="http://www.w3.org/2000/svg">
<path d="M16.25 5C16.2256 5 16.2061 5.00977 16.1865 5.00977C16.2305 4.80469 16.25 4.59375 16.25 4.375C16.25 2.64648 14.8555 1.25 13.125 1.25C12.1633 1.25 11.3184 1.68945 10.7422 2.37305C10.0156 0.966797 8.56641 0 6.875 0C4.45703 0 2.5 1.9582 2.5 4.375C2.5 4.6582 2.5293 4.93164 2.58301 5.20508C1.08398 5.69531 0 7.08984 0 8.75C0 10.8203 1.67969 12.5 3.75 12.5H16.25C18.3203 12.5 20 10.8203 20 8.75C20 6.67969 18.3203 5 16.25 5ZM14.375 18.125C14.375 19.1605 15.2145 20 16.25 20C17.2855 20 18.125 19.1605 18.125 18.125C18.125 17.0895 16.2496 14.4102 16.2496 14.4102C16.2496 14.4102 14.375 17.0898 14.375 18.125ZM1.875 18.125C1.875 19.1602 2.71445 20 3.75 20C4.78555 20 5.625 19.1605 5.625 18.125C5.625 17.0895 3.74961 14.4102 3.74961 14.4102C3.74961 14.4102 1.875 17.0898 1.875 18.125ZM8.125 18.125C8.125 19.1605 8.96445 20 10 20C11.0355 20 11.875 19.1605 11.875 18.125C11.875 17.0895 9.99961 14.4102 9.99961 14.4102C9.99961 14.4102 8.125 17.0898 8.125 18.125Z" fill="black"/>
</svg>
