<svg width="20" height="20" viewBox="0 0 20 20" fill="none" xmlns="http://www.w3.org/2000/svg">
<path d="M20 11.8086C20 13.1871 18.8676 14.3051 17.4891 14.3051C15.9727 14.3051 14.0242 13.4164 12.7078 12.7066C13.4176 14.023 14.3062 15.9711 14.3062 17.4879C14.3062 18.8664 13.1887 19.9844 11.8098 19.9844C11.1027 19.9844 10.4641 19.6906 10.0094 19.2176C9.55469 19.6992 8.90625 20 8.19141 20C6.81289 20 5.69492 18.8676 5.69492 17.4891C5.69492 15.9727 6.58359 14.0242 7.29336 12.7078C5.97695 13.4176 4.02891 14.3062 2.51211 14.3062C1.13359 14.3062 0.015625 13.1887 0.015625 11.8098C0.015625 11.1027 0.309375 10.4641 0.782422 10.0094C0.299844 9.55469 0 8.90625 0 8.19141C0 6.81289 1.13242 5.69492 2.51094 5.69492C4.02734 5.69492 5.97578 6.58359 7.29219 7.29336C6.58203 5.94141 5.69531 4.02734 5.69531 2.51094C5.69531 1.13242 6.81289 0.0144531 8.1918 0.0144531C8.89883 0.0144531 9.5375 0.308203 9.99219 0.78125C10.4453 0.299844 11.0586 0 11.8086 0C13.1871 0 14.3051 1.13242 14.3051 2.51094C14.3051 4.02734 13.4164 5.97578 12.7066 7.29219C14.023 6.58242 15.9711 5.69375 17.4879 5.69375C18.8664 5.69375 19.9844 6.81133 19.9844 8.19023C19.9844 8.89727 19.6906 9.53594 19.2176 9.99062C19.6992 10.4453 20 11.0586 20 11.8086Z" fill="black"/>
</svg>
