<svg width="19" height="19" viewBox="0 0 19 19" fill="none" xmlns="http://www.w3.org/2000/svg">
<g clip-path="url(#clip0_117_19)">
<path d="M18.6502 2.62104L16.3773 0.348086C16.1565 0.125096 15.8522 0 15.5367 0H9.46563C8.15382 0 7.09063 1.06355 7.09063 2.375L7.09135 11.875C7.12403 13.1887 8.18907 14.25 9.49903 14.25H16.624C17.9303 14.25 18.999 13.1812 18.999 11.875V3.46045C18.999 3.14576 18.8729 2.84369 18.6502 2.62104ZM17.2178 11.875C17.2178 12.2029 16.9519 12.4688 16.624 12.4688H9.46563C9.13766 12.4688 8.87188 12.2029 8.87188 11.875V2.37982C8.87188 2.05193 9.13773 1.78607 9.46563 1.78607H14.2156L14.249 3.5625C14.249 4.21822 14.7808 4.75 15.4365 4.75H17.1844V11.875H17.2178ZM10.0928 16.625C10.0928 16.9529 9.82693 17.2188 9.49903 17.2188H2.34063C2.01266 17.2188 1.74688 16.9529 1.74688 16.625L1.77954 7.12871C1.77954 6.80081 2.04539 6.53496 2.37329 6.53496H5.93653V4.75H2.37366C1.06184 4.75 -0.00134277 5.81318 -0.00134277 7.125L-0.000979101 16.625C-0.000897461 17.935 1.06258 19 2.37403 19H9.49903C10.8053 19 11.874 17.9312 11.874 16.625V15.4375H10.1262L10.0928 16.625Z" fill="black"/>
</g>
<defs>
<clipPath id="clip0_117_19">
<rect width="19" height="19" fill="white"/>
</clipPath>
</defs>
</svg>
