<svg width="19" height="17" viewBox="0 0 19 17" fill="none" xmlns="http://www.w3.org/2000/svg">
<g clip-path="url(#clip0_117_110)">
<path d="M19 4.51562C19 5.24908 18.4093 5.84375 17.6806 5.84375C17.6724 5.84375 17.6656 5.83955 17.6574 5.83942L15.9909 15.0666C15.8993 15.5689 15.4639 15.9375 14.9526 15.9375H4.04743C3.53747 15.9375 3.10007 15.5703 3.00903 15.0653L1.3429 5.84043C1.33465 5.84043 1.32773 5.84375 1.28979 5.84375C0.56113 5.84375 -0.0296516 5.24908 -0.0296516 4.51562C-0.0296516 3.78217 0.590817 3.1875 1.28979 3.1875C1.98877 3.1875 2.60924 3.78217 2.60924 4.51562C2.60924 4.81439 2.49309 5.07643 2.32764 5.29822L5.28418 7.67889C5.80899 8.10156 6.58713 7.92937 6.88763 7.32428L8.78764 3.49928C8.41479 3.2652 8.1509 2.86676 8.1509 2.39062C8.1509 1.65717 8.77104 1.0625 9.50004 1.0625C10.229 1.0625 10.7898 1.65717 10.7898 2.39062C10.7898 2.86676 10.5271 3.2652 10.1532 3.49961L12.0532 7.32461C12.3537 7.92957 13.1321 8.10156 13.6566 7.67922L16.6132 5.29855C16.4766 5.07676 16.3611 4.78457 16.3611 4.51562C16.3611 3.78184 16.9516 3.1875 17.6806 3.1875C18.4096 3.1875 19 3.78184 19 4.51562Z" fill="black"/>
</g>
<defs>
<clipPath id="clip0_117_110">
<rect width="19" height="17" fill="white"/>
</clipPath>
</defs>
</svg>
