<svg width="20" height="17" viewBox="0 0 20 17" fill="none" xmlns="http://www.w3.org/2000/svg">
<path d="M18.3333 0H1.66667C0.746528 0 0 0.713867 0 1.59375V12.2188C0 13.0986 0.746528 13.8125 1.66667 13.8125H8.33333L7.77778 15.4062H5.27778C4.81944 15.4062 4.44444 15.7648 4.44444 16.2031C4.44444 16.6414 4.81944 17 5.27778 17H14.7222C15.1823 17 15.5556 16.6431 15.5556 16.2031C15.5556 15.7632 15.1823 15.4062 14.7222 15.4062H12.2222L11.6667 13.8125H18.3333C19.2535 13.8125 20 13.0986 20 12.2188V1.59375C20 0.713867 19.2535 0 18.3333 0ZM17.7778 9.5625H2.22222V2.125H17.7778V9.5625Z" fill="black"/>
</svg>
