<svg width="20" height="18" viewBox="0 0 20 18" fill="none" xmlns="http://www.w3.org/2000/svg">
<path d="M19.8819 9.50273L16.5486 16.2527C16.3611 16.6359 15.9757 16.875 15.5243 16.875H2.22222C0.994792 16.875 0 15.8674 0 14.625V3.375C0 2.13258 0.994792 1.125 2.22222 1.125H6.30208C6.89132 1.125 7.4566 1.36202 7.87361 1.78418L9.57986 3.375H14.4444C15.6719 3.375 16.6667 4.38258 16.6667 5.625V6.75H15V5.625C15 5.31478 14.7508 5.0625 14.4444 5.0625H8.88889L6.69444 2.97738C6.59028 2.87086 6.45139 2.8125 6.30208 2.8125H2.22222C1.91597 2.8125 1.66667 3.06492 1.66667 3.375V13.5L4.1375 8.49727C4.32639 8.11406 4.71181 7.875 5.13194 7.875H18.8889C19.7118 7.875 20.25 8.75391 19.8819 9.50273Z" fill="black"/>
</svg>
