<svg width="20" height="20" viewBox="0 0 20 20" fill="none" xmlns="http://www.w3.org/2000/svg">
<path d="M19.6369 1.52422L18.4768 0.366013C17.9885 -0.122269 17.1979 -0.121878 16.7096 0.366427L14.9033 2.17776C14.752 2.32912 14.6358 2.51002 14.5675 2.71526L14.0913 4.14143L11.1135 7.1211C10.6408 6.77735 10.1174 6.50391 9.54708 6.3711C8.24239 6.07032 6.92989 6.33985 6.03536 7.23047C5.67599 7.59766 5.40255 8.04688 5.2463 8.53907C5.01193 9.26172 4.34005 9.81641 3.59943 9.88282C2.67677 9.97657 1.81232 10.332 1.15333 10.9961C-0.628699 12.7734 -0.306825 15.9766 1.86114 18.1445C4.02403 20.3078 7.22833 20.6254 9.00568 18.8477C9.63458 18.1883 10.0311 17.3301 10.119 16.3977C10.1873 15.6652 10.7377 14.9852 11.4654 14.7508C11.9537 14.5994 12.4041 14.3262 12.7701 13.9598C13.6635 13.066 13.9322 11.7574 13.5943 10.4535C13.4625 9.88204 13.1885 9.36016 12.8467 8.88672L15.8252 5.90782L17.2522 5.43242C17.4524 5.36406 17.6386 5.24824 17.7901 5.09688L19.601 3.28867C20.1252 2.80156 20.1252 2.0125 19.6369 1.52422ZM8.12521 13.75C7.09005 13.75 6.25021 12.9102 6.25021 11.875C6.25021 10.8399 7.09005 10 8.12521 10C9.16036 10 9.96505 10.8399 9.96505 11.875C10.0002 12.9102 9.16036 13.75 8.12521 13.75Z" fill="black"/>
</svg>
