<svg width="14" height="19" viewBox="0 0 14 19" fill="none" xmlns="http://www.w3.org/2000/svg">
<path d="M0 0.890625C0 0.398926 0.391927 0 0.875 0H13.125C13.6099 0 14 0.398926 14 0.890625C14 1.38232 13.6099 1.78125 13.125 1.78125H12.8333V2.48559C12.8333 3.98184 12.2172 5.38457 11.2109 6.47559L8.23594 9.5L11.2109 12.5244C12.2172 13.582 12.8333 15.0182 12.8333 16.5137V17.2188H13.125C13.6099 17.2188 14 17.6158 14 18.1094C14 18.6029 13.6099 19 13.125 19H0.875C0.391927 19 0 18.6029 0 18.1094C0 17.6158 0.391927 17.2188 0.875 17.2188H1.16667V16.5137C1.16667 15.0182 1.75036 13.582 2.78979 12.5244L5.76406 9.5L2.78979 6.47559C1.75036 5.38457 1.16667 3.98184 1.16667 2.48559V1.78125H0.875C0.391927 1.78125 0 1.38232 0 0.890625ZM3.63781 14.25H10.3615C10.2448 14.0867 10.1135 13.9309 9.97135 13.7861L7 10.758L4.02865 13.7861C3.88646 13.9309 3.7224 14.0867 3.63781 14.25ZM10.3615 4.75C10.7953 4.09688 11.0833 3.30385 11.0833 2.48559V1.78125H2.91667V2.48559C2.91667 3.30385 3.17187 4.09688 3.63781 4.75H10.3615Z" fill="black"/>
</svg>
