<svg width="20" height="20" viewBox="0 0 20 20" fill="none" xmlns="http://www.w3.org/2000/svg">
<path d="M10 0C4.47656 0 0 4.47656 0 10C0 15.5234 4.47656 20 10 20C15.5234 20 20 15.5234 20 10C20 4.47656 15.5234 0 10 0ZM17.2617 11.0625L16.4609 10.668C16.2932 10.5961 16.1501 10.4769 16.0492 10.325L15.3461 9.27035C15.1363 8.95547 15.1363 8.54535 15.3461 8.23051L16.1113 7.08285C16.202 6.94711 16.3264 6.83742 16.4723 6.76449C16.74 6.63082 17.0285 6.55109 17.3227 6.50281C17.832 7.5625 18.125 8.74609 18.125 10C18.125 10.4934 18.0737 10.9742 17.989 11.4437L17.2617 11.0625ZM6.85547 2.50977L7.22199 2.85875C7.40738 3.03531 7.61809 3.18324 7.84699 3.29781C7.98438 3.36758 8.14844 3.38281 8.29688 3.33945C8.57031 3.25703 8.75391 3.00508 8.75 2.72109C8.7503 2.47254 8.93859 2.26445 9.18594 2.23945C9.28473 2.22893 9.38324 2.22068 9.48203 2.21405C9.6209 2.2052 9.75676 2.25662 9.85504 2.35502L10.8082 3.30815C10.8082 3.30823 10.8081 3.30815 10.8082 3.30815C11.0521 3.55229 11.0522 3.94799 10.8081 4.19213L10.2214 4.77924C10.0995 4.90123 10.0995 5.09901 10.2214 5.22104L10.4045 5.4042C10.5265 5.5262 10.5265 5.72397 10.4045 5.846L10.092 6.1585C10.0352 6.21875 9.95312 6.25 9.87109 6.25H9.51953C9.4375 6.25 9.35938 6.28516 9.30078 6.33984L8.91406 6.71875C8.81641 6.8125 8.79297 6.96094 8.85156 7.08203L9.46055 8.30039C9.48438 8.34375 9.49609 8.39062 9.49609 8.44141C9.49617 8.61406 9.35633 8.75398 9.18375 8.75414H8.96094C8.88547 8.75361 8.81285 8.72584 8.75625 8.67602L8.39453 8.35938C8.22754 8.21441 7.99648 8.16856 7.78672 8.23867L6.56914 8.64453C6.45563 8.68406 6.36156 8.76562 6.30645 8.8725C6.18781 9.10262 6.27814 9.38539 6.50816 9.50375L6.94098 9.7202C7.30859 9.90234 7.71484 10 8.125 10C8.53594 10 9.00742 11.066 9.375 11.25H11.9828C12.3143 11.2498 12.6324 11.3814 12.8668 11.6156L13.4023 12.1484C13.6261 12.3721 13.7516 12.6758 13.7512 12.9922C13.7516 13.4762 13.5586 13.9402 13.2152 14.2812C13.0629 14.4329 12.9031 14.5918 12.7734 14.7219C12.657 14.8375 12.573 14.9818 12.5301 15.1402C12.4711 15.3613 12.4219 15.5848 12.3438 15.7992L11.7926 17.4254C11.7161 17.7416 11.4586 17.9793 11.1395 18.0355C11.0856 18.0432 11.0327 18.0536 10.9786 18.0602C10.9582 18.0628 10.938 18.0659 10.9175 18.0684C10.8853 18.0722 10.8529 18.0742 10.8204 18.0742C10.3672 18.0742 10 17.707 10 17.289V16.7784C10.066 16.2855 9.70195 15.3624 9.11605 14.7765C8.88281 14.5078 8.71484 14.1875 8.75 13.8594V12.6094C8.75122 12.1547 8.5048 11.7355 8.10703 11.5156C7.5457 11.205 6.74727 10.7711 6.20039 10.4957C5.75391 10.2656 5.33594 9.98047 4.96484 9.64453L4.93359 9.61719C4.66797 9.375 4.42969 9.10156 4.22656 8.80469C3.94141 8.38672 3.29297 7.42188 2.83594 6.74609C2.77344 6.65625 2.74219 6.55469 2.69922 6.46094C3.55859 4.69141 5.03516 3.27656 6.85547 2.50977Z" fill="black"/>
</svg>
