<svg xmlns="http://www.w3.org/2000/svg" width="21" height="20" fill="none" viewBox="0 0 21 20"><path fill="#000" d="M11.9303 13.7773C12.1299 13.4014 12.2515 12.9668 12.2515 12.498C12.2515 11.1211 11.2532 9.99805 10.0605 9.99805C9.46153 9.99805 8.92334 10.2666 8.52403 10.6961C7.92681 9.53906 6.84348 8.71484 5.55528 8.71484C3.715 8.71484 2.22195 10.3969 2.22195 12.4672C2.22195 12.5453 2.23941 12.6112 2.24375 12.6893C0.941667 13.1971 0 14.5792 0 16.2147C0.030809 18.2852 1.52368 20 3.36396 20H11.666C13.2025 20 14.4126 18.6035 14.4126 16.875C14.4442 15.2383 13.3539 13.9141 11.9303 13.7773ZM19.656 11.6562C16.4268 12.3496 13.4581 9.56172 13.4581 5.89062C13.4581 3.77148 14.4338 1.82812 16.1011 0.777344C16.3572 0.616211 16.2877 0.186719 16.0056 0.127734C15.6004 0.0439453 15.1942 0 14.7567 0C11.0796 0 8.09348 3.35469 8.09348 7.5C8.09348 7.83203 8.11518 8.1543 8.15424 8.47656C8.35823 8.64258 8.55771 8.82324 8.73584 9.0332C9.13167 8.84766 9.58653 8.75 9.99973 8.75C11.8358 8.75 13.3018 10.4348 13.3018 12.5C13.3018 12.6416 13.2931 12.7832 13.2801 12.9199C14.1002 13.3398 14.7513 14.0723 15.1377 14.9707C17.0259 14.8389 18.7384 13.8281 19.8982 12.2219C20.1421 11.9688 19.9442 11.5938 19.656 11.6562Z"/></svg>