<svg width="20" height="20" viewBox="0 0 20 20" fill="none" xmlns="http://www.w3.org/2000/svg">
<path d="M10 0C4.47656 0 0 4.47656 0 10C0 15.5234 4.47656 20 10 20C15.5234 20 20 15.5234 20 10C20 4.47656 15.5234 0 10 0ZM18.125 10C18.125 10.8727 17.9831 11.7117 17.7273 12.5H16.827C16.6567 12.5 16.4958 12.4365 16.3824 12.3148L15.1289 11.0421C14.9539 10.8618 14.9539 10.5691 15.1336 10.3886L15.6211 9.90234V9.5659C15.6211 9.44887 15.5785 9.33672 15.4934 9.25387L15.1291 8.88812C15.044 8.80543 14.9305 8.7566 14.8122 8.7566H14.188C13.9468 8.7566 13.7482 8.55672 13.7482 8.31793C13.7482 8.2009 13.7955 8.08875 13.8759 8.0059L14.2448 7.64016C14.3253 7.55746 14.4388 7.50863 14.557 7.50863H15.8059C16.0471 7.50863 16.2504 7.30875 16.2504 7.06996V6.70312C16.2504 6.4593 16.047 6.25938 15.8059 6.25938H14.3727C14.0321 6.25938 13.7484 6.54211 13.7484 6.88359V7.05906C13.7484 7.3273 13.5782 7.56609 13.3227 7.65398L12.0879 8.06336C11.9602 8.1073 11.875 8.22434 11.875 8.3609V8.44375C11.875 8.61434 11.7331 8.75578 11.5629 8.75578H10.9336C10.7633 8.75578 10.6214 8.61434 10.6214 8.44375C10.6214 8.27301 10.4842 8.13172 10.3092 8.13172H10.1909C10.0727 8.13172 9.96391 8.19992 9.90711 8.30231L9.54289 9.03356C9.43359 9.24219 9.21875 9.33984 8.94922 9.33984H8.11719C7.77187 9.33984 7.49297 9.06184 7.49297 8.71562V7.76562C7.49297 7.59977 7.55918 7.44367 7.67746 7.32695L8.46262 6.5418C8.64453 6.36328 8.74219 6.11719 8.74219 5.85938C8.74219 5.7277 8.82734 5.60578 8.95977 5.56184L10.5207 5.04504C10.5869 5.02063 10.6437 4.98645 10.691 4.93762L11.741 3.89426C11.8214 3.81156 11.8687 3.69926 11.8687 3.58238C11.8687 3.33855 11.67 3.13863 11.4289 3.13863H10.6211L9.99219 3.76289V4.07492C9.99219 4.24551 9.855 4.38695 9.68 4.38695H9.05469C8.88441 4.38695 8.7425 4.24551 8.7425 4.07492V3.29453C8.7425 3.19703 8.7898 3.10441 8.87023 3.04582L10.3355 1.89191C14.6602 2.06992 18.125 5.63281 18.125 10ZM5.39453 5.82422C5.39453 5.70703 5.44184 5.59473 5.52699 5.51172L6.51566 4.52031C6.60082 4.4373 6.71434 4.38848 6.82785 4.38848C7.07383 4.38848 7.27238 4.58867 7.27238 4.83301V5.45801C7.27238 5.5752 7.22508 5.6875 7.14465 5.77051L6.7757 6.13672C6.69531 6.22266 6.57812 6.26562 6.46094 6.26562H5.83594C5.58984 6.26562 5.39453 6.06641 5.39453 5.82422ZM10.625 18.0938L10.6194 17.4801C10.6156 17.4802 10.6232 17.4798 10.6194 17.4801C10.6007 17.1546 10.3294 16.8898 9.99634 16.8898H9.2065C8.78541 16.8898 8.16588 16.6848 7.82525 16.4309L6.96094 15.7773C6.51172 15.4414 6.25 14.9141 6.25 14.3555V13.4227C6.25 12.7977 6.57637 12.2164 7.11094 11.8992L8.78555 10.8934C9.06465 10.7322 9.38164 10.6395 9.70312 10.6395H10.9187C11.3445 10.6395 11.7559 10.7908 12.0777 11.0645L13.7617 12.5148H14.4762C14.812 12.5148 15.1289 12.6467 15.3605 12.8811L16.0371 13.56C16.1523 13.6719 16.3047 13.7344 16.4688 13.75H17.2023C15.9336 16.1367 13.4844 17.875 10.625 18.0938Z" fill="black"/>
</svg>
