<svg width="20" height="20" viewBox="0 0 20 20" fill="none" xmlns="http://www.w3.org/2000/svg">
<path d="M16.2498 5C16.2254 5 16.2058 5.00977 16.1863 5.00977C16.2303 4.80469 16.2498 4.59375 16.2498 4.375C16.2498 2.64648 14.8533 1.25 13.1599 1.25C12.1982 1.25 11.3533 1.68945 10.8123 2.37305C10.0154 0.966797 8.5662 0 6.87479 0C4.46463 0 2.49979 1.9582 2.49979 4.375C2.49979 4.6582 2.52913 4.93164 2.58284 5.20508C1.08416 5.69531 0 7.08984 0 8.75C0 10.8203 1.64453 12.5 3.71484 12.5H16.1797C18.3201 12.5 19.9998 10.8203 19.9998 8.75C19.9998 6.67969 18.3201 5 16.2498 5ZM7.76541 13.8242C7.29002 13.6204 6.73807 13.8401 6.53416 14.316L4.69432 18.691C4.49045 19.1672 4.7108 19.7188 5.1869 19.9227C5.23807 19.9766 5.39823 20 5.51932 20C5.88307 20 6.22909 19.7876 6.38182 19.4324L8.22166 15.0574C8.46073 14.582 8.20682 14.0312 7.76541 13.8242ZM3.18182 13.8242C2.70565 13.6204 2.15448 13.8401 1.95057 14.316L0.110727 18.691C-0.12818 19.168 0.0921719 19.7188 0.568148 19.9258C0.688461 19.9766 0.813461 20 0.936898 20C1.30065 20 1.64666 19.7876 1.7994 19.4324L3.63924 15.0574C3.8783 14.582 3.6576 14.0312 3.18182 13.8242ZM12.3474 13.8242C11.8713 13.6204 11.3201 13.8401 11.1162 14.316L9.27635 18.691C9.07248 19.1672 9.29283 19.7188 9.76893 19.9227C9.85526 19.9766 9.98026 20 10.1053 20C10.469 20 10.815 19.7876 10.9678 19.4324L12.8076 15.0574C13.0115 14.582 12.824 14.0312 12.3474 13.8242ZM16.9334 13.8242C16.458 13.6204 15.9068 13.8401 15.7021 14.316L13.8623 18.691C13.6584 19.1672 13.8788 19.7188 14.3549 19.9227C14.4373 19.9766 14.5623 20 14.6521 20C15.0159 20 15.3619 19.7876 15.5146 19.4324L17.3545 15.0574C17.6287 14.582 17.406 14.0312 16.9334 13.8242Z" fill="black"/>
</svg>
