<svg xmlns="http://www.w3.org/2000/svg" width="20" height="22" fill="none" viewBox="0 0 20 22"><path fill="#000" d="M7.76736 5.97696C7.38889 5.39259 6.79167 4.98438 6.11111 4.98438C4.96042 4.98438 4.02778 6.13853 4.02778 7.52384C4.02778 8.62212 4.58542 9.55368 5.36736 9.92493C5.73611 9.42305 6.19792 8.97618 6.73264 8.64102C6.84375 7.66993 7.24306 6.75899 7.76736 5.97696ZM3.05556 7.52384C3.05556 5.43556 4.42361 3.78126 6.11111 3.78126C7.07639 3.78126 7.92674 4.34587 8.48681 5.21083C9.22431 4.53751 10.1264 4.12372 11.1111 4.12372C11.1115 4.12372 11.1108 4.12372 11.1111 4.12372L9.31944 3.59134L8.85069 0.371134C8.81597 0.143786 8.65625 2.57812e-05 8.48958 2.57812e-05C8.4192 2.57812e-05 8.34736 0.0254976 8.28281 0.08085L6.11024 1.94655L3.9375 0.08088C3.875 0.0254719 3.80208 0 3.73264 0C3.56535 0 3.40628 0.143773 3.37326 0.371078L2.90313 3.59158L0.3 4.17356C0.116354 4.21463 0.000104109 4.41153 0.000104109 4.61872C0.000104109 4.70578 0.0206632 4.79463 0.0654166 4.87443L1.57271 7.56298L0.0652778 10.2524C0.0204862 10.3297 0 10.4199 0 10.5059C0 10.7128 0.116215 10.9097 0.299861 10.9506L2.90229 11.5324L3.37243 14.7529C3.40561 14.9802 3.56469 15.124 3.73181 15.124C3.80219 15.124 3.87403 15.0985 3.93854 15.0431L4.61458 14.4626C4.50486 14.0183 4.44326 13.5482 4.44326 13.0601C4.44326 12.3223 4.58323 11.6176 4.83007 10.9838C3.78472 10.3856 3.05556 9.0836 3.05556 7.52384ZM17.7257 9.68946C17.487 8.08888 16.3628 6.87501 14.9997 6.87501C14.5743 6.87501 14.1705 7.00392 13.8104 7.21876C13.2028 6.18192 12.226 5.50001 11.1104 5.50001C9.27014 5.50001 7.77674 7.34766 7.77674 9.62501C7.77674 9.64649 7.78542 9.67335 7.78542 9.69483C6.51389 9.97305 5.52431 11.3953 5.52431 13.0238C5.52431 14.9252 6.76562 16.4613 8.30243 16.4613H17.1913C18.7569 16.4613 20 14.9617 20 13.0238C20 11.3738 19.0174 9.97735 17.7257 9.68946ZM18.0556 17.8363C17.7864 17.8363 17.5226 17.9975 17.3622 18.2957L16.251 20.3582C16.1562 20.534 16.1109 20.7328 16.1109 20.9292C16.1111 21.5445 16.4896 22 16.9444 22C17.2135 22 17.4778 21.8389 17.6382 21.5407L18.7493 19.4782C18.8441 19.3023 18.8895 19.1035 18.8895 18.9071C18.8889 18.3305 18.5104 17.8363 18.0556 17.8363ZM14.7222 17.8363C14.4531 17.8363 14.1896 17.9975 14.0285 18.2957L12.9174 20.3582C12.8225 20.534 12.7772 20.7328 12.7772 20.9292C12.7778 21.5445 13.1563 22 13.5799 22C13.849 22 14.1132 21.8389 14.2736 21.5407L15.3847 19.4782C15.4795 19.3023 15.5249 19.1035 15.5249 18.9071C15.5556 18.3305 15.1771 17.8363 14.7222 17.8363ZM11.3889 17.8363C11.1197 17.8363 10.8563 17.9975 10.6955 18.2957L9.58438 20.3582C9.48955 20.534 9.4442 20.7328 9.4442 20.9292C9.44445 21.5445 9.82292 22 10.2465 22C10.5156 22 10.7799 21.8389 10.9406 21.5407L12.0517 19.4782C12.1466 19.3023 12.1919 19.1035 12.1919 18.9071C12.2222 18.3305 11.8438 17.8363 11.3889 17.8363ZM8.05556 17.8363C7.78625 17.8363 7.52257 17.9975 7.36215 18.2957L6.25104 20.3582C6.15622 20.534 6.11087 20.7328 6.11087 20.9292C6.11111 21.5445 6.48958 22 6.91319 22C7.18229 22 7.44653 21.8389 7.60694 21.5407L8.71806 19.4782C8.81288 19.3023 8.85823 19.1035 8.85823 18.9071C8.88889 18.3305 8.51042 17.8363 8.05556 17.8363Z"/></svg>