<svg xmlns="http://www.w3.org/2000/svg" width="20" height="20" fill="none" viewBox="0 0 20 20"><path fill="#000" d="M3.00001 8.12495C3.00001 5.70854 4.56688 3.7851 6.47188 3.7851C8.11719 3.7851 9.48751 5.20893 9.86251 7.12182C10.4594 6.76167 11.0844 6.56245 11.7219 6.56245C11.8659 6.56245 12.0079 6.57733 12.1494 6.59449L12.9034 5.23668C13.0642 4.94707 12.9315 4.54644 12.6539 4.48394L9.91251 3.85854L9.41251 0.398774C9.36251 0.051704 9.04376 -0.114077 8.80938 0.0868993L6.50001 2.09135L4.19063 0.0868602C3.95626 -0.114116 3.63751 0.051743 3.58751 0.398774L3.08688 3.85854L0.319069 4.48432C0.0414437 4.54682 -0.0913063 4.94917 0.069475 5.23823L1.6726 8.12651L0.0695062 11.0117C-0.0912751 11.3013 0.0414593 11.7019 0.318975 11.7644L3.08688 12.3906L3.58719 15.8507C3.63732 16.1976 3.95782 16.3636 4.18938 16.1625L4.52407 15.8722C4.60923 14.4992 5.14438 13.2742 5.95626 12.4308C4.28438 12.1015 3.00001 10.3085 3.00001 8.12495ZM4.00001 8.12495C4.00001 9.85073 5.11938 11.25 6.50001 11.25C6.80404 11.25 7.09157 11.172 7.36126 11.0478C7.58007 9.73331 8.15907 8.59268 8.97282 7.78839C8.83751 6.22261 7.78751 4.99995 6.50001 4.99995C5.11876 4.99995 4.00001 6.39839 4.00001 8.12495ZM17.975 12.7187C17.9789 12.6406 17.9983 12.5725 17.9983 12.4992C17.9983 11.1172 17.0999 9.99921 16.0264 9.99921C15.632 9.99921 15.2686 10.1457 14.9599 10.3898C14.4092 8.87104 13.1942 7.84682 11.7755 7.84682C9.8458 7.84682 8.27549 9.80464 8.27549 12.1867C8.27549 12.3039 8.29899 12.411 8.3029 12.5233C6.75196 12.6698 5.5254 14.271 5.5254 16.2487C5.47188 18.3203 6.81563 20 8.47188 20H16.9719C18.6281 20 19.9719 18.3207 19.9719 16.2503C19.9719 14.6054 19.1469 13.2265 17.975 12.7187Z"/></svg>