<svg width="21" height="18" viewBox="0 0 21 18" fill="none" xmlns="http://www.w3.org/2000/svg">
<path d="M15.3326 10.6147C15.1595 10.6147 14.9903 10.5653 14.8464 10.4725C14.7025 10.3798 14.5904 10.2481 14.5242 10.0939C14.4579 9.9397 14.4406 9.77005 14.4744 9.60638C14.5081 9.44271 14.5915 9.29237 14.7138 9.17437C14.8362 9.05637 14.9921 8.97601 15.1618 8.94345C15.3316 8.9109 15.5075 8.92761 15.6674 8.99147C15.8273 9.05533 15.9639 9.16347 16.0601 9.30223C16.1562 9.44098 16.2076 9.60411 16.2076 9.77099C16.2076 9.99477 16.1154 10.2094 15.9513 10.3676C15.7872 10.5258 15.5646 10.6147 15.3326 10.6147ZM5.66745 10.6147C5.49439 10.6147 5.32522 10.5653 5.18132 10.4725C5.03743 10.3798 4.92528 10.2481 4.85905 10.0939C4.79283 9.9397 4.7755 9.77005 4.80926 9.60638C4.84302 9.44271 4.92636 9.29237 5.04873 9.17437C5.1711 9.05637 5.32701 8.97601 5.49674 8.94345C5.66648 8.9109 5.84241 8.92761 6.0023 8.99147C6.16218 9.05533 6.29884 9.16347 6.39498 9.30223C6.49113 9.44098 6.54245 9.60411 6.54245 9.77099C6.54245 9.99477 6.45026 10.2094 6.28617 10.3676C6.12207 10.5258 5.89951 10.6147 5.66745 10.6147ZM15.6461 5.53537L17.3939 2.6174C17.4217 2.57743 17.4407 2.53239 17.4497 2.48506C17.4588 2.43773 17.4576 2.38911 17.4464 2.34223C17.4351 2.29534 17.414 2.25118 17.3843 2.21249C17.3546 2.17379 17.317 2.14138 17.2739 2.11727C17.2307 2.09315 17.1828 2.07785 17.1332 2.07229C17.0837 2.06674 17.0334 2.07106 16.9857 2.08499C16.9379 2.09892 16.8936 2.12215 16.8555 2.15326C16.8174 2.18437 16.7864 2.22268 16.7643 2.26583L14.9946 5.22142C13.581 4.61006 12.0493 4.294 10.5 4.294C8.95074 4.294 7.41901 4.61006 6.00542 5.22142L4.23573 2.26583C4.21363 2.22268 4.18258 2.18437 4.1445 2.15326C4.10642 2.12215 4.06212 2.09892 4.01435 2.08499C3.96658 2.07106 3.91635 2.06674 3.86677 2.07229C3.8172 2.07785 3.76934 2.09315 3.72615 2.11727C3.68296 2.14138 3.64536 2.17379 3.61569 2.21249C3.58602 2.25118 3.5649 2.29534 3.55365 2.34223C3.54239 2.38911 3.54124 2.43773 3.55026 2.48506C3.55928 2.53239 3.57829 2.57743 3.60609 2.6174L5.35391 5.53537C2.35266 7.10931 0.300417 10.0389 0 13.5H21C20.6996 10.0389 18.647 7.10931 15.6461 5.53537Z" fill="black"/>
</svg>
