<svg width="18" height="20" viewBox="0 0 18 20" fill="none" xmlns="http://www.w3.org/2000/svg">
<path d="M16.0714 1.25H1.92857C0.863839 1.25 0 2.08984 0 3.125V16.875C0 17.9102 0.863839 18.75 1.92857 18.75H16.0714C17.1362 18.75 18 17.9102 18 16.875V3.125C18 2.08984 17.1362 1.25 16.0714 1.25ZM5.10268 15.0195C4.8817 15.3945 4.3875 15.5195 4.0058 15.3047C3.62009 15.0898 3.49152 14.6094 3.7125 14.2383L4.28705 13.2734C4.93393 13.082 5.46429 13.2305 5.87813 13.7188L5.10268 15.0195ZM10.6835 12.9141H3.375C2.93304 12.9141 2.57143 12.5625 2.57143 12.1328C2.57143 11.7031 2.93304 11.3516 3.375 11.3516H5.42411L8.05179 6.92969L7.22812 5.54688C7.00714 5.17188 7.13973 4.69531 7.52143 4.48047C7.90714 4.26562 8.39732 4.39453 8.6183 4.76562L8.97589 5.36719L9.33348 4.76562C9.55446 4.39062 10.0487 4.26562 10.4304 4.48047C10.8161 4.69531 10.9446 5.17578 10.7237 5.54688L7.27634 11.3516H9.77143C10.583 11.3516 11.0371 12.2773 10.6835 12.9141ZM14.625 12.9141H13.4598L14.2473 14.2383C14.4683 14.6133 14.3357 15.0898 13.954 15.3047C13.5683 15.5195 13.0781 15.3906 12.8571 15.0195C11.5353 12.7969 10.5469 11.125 9.88393 10.0156C9.21295 8.88281 9.69107 7.75 10.1692 7.36719C10.6955 8.25391 11.483 9.58203 12.5357 11.3516H14.625C15.067 11.3516 15.4286 11.7031 15.4286 12.1328C15.4286 12.5664 15.067 12.9141 14.625 12.9141Z" fill="black"/>
</svg>
