<svg width="13" height="17" viewBox="0 0 13 17" fill="none" xmlns="http://www.w3.org/2000/svg">
<path d="M10.7893 8.92168C10.7826 7.70313 11.3445 6.7834 12.482 6.10606C11.8456 5.21289 10.8841 4.72148 9.61459 4.6252C8.41276 4.53223 7.09922 5.3125 6.61849 5.3125C6.11068 5.3125 4.9461 4.6584 4.03204 4.6584C2.14297 4.68828 0.135422 6.13594 0.135422 9.08106C0.135422 9.95098 0.297922 10.8497 0.622922 11.7772C1.05625 12.9957 2.62032 15.984 4.25209 15.9342C5.10521 15.9143 5.70782 15.3398 6.81823 15.3398C7.8948 15.3398 8.45339 15.9342 9.40469 15.9342C11.05 15.9109 12.4651 13.1949 12.8781 11.973C10.6708 10.9537 10.7893 8.98477 10.7893 8.92168ZM8.87318 3.46973C9.7974 2.39395 9.71276 1.41445 9.68568 1.0625C8.8698 1.10898 7.92526 1.60703 7.38698 2.22129C6.79454 2.87871 6.44584 3.69219 6.52032 4.60859C7.40391 4.675 8.20964 4.23008 8.87318 3.46973Z" fill="black"/>
</svg>
