<svg xmlns="http://www.w3.org/2000/svg" width="18" height="17" fill="none" viewBox="0 0 18 17"><path fill="#000" d="M17.7188 8.5C17.7188 13.0477 13.8152 16.7344 9 16.7344C4.18475 16.7344 0.28125 13.0477 0.28125 8.5C0.28125 3.95227 4.18475 0.265625 9 0.265625C13.8152 0.265625 17.7188 3.95227 17.7188 8.5ZM12.7388 7.32693C12.9124 6.23126 12.029 5.64224 10.8211 5.24931L11.2129 3.76507L10.2562 3.53992L9.87472 4.98505C9.62322 4.92585 9.36489 4.87004 9.10821 4.81472L9.49243 3.36009L8.53625 3.13494L8.14416 4.61865C7.93596 4.57386 7.7316 4.5296 7.53325 4.48305L7.53434 4.4784L6.21492 4.16729L5.96043 5.13224C5.96043 5.13224 6.67027 5.28587 6.65529 5.29537C7.04278 5.38671 7.11281 5.62886 7.10107 5.82081L6.65473 7.51168C6.68145 7.51812 6.71604 7.52738 6.75418 7.54179C6.7223 7.53432 6.68823 7.52609 6.65307 7.51812L6.02743 9.88676C5.98001 9.99793 5.85984 10.1647 5.589 10.1014C5.59853 10.1145 4.89361 9.93746 4.89361 9.93746L4.41865 10.9716L5.66367 11.2647C5.89528 11.3195 6.12229 11.3769 6.3457 11.4309L5.94977 12.9322L6.90539 13.1573L7.29749 11.672C7.55091 11.7369 7.80507 11.7992 8.05992 11.8589L7.66916 13.3372L8.62587 13.5623L9.0218 12.0639C10.6532 12.3555 11.88 12.2379 12.3963 10.8445C12.8124 9.72254 12.3756 9.07538 11.5173 8.65337C12.1423 8.5173 12.6132 8.12902 12.7388 7.32693ZM10.5529 10.2215C10.2573 11.3435 8.25694 10.737 7.60841 10.5849L8.13378 8.59606C8.78228 8.74889 10.8619 9.0515 10.5529 10.2215ZM10.8488 7.31073C10.5791 8.33126 8.91415 7.81276 8.37408 7.68566L8.85038 5.88183C9.39048 6.00894 11.1298 6.24617 10.8488 7.31073Z"/></svg>