<svg width="16" height="17" viewBox="0 0 16 17" fill="none" xmlns="http://www.w3.org/2000/svg">
<path d="M5.8 6.50781C5.97143 6.34512 6.02143 6.33848 7.1 6.33848C8.07143 6.33848 8.10357 6.3418 8.24643 6.4082C8.45357 6.50449 8.54286 6.64062 8.54286 6.85977C8.54286 7.05566 8.45714 7.1918 8.27143 7.30469C8.17143 7.36445 8.11071 7.36777 7.16071 7.37441C6.575 7.37773 6.10714 7.36777 6.03571 7.34785C5.66786 7.25156 5.53214 6.76016 5.8 6.50781ZM7.99286 9.64551C6.06786 9.64551 6 9.65215 5.84286 9.78164C5.71786 9.88457 5.63929 10.0937 5.66071 10.2432C5.68571 10.3992 5.83214 10.5785 5.98929 10.6416C6.06786 10.6748 6.49286 10.698 8 10.6814L9.71071 10.6615L10.0393 10.6117C10.3607 10.4424 10.4143 10.034 10.15 9.80156C9.96072 9.64551 9.97143 9.64551 7.99286 9.64551ZM15.9714 13.9652C15.8464 14.9082 15.15 15.6387 14.1464 15.8744C13.8893 15.9342 13.8 15.9375 7.97143 15.9342C2.33571 15.9342 2.04643 15.9309 1.82857 15.8744C1.52857 15.8014 1.27143 15.6918 1.03214 15.5424C0.832143 15.4162 0.535714 15.1506 0.425 14.9979C0.289286 14.8119 0.132143 14.4898 0.0678571 14.2674C0.00357143 14.0449 0 13.9553 0 8.50996C0 3.09453 0 2.97832 0.0642857 2.74258C0.289286 1.92246 0.989286 1.29492 1.89286 1.10898C2.15357 1.05586 13.7536 1.0459 14.0357 1.09902C14.7929 1.2418 15.3893 1.6668 15.7357 2.30762C16.0107 2.81563 15.9857 2.25781 15.9964 8.3041C16.0036 12.149 15.9964 13.766 15.9714 13.9652ZM12.9214 7.81601C12.8821 7.65 12.7714 7.49726 12.6464 7.43418C12.6071 7.41426 12.3607 7.39102 12.0929 7.37773C11.65 7.35781 11.6 7.35117 11.4571 7.2748C11.2357 7.15527 11.175 7.02246 11.1714 6.66719C11.1714 5.98984 10.8679 5.35898 10.2679 4.79121C9.83929 4.38613 9.36429 4.11055 8.81786 3.95781C8.68929 3.92129 8.39643 3.90801 7.41786 3.89805C5.88571 3.88145 5.54286 3.91133 5.02143 4.10391C4.05714 4.45918 3.36786 5.21289 3.11429 6.17578C3.06786 6.35508 3.05714 6.64727 3.04643 8.31074C3.03214 10.3959 3.04643 10.7047 3.18929 11.1164C3.53571 12.1357 4.51429 12.8895 5.49643 13.0555C5.825 13.1119 9.86071 13.1252 10.2714 13.0721C10.9893 12.9824 11.5536 12.7135 12.0821 12.2121C12.4643 11.8502 12.7036 11.4551 12.8607 10.9338C12.975 10.5719 12.9643 7.99863 12.9214 7.81601Z" fill="black"/>
</svg>
