<svg width="21" height="21" viewBox="0 0 21 21" fill="none" xmlns="http://www.w3.org/2000/svg">
<path d="M10.5 0C4.70039 0 0 4.70039 0 10.5C0 16.2996 4.70039 21 10.5 21C16.2996 21 21 16.2996 21 10.5C21 4.70039 16.2996 0 10.5 0ZM10.5 5.25C12.1312 5.25 13.4531 6.57234 13.4531 8.20312C13.4531 9.83391 12.1324 11.1562 10.5 11.1562C8.86922 11.1562 7.54688 9.83391 7.54688 8.20312C7.54688 6.57234 8.86758 5.25 10.5 5.25ZM10.5 18.375C8.32904 18.375 6.36152 17.4919 4.93418 16.0662C5.59863 14.3514 7.23926 13.125 9.1875 13.125H11.8125C13.7624 13.125 15.403 14.3505 16.0658 16.0662C14.6385 17.4932 12.6697 18.375 10.5 18.375Z" fill="black"/>
</svg>
