<svg width="18" height="17" viewBox="0 0 18 17" fill="none" xmlns="http://www.w3.org/2000/svg">
<path d="M9.01934 0.265625C4.09641 0.265625 0.28125 3.66363 0.28125 8.2533C0.28125 10.6539 1.32574 12.7284 3.0259 14.1615C3.31945 14.4108 3.25898 14.5553 3.30891 16.0949C3.31284 16.2027 3.34465 16.308 3.40156 16.4016C3.45847 16.4952 3.53876 16.5742 3.63543 16.6317C3.73209 16.6892 3.84219 16.7235 3.95612 16.7317C4.07005 16.7398 4.18436 16.7214 4.28906 16.6783C6.14918 15.9046 6.17309 15.8435 6.48844 15.9246C11.8775 17.3254 17.7188 14.0682 17.7188 8.2533C17.7188 3.66363 13.9426 0.265625 9.01934 0.265625ZM14.2661 6.41252L11.6996 10.2498C11.6027 10.3941 11.4753 10.5179 11.3254 10.6135C11.1754 10.7092 11.0062 10.7745 10.8282 10.8054C10.6503 10.8364 10.4675 10.8323 10.2913 10.7934C10.1151 10.7545 9.94936 10.6817 9.80437 10.5795L7.7625 9.13617C7.67122 9.07152 7.5602 9.03656 7.44609 9.03656C7.33199 9.03656 7.22097 9.07152 7.12969 9.13617L4.37449 11.1098C4.00676 11.3731 3.52512 10.957 3.77297 10.5895L6.33938 6.75219C6.43625 6.60786 6.56366 6.48399 6.71361 6.38835C6.86356 6.2927 7.03282 6.22736 7.21077 6.1964C7.38872 6.16544 7.57152 6.16955 7.74771 6.20845C7.9239 6.24736 8.08968 6.32022 8.23465 6.42248L10.2758 7.86549C10.3671 7.93015 10.4781 7.9651 10.5922 7.9651C10.7063 7.9651 10.8174 7.93015 10.9086 7.86549L13.6652 5.89389C14.0323 5.62893 14.5139 6.04463 14.2661 6.41252Z" fill="black"/>
</svg>
