<svg width="19" height="19" viewBox="0 0 19 19" fill="none" xmlns="http://www.w3.org/2000/svg">
<path d="M6.35504 14.7473C6.35504 14.8215 6.26694 14.8809 6.15585 14.8809C6.02944 14.892 5.94133 14.8326 5.94133 14.7473C5.94133 14.673 6.02944 14.6137 6.14052 14.6137C6.25544 14.6025 6.35504 14.6619 6.35504 14.7473ZM5.16371 14.5803C5.1369 14.6545 5.21351 14.7398 5.32843 14.7621C5.42802 14.7992 5.54294 14.7621 5.56593 14.6879C5.58891 14.6137 5.51613 14.5283 5.40121 14.4949C5.30161 14.4689 5.19052 14.5061 5.16371 14.5803ZM6.85685 14.5172C6.74577 14.5432 6.66915 14.6137 6.68064 14.699C6.69214 14.7732 6.79173 14.8215 6.90665 14.7955C7.01774 14.7695 7.09435 14.699 7.08286 14.6248C7.07137 14.5543 6.96794 14.5061 6.85685 14.5172ZM9.37742 0.296875C4.06431 0.296875 0 4.20449 0 9.35156C0 13.467 2.67379 16.9887 6.49294 18.2281C6.98327 18.3135 7.15565 18.0203 7.15565 17.7791C7.15565 17.549 7.14415 16.2799 7.14415 15.5006C7.14415 15.5006 4.4627 16.0572 3.8996 14.3947C3.8996 14.3947 3.4629 13.3148 2.83468 13.0365C2.83468 13.0365 1.95746 12.4539 2.89597 12.465C2.89597 12.465 3.8498 12.5393 4.3746 13.4225C5.21351 14.8549 6.61936 14.443 7.16714 14.198C7.25524 13.6043 7.50423 13.1924 7.78004 12.9475C5.63871 12.7174 3.47823 12.4168 3.47823 8.84688C3.47823 7.82637 3.76936 7.31426 4.38226 6.66113C4.28266 6.41992 3.95706 5.42539 4.48185 4.14141C5.28246 3.9002 7.125 5.14336 7.125 5.14336C7.89113 4.93555 8.71472 4.82793 9.53065 4.82793C10.3466 4.82793 11.1702 4.93555 11.9363 5.14336C11.9363 5.14336 13.7788 3.89648 14.5794 4.14141C15.1042 5.4291 14.7786 6.41992 14.679 6.66113C15.2919 7.31797 15.6673 7.83008 15.6673 8.84688C15.6673 12.4279 13.4111 12.7137 11.2698 12.9475C11.6222 13.2406 11.921 13.7973 11.921 14.6693C11.921 15.9199 11.9095 17.4674 11.9095 17.7717C11.9095 18.0129 12.0857 18.3061 12.5722 18.2207C16.4028 16.9887 19 13.467 19 9.35156C19 4.20449 14.6905 0.296875 9.37742 0.296875ZM3.72339 13.0959C3.67359 13.133 3.68508 13.2184 3.7502 13.2889C3.81149 13.3482 3.8996 13.3742 3.9494 13.326C3.99919 13.2889 3.9877 13.2035 3.92258 13.133C3.86129 13.0736 3.77319 13.0477 3.72339 13.0959ZM3.30968 12.7953C3.28286 12.8436 3.32117 12.9029 3.39778 12.94C3.45907 12.9771 3.53569 12.966 3.5625 12.9141C3.58931 12.8658 3.55101 12.8064 3.4744 12.7693C3.39778 12.7471 3.33649 12.7582 3.30968 12.7953ZM4.55081 14.1164C4.48952 14.1646 4.5125 14.276 4.60061 14.3465C4.68871 14.4318 4.7998 14.443 4.8496 14.3836C4.89939 14.3354 4.87641 14.224 4.7998 14.1535C4.71552 14.0682 4.60061 14.057 4.55081 14.1164ZM4.11411 13.5709C4.05282 13.608 4.05282 13.7045 4.11411 13.7898C4.1754 13.8752 4.27883 13.9123 4.32863 13.8752C4.38992 13.827 4.38992 13.7305 4.32863 13.6451C4.275 13.5598 4.1754 13.5227 4.11411 13.5709Z" fill="black"/>
</svg>
