<svg width="18" height="20" viewBox="0 0 18 20" fill="none" xmlns="http://www.w3.org/2000/svg">
<path d="M8.98393 3.13672C5.18304 3.13672 2.10938 6.13281 2.10938 9.82422C2.10938 13.5156 5.18304 16.5156 8.98393 16.5156C12.7848 16.5156 15.8625 13.5195 15.8625 9.82812C15.8625 6.13281 12.7808 3.13672 8.98393 3.13672ZM12.1741 12.5117C12.0455 13.043 11.6317 13.3398 11.0772 13.4414C10.5911 13.5273 10.1853 13.5508 9.79554 13.2461C9.32143 12.8555 9.31339 12.2148 9.73929 11.8086C10.0768 11.4961 10.5549 11.4336 11.2661 11.3086C11.3866 11.2891 11.4911 11.2617 11.5754 11.1641C11.704 11.0234 11.6638 11.0859 11.6638 8.00781C11.6638 7.78906 11.5554 7.73047 11.3263 7.76953C11.1656 7.79687 7.63393 8.4375 7.63393 8.4375C7.43304 8.48047 7.36473 8.53906 7.36473 8.76172C7.36473 13.2969 7.38482 13.0898 7.31652 13.3906C7.23214 13.7422 7.01116 14.0078 6.71786 14.1562C6.38437 14.3359 5.77768 14.4141 5.45625 14.3594C4.59643 14.2031 4.29509 13.2383 4.87768 12.6836C5.21518 12.3711 5.6933 12.3086 6.40446 12.1836C6.525 12.1641 6.62946 12.1367 6.71384 12.0391C6.91473 11.8164 6.75 7.07812 6.8183 6.81641C6.83437 6.71484 6.87857 6.62891 6.95893 6.56641C7.0433 6.5 7.19196 6.46094 7.22812 6.46094C11.2862 5.71875 11.7804 5.625 11.8527 5.625C12.0817 5.60938 12.2143 5.74219 12.2143 5.96484C12.2103 12.6289 12.2304 12.2695 12.1741 12.5117ZM13.8696 1.25H4.13036C1.8442 1.25 0 3.04297 0 5.26562V14.7344C0 16.957 1.8442 18.75 4.13036 18.75H13.8696C16.1598 18.75 18 16.957 18 14.7344V5.26562C18 3.04297 16.1558 1.25 13.8696 1.25ZM8.98393 17.3438C4.71295 17.3438 1.24955 13.9766 1.24955 9.82422C1.24955 5.67188 4.71295 2.30469 8.98393 2.30469C13.2549 2.30469 16.7183 5.67188 16.7183 9.82422C16.7183 13.9766 13.2549 17.3438 8.98393 17.3438Z" fill="black"/>
</svg>
