<svg width="18" height="24" viewBox="0 0 18 24" fill="none" xmlns="http://www.w3.org/2000/svg">
<g clip-path="url(#clip0_140_22)">
<path d="M8.36221 5.77971C8.40239 5.80314 8.43453 5.85939 8.48275 5.85939C8.52694 5.85939 8.59525 5.84064 8.59926 5.78908C8.6073 5.72345 8.52293 5.68127 8.47069 5.65314C8.40239 5.62033 8.314 5.60627 8.24971 5.64846C8.23364 5.65783 8.21757 5.68127 8.2256 5.70002C8.23766 5.76096 8.31801 5.75158 8.36221 5.77971ZM7.4823 5.85939C7.53051 5.85939 7.56266 5.80314 7.60284 5.77971C7.64703 5.75158 7.72739 5.76095 7.74346 5.70471C7.7515 5.68596 7.73543 5.66252 7.71935 5.65314C7.65507 5.61096 7.56668 5.62502 7.49837 5.65783C7.44614 5.68596 7.36176 5.72814 7.3698 5.79377C7.37382 5.84064 7.44212 5.86408 7.4823 5.85939ZM16.3658 18.9282C16.2211 18.7407 16.1528 18.3844 16.0765 18.0047C16.0042 17.625 15.9198 17.2172 15.6546 16.9547C15.6024 16.9032 15.5502 16.8563 15.4939 16.8188C15.4417 16.7813 15.3854 16.7485 15.3292 16.725C15.6988 15.4453 15.5542 14.1703 15.1805 13.0172C14.7225 11.6063 13.9229 10.3735 13.3122 9.52971C12.6252 8.52189 11.9582 7.56564 11.9702 6.15471C11.9903 4.00314 12.1752 0.00470106 8.92471 1.35551e-05C4.81043 -0.00936145 5.839 4.84689 5.7948 6.33752C5.7265 7.43439 5.53766 8.29689 4.89078 9.37033C4.13141 10.425 3.06266 12.1266 2.55641 13.9031C2.31534 14.7422 2.20284 15.5953 2.3073 16.4016C2.04614 16.6735 1.84926 17.0907 1.64034 17.3485C1.47159 17.55 1.2265 17.625 0.9573 17.7375C0.688104 17.85 0.3948 18.0188 0.213997 18.4172C0.129622 18.6 0.101497 18.7969 0.101497 18.9985C0.101497 19.1813 0.125604 19.3688 0.149711 19.5516C0.197925 19.9313 0.250158 20.2875 0.181854 20.5266C-0.0270746 21.2016 -0.0551996 21.6703 0.0934611 22.0125C0.24614 22.3547 0.551497 22.5047 0.90105 22.5891C1.59614 22.7578 2.54034 22.7157 3.28364 23.175C4.07918 23.6625 4.88676 23.836 5.52962 23.6625C5.99569 23.5407 6.37739 23.2125 6.57025 22.7157C7.07248 22.711 7.62694 22.4625 8.51087 22.4063C9.10953 22.35 9.86087 22.6547 10.7247 22.5985C10.7488 22.7063 10.781 22.8141 10.8252 22.9125V22.9172C11.1586 23.7 11.7814 24.0563 12.4444 23.9953C13.1113 23.9344 13.8144 23.4797 14.385 22.6875C14.9314 21.9188 15.8314 21.6 16.4301 21.1782C16.7274 20.9672 16.9685 20.7047 16.9886 20.3203C17.0046 19.936 16.8118 19.5094 16.3658 18.9282ZM8.47873 4.0922C8.87248 3.05158 9.85284 3.07033 10.2466 4.07345C10.5077 4.73908 10.3912 5.52189 10.0738 5.96721C10.0095 5.92971 9.83676 5.84533 9.56757 5.73752C9.61176 5.68127 9.69212 5.61096 9.72426 5.52189C9.91712 4.96877 9.71623 4.25627 9.35864 4.2422C9.06534 4.21877 8.80016 4.74845 8.88453 5.32033C8.7198 5.22658 8.50685 5.15627 8.36221 5.11408C8.32203 4.79064 8.35016 4.4297 8.47873 4.0922ZM6.84346 3.55314C7.24926 3.55314 7.67918 4.21877 7.61087 5.12346C7.47025 5.17033 7.3256 5.24064 7.20105 5.33908C7.24926 4.92189 7.06846 4.39689 6.81534 4.42033C6.47784 4.45314 6.42159 5.41408 6.74301 5.73752C6.78319 5.77502 6.81935 5.72814 6.50596 5.99533C5.87918 5.31096 6.08409 3.55314 6.84346 3.55314ZM6.29703 6.39846C6.54614 6.18283 6.84346 5.92971 6.86355 5.90627C7.05239 5.70002 7.40596 5.24064 7.98453 5.24064C8.2698 5.24064 8.61132 5.34845 9.02516 5.65783C9.27828 5.85002 9.47917 5.86408 9.93319 6.09377C10.2707 6.25783 10.4836 6.54846 10.3551 6.94689C10.2506 7.27971 9.9131 7.62189 9.44301 7.79533C8.99703 7.96408 8.64748 8.54533 7.90819 8.49377C7.7515 8.48439 7.62694 8.44689 7.52248 8.39533C7.20105 8.23127 7.0323 7.90783 6.71891 7.69221C6.37337 7.46721 6.18855 7.20471 6.12828 6.97502C6.07203 6.74533 6.12828 6.55314 6.29703 6.39846ZM6.42962 22.0547C6.32114 23.7 4.66578 23.6672 3.40418 22.8985C2.20284 22.1578 0.647925 22.5938 0.330515 21.8719C0.234086 21.6516 0.234086 21.2766 0.434979 20.6344V20.625C0.531407 20.2688 0.459086 19.875 0.410872 19.5047C0.362657 19.1391 0.33855 18.8016 0.447032 18.5672C0.587657 18.2532 0.78855 18.1406 1.04168 18.0375C1.45551 17.8641 1.51578 17.8782 1.82918 17.5735C2.05016 17.3063 2.21087 16.9688 2.40373 16.7297C2.60864 16.4719 2.80551 16.35 3.11489 16.4063C3.44034 16.4625 3.72159 16.725 3.9948 17.1563L4.7823 18.825C5.164 19.7578 6.514 21.0938 6.42962 22.0547ZM6.37337 20.8407C6.20864 20.5313 5.98766 20.2032 5.7948 19.9219C6.08007 19.9219 6.36534 19.8188 6.46578 19.5047C6.55819 19.2141 6.46578 18.8063 6.16846 18.3375C5.62605 17.4844 4.62962 16.8141 4.62962 16.8141C4.08721 16.4203 3.78185 15.9375 3.64123 15.4125C3.5006 14.8875 3.52069 14.3203 3.62918 13.7625C3.8381 12.6891 4.3765 11.6438 4.72203 10.9875C4.81444 10.9078 4.75418 11.1375 4.37248 11.9625C4.03096 12.7172 3.39212 14.461 4.26801 15.825C4.29212 14.8547 4.489 13.8656 4.82248 12.9422C5.30462 11.6578 6.32114 9.43127 6.4015 7.65939C6.44569 7.69689 6.58632 7.80939 6.6506 7.85158C6.83542 7.97814 6.97605 8.16564 7.15685 8.33439C7.65507 8.80315 8.30194 8.76565 8.86042 8.39065C9.10953 8.22658 9.31043 8.03908 9.49926 7.96877C9.89703 7.82346 10.2144 7.56564 10.3952 7.26564C10.7046 8.69065 11.4278 10.7485 11.8899 11.7516C12.135 12.286 12.6252 13.4156 12.8381 14.7797C12.9707 14.775 13.1194 14.7985 13.2761 14.8453C13.8305 13.1719 12.806 11.3672 12.3399 10.8656C12.151 10.65 12.143 10.5563 12.2354 10.561C12.7417 11.086 13.4086 12.1406 13.6497 13.3266C13.7622 13.8703 13.7823 14.4375 13.6658 15C14.3247 15.3188 15.1082 15.8391 14.8993 16.6313C14.8109 16.6266 14.7707 16.6313 14.7305 16.6313C14.8591 16.1578 14.5738 15.8063 13.8144 15.4078C13.0269 15.0047 12.368 15.0047 12.2756 15.9938C11.7894 16.1907 11.5403 16.6828 11.4158 17.2735C11.3033 17.7985 11.2711 18.4313 11.239 19.1438C11.2189 19.5047 11.0944 19.9875 10.9658 20.5032C9.67605 21.5766 7.88409 22.0453 6.37337 20.8407ZM16.7153 20.3016C16.6792 21.0891 15.06 21.2344 14.1761 22.4813C13.6457 23.2172 12.9948 23.625 12.4243 23.6766C11.8537 23.7282 11.3595 23.4516 11.0702 22.7719C10.8814 22.2516 10.9738 21.6891 11.1144 21.0703C11.2631 20.4047 11.4841 19.7203 11.5122 19.1672C11.5444 18.4547 11.5805 17.8313 11.681 17.3532C11.7854 16.8703 11.9461 16.5469 12.2314 16.3641C12.2435 16.3547 12.2595 16.35 12.2716 16.3407C12.3037 16.9594 12.5649 17.5875 13.0269 17.7235C13.5332 17.8782 14.2604 17.3719 14.5698 16.9594C14.9314 16.9453 15.2006 16.9172 15.4778 17.1985C15.8756 17.5969 15.7631 18.6188 16.1649 19.1485C16.5908 19.6922 16.7274 20.0625 16.7153 20.3016ZM6.45373 6.97033C6.53409 7.05939 6.64257 7.18127 6.77516 7.30314C7.04034 7.54689 7.40998 7.80002 7.87203 7.80002C8.3381 7.80002 8.77605 7.52346 9.14971 7.29377C9.34659 7.17189 9.58766 6.96564 9.74435 6.80627C9.90105 6.64689 9.98141 6.51096 9.86891 6.49689C9.75641 6.48283 9.76444 6.61877 9.62784 6.73596C9.45105 6.88596 9.2381 7.08283 9.06935 7.19533C8.77203 7.39221 8.28587 7.67346 7.86801 7.67346C7.45016 7.67346 7.11668 7.44846 6.86757 7.21877C6.74301 7.10158 6.63855 6.98439 6.55819 6.89533C6.49792 6.82971 6.48185 6.67971 6.38543 6.66564C6.32918 6.66096 6.3131 6.83908 6.45373 6.97033Z" fill="black"/>
</g>
<defs>
<clipPath id="clip0_140_22">
<rect width="18" height="24" fill="white"/>
</clipPath>
</defs>
</svg>
