<svg xmlns="http://www.w3.org/2000/svg" width="18" height="20" fill="none" viewBox="0 0 18 20"><path fill="#000" d="M17.0638 11.7109C17.1804 11.1641 17.2527 10.582 17.2527 10C17.2527 5.56641 13.5603 1.98047 9.00402 1.98047C8.40536 1.98047 7.81071 2.04688 7.2442 2.16406C6.4808 1.58984 5.53259 1.25 4.5 1.25C2.01696 1.25 0 3.21094 0 5.625C0 6.62891 0.349554 7.55078 0.936161 8.28906C0.819643 8.83594 0.747321 9.41797 0.747321 10C0.747321 14.4336 4.43973 18.0195 8.99598 18.0195C9.59464 18.0195 10.1893 17.9531 10.7558 17.8359C11.5192 18.4062 12.4674 18.7461 13.496 18.7461C15.979 18.7461 17.996 16.7852 17.996 14.3711C18 13.3711 17.6504 12.4492 17.0638 11.7109ZM9.24509 15.2852C6.60938 15.2852 4.40357 14.1445 4.40357 12.7461C4.40357 12.1211 4.76518 11.5508 5.58884 11.5508C6.84241 11.5508 6.95893 13.3047 9.12857 13.3047C10.1612 13.3047 10.8281 12.8594 10.8281 12.2773C10.8281 11.5469 10.1853 11.4336 9.14062 11.1836C6.62946 10.582 4.40759 10.3242 4.40759 7.77734C4.40759 5.46484 6.76205 4.60938 8.79107 4.60938C11.0049 4.60938 13.2429 5.46484 13.2429 6.77344C13.2429 7.43359 12.7848 8.01562 12.0254 8.01562C10.8884 8.01562 10.8522 6.70703 9.01205 6.70703C7.97946 6.70703 7.32455 6.98047 7.32455 7.58594C7.32455 8.35938 8.16027 8.4375 10.1009 8.875C11.7643 9.23828 13.7451 9.92188 13.7451 11.9062C13.7451 14.2148 11.4509 15.2852 9.24509 15.2852Z"/></svg>