<svg width="18" height="20" viewBox="0 0 18 20" fill="none" xmlns="http://www.w3.org/2000/svg">
<g clip-path="url(#clip0_117_146)">
<path d="M15.4286 1.25H2.57143C1.88944 1.25 1.23539 1.51339 0.753154 1.98223C0.270918 2.45107 0 3.08696 0 3.75L0 16.25C0 16.913 0.270918 17.5489 0.753154 18.0178C1.23539 18.4866 1.88944 18.75 2.57143 18.75H15.4286C16.1106 18.75 16.7646 18.4866 17.2468 18.0178C17.7291 17.5489 18 16.913 18 16.25V3.75C18 3.08696 17.7291 2.45107 17.2468 1.98223C16.7646 1.51339 16.1106 1.25 15.4286 1.25ZM15.2716 13.723L15.2683 13.7269C15.1681 13.8347 15.0496 13.9248 14.918 13.9934C14.6569 14.1328 14.3791 14.2404 14.0909 14.3138C14.0357 14.3281 13.9834 14.3513 13.9361 14.3825C13.8494 14.4571 13.8518 14.5638 13.7594 14.7165C13.691 14.8323 13.5972 14.932 13.4845 15.0083C13.2151 15.1893 12.9122 15.2006 12.5914 15.2126C12.3015 15.2233 11.973 15.2353 11.5978 15.3559C11.4467 15.4046 11.2863 15.5002 11.1005 15.6111C10.6479 15.8807 10.0285 16.2499 8.99916 16.2499C7.96978 16.2499 7.35485 15.8827 6.90561 15.614C6.7185 15.5012 6.55706 15.4046 6.40165 15.3546C6.02642 15.2343 5.69788 15.2218 5.40808 15.2113C5.08721 15.1993 4.78438 15.1879 4.51487 15.007C4.41976 14.9428 4.33786 14.8619 4.27339 14.7684C4.14482 14.5874 4.15868 14.4637 4.06229 14.3818C4.01191 14.3491 3.95622 14.3249 3.89756 14.3102C3.61324 14.237 3.33917 14.1304 3.08142 13.9927C2.95756 13.9286 2.84499 13.8458 2.74793 13.7473C2.48344 13.4833 2.41542 13.1701 2.51948 12.8948C2.65753 12.53 2.98438 12.4217 3.29894 12.2595C3.89262 11.946 4.35757 11.5543 4.68241 11.0922C4.77503 10.9618 4.8555 10.8237 4.92288 10.6794C4.95458 10.5951 4.9539 10.5494 4.93256 10.5069C4.90969 10.4722 4.87944 10.4427 4.84385 10.4203C4.74212 10.3548 4.63842 10.2893 4.56734 10.2445C4.43596 10.1609 4.33157 10.0954 4.26483 10.05C4.01304 9.87879 3.83693 9.69688 3.72644 9.49356C3.64981 9.35283 3.60523 9.19772 3.59574 9.03875C3.58625 8.87979 3.61207 8.7207 3.67144 8.5723C3.83754 8.14559 4.25278 7.88066 4.75537 7.88066C4.86133 7.88056 4.96699 7.89143 5.07058 7.91309C5.09826 7.91895 5.12562 7.92508 5.15262 7.93191C5.14828 7.64168 5.15495 7.33203 5.18163 7.02883C5.27637 5.96395 5.66024 5.40426 6.0605 4.95875C6.31702 4.67878 6.61951 4.44209 6.95567 4.25832C7.56378 3.92121 8.24914 3.75 9 3.75C9.75086 3.75 10.4395 3.92121 11.0469 4.25844C11.3822 4.44219 11.6841 4.67843 11.9404 4.95766C12.3406 5.4032 12.7245 5.96191 12.8193 7.02777C12.8443 7.32814 12.8539 7.62953 12.8479 7.93082C12.8749 7.92402 12.9026 7.91785 12.9303 7.91203C13.0339 7.89038 13.1395 7.87951 13.2455 7.87961C13.7477 7.87961 14.1623 8.14453 14.3291 8.57125C14.3882 8.71958 14.4138 8.87855 14.4041 9.03734C14.3944 9.19614 14.3496 9.35104 14.2729 9.49152C14.1628 9.69465 13.9867 9.87672 13.7349 10.0479C13.6679 10.0943 13.5638 10.1598 13.4324 10.2425C13.3587 10.2889 13.2499 10.3576 13.1445 10.4254C13.113 10.4463 13.0863 10.4734 13.0662 10.5048C13.0458 10.5457 13.0445 10.5904 13.0728 10.6692C13.1412 10.8166 13.223 10.9577 13.3173 11.0908C13.6495 11.5634 14.1284 11.9624 14.7418 12.2786C14.8015 12.3087 14.8615 12.3371 14.9202 12.3668C14.9492 12.3797 14.9833 12.3966 15.0203 12.4175C15.2172 12.5239 15.39 12.6523 15.4806 12.8923C15.5821 13.1607 15.5197 13.4648 15.2716 13.723ZM14.5998 13.0019C12.5783 12.0521 12.2562 10.5832 12.2418 10.4726C12.2245 10.3406 12.2048 10.2369 12.3545 10.1026C12.499 9.97262 13.1397 9.58738 13.3174 9.46676C13.6119 9.26699 13.7407 9.06758 13.6453 8.82242C13.5786 8.65383 13.4168 8.58898 13.2451 8.58898C13.1911 8.58914 13.1373 8.59501 13.0846 8.60648C12.7618 8.67457 12.4483 8.83184 12.2668 8.87434C12.245 8.8798 12.2227 8.88274 12.2001 8.88309C12.1034 8.88309 12.0684 8.84125 12.0761 8.72809C12.0987 8.385 12.1467 7.71539 12.0911 7.08992C12.0154 6.2293 11.7299 5.80289 11.3907 5.42586C11.2279 5.24523 10.4611 4.46281 8.99859 4.46281C7.53605 4.46281 6.77129 5.2484 6.60853 5.42969C6.26967 5.8068 5.98452 6.2332 5.90814 7.09375C5.85245 7.71926 5.90247 8.38855 5.92312 8.73191C5.92979 8.83957 5.8958 8.88691 5.79905 8.88691C5.77654 8.88657 5.75416 8.88363 5.73236 8.87816C5.55127 8.8357 5.23776 8.67844 4.91488 8.61035C4.86222 8.59886 4.80842 8.59298 4.75445 8.59281C4.58369 8.59281 4.42097 8.65672 4.35423 8.82629C4.25885 9.07145 4.38826 9.27086 4.68241 9.47059C4.8602 9.59121 5.50089 9.97676 5.64533 10.1065C5.79475 10.2407 5.77539 10.3445 5.75803 10.4764C5.74373 10.5854 5.42117 12.0543 3.39999 13.0057C3.28163 13.0615 3.08017 13.1795 3.43535 13.3702C3.99303 13.6682 4.36391 13.6361 4.65276 13.8167C4.89757 13.9701 4.75321 14.3008 4.93091 14.4202C5.15005 14.567 5.79809 14.4098 6.63188 14.678C7.33231 14.9023 7.76154 15.5379 9.00092 15.5379C10.2403 15.5379 10.6799 14.9012 11.369 14.6796C12.2045 14.4114 12.8512 14.5687 13.07 14.4218C13.2481 14.3025 13.103 13.9717 13.3481 13.8184C13.6366 13.6377 14.0075 13.6699 14.5655 13.3702C14.9207 13.1779 14.7193 13.0599 14.5998 13.0019Z" fill="black"/>
</g>
<defs>
<clipPath id="clip0_117_146">
<rect width="18" height="20" fill="white"/>
</clipPath>
</defs>
</svg>
