<svg xmlns="http://www.w3.org/2000/svg" width="18" height="18" fill="none" viewBox="0 0 18 18"><path fill="#000" d="M11.3786 12.2461C11.4871 12.3516 11.4871 12.5117 11.3786 12.6055C10.3942 13.5625 7.60982 13.5664 6.62143 12.6055C6.51295 12.5117 6.51295 12.3516 6.62143 12.2461C6.71786 12.1523 6.88259 12.1523 6.97902 12.2461C7.73036 12.9961 10.2335 13.0117 11.017 12.2461C11.1134 12.1562 11.2821 12.1562 11.3786 12.2461ZM7.71027 10.1445C7.71027 9.5625 7.23214 9.09766 6.64554 9.09766C6.04687 9.09766 5.56875 9.5625 5.56875 10.1445C5.56875 10.7148 6.04687 11.1797 6.64554 11.1797C7.23214 11.1797 7.71027 10.7148 7.71027 10.1445ZM11.3545 9.09766C10.7679 9.09766 10.2897 9.5625 10.2897 10.1445C10.2897 10.7148 10.7679 11.1797 11.3545 11.1797C11.9531 11.1797 12.4312 10.7148 12.4312 10.1445C12.4312 9.5625 11.9531 9.09766 11.3545 9.09766ZM18 1.875V15.625C18 16.6602 17.1362 17.5 16.0714 17.5H1.92857C0.863839 17.5 0 16.6602 0 15.625V1.875C0 0.839844 0.863839 0 1.92857 0H16.0714C17.1362 0 18 0.839844 18 1.875ZM13.9942 7.36719C13.5884 7.36719 13.2308 7.53125 12.9656 7.78516C11.9973 7.13281 10.6955 6.71484 9.24911 6.66797L10.0004 3.37891L12.3911 3.90234C12.3911 4.47266 12.8692 4.9375 13.4558 4.9375C14.0545 4.9375 14.5326 4.46094 14.5326 3.89063C14.5326 3.32031 14.0545 2.84375 13.4558 2.84375C13.0379 2.84375 12.6804 3.08594 12.4996 3.42578L9.85982 2.85547C9.72723 2.82031 9.59866 2.91406 9.5625 3.04297L8.73884 6.66797C7.30446 6.72656 6.01473 7.14453 5.04643 7.79688C4.78527 7.53125 4.41161 7.36719 4.0058 7.36719C2.49911 7.36719 2.00491 9.33594 3.38304 10.0039C3.33482 10.2148 3.31071 10.4336 3.31071 10.6562C3.31071 12.8633 5.87009 14.6523 9.01205 14.6523C12.1661 14.6523 14.7254 12.8633 14.7254 10.6562C14.7254 10.4336 14.7013 10.2031 14.6411 9.99219C15.9911 9.32031 15.4929 7.36719 13.9942 7.36719Z"/></svg>