<svg width="20" height="17" viewBox="0 0 20 17" fill="none" xmlns="http://www.w3.org/2000/svg">
<path d="M5 9.71383V1.21444C5 0.543882 4.44023 0.0342298 3.75 0.0342298H1.25C0.559766 0.0342298 0 0.578036 0 1.21444V9.68082C0 10.3514 0.559766 10.861 1.25 10.861H3.75C4.44141 10.9282 5 10.3855 5 9.71383ZM18.8086 7.47865C18.8568 7.28541 18.8818 7.08702 18.8818 6.88513C18.8818 6.02369 18.435 5.24839 17.7381 4.78732C17.7546 4.6729 17.7631 4.55674 17.7631 4.44115C17.7631 3.59413 17.3311 2.82453 16.6369 2.36042C16.5417 1.04321 15.4076 0 14.0276 0H11.9756C10.5717 0 9.18069 0.450452 8.05764 1.26787L6.625 2.31116C6.37949 2.4899 6.25016 2.76085 6.25016 3.03712C6.25016 3.52135 6.65211 3.94941 7.18883 3.94941C7.38465 3.94941 7.58219 3.89002 7.75055 3.76684L9.18258 2.72286C9.98258 2.14073 10.9748 1.8193 11.9755 1.8193H14.0275C14.4357 1.8193 14.7685 2.14175 14.7685 2.53843C14.7685 2.67125 14.7252 2.7259 14.7252 2.89728C14.7252 3.92076 15.888 3.57694 15.888 4.43952C15.888 4.79069 15.6384 4.85544 15.6384 5.28388C15.6384 5.81402 16.0622 6.11685 16.4032 6.17909C16.7529 6.2425 17.0067 6.53888 17.0067 6.88342C17.0067 7.37827 16.5618 7.39079 16.5618 7.98052C16.5618 8.4564 16.9408 8.85638 17.4352 8.88901C17.8203 8.88275 18.125 9.22809 18.125 9.56583C18.125 9.96164 17.7923 10.2842 17.384 10.2842H12.0078C11.5219 10.2842 11.0703 10.6644 11.0703 11.1608C11.0703 11.3141 11.1102 11.4674 11.1901 11.6056C11.8906 12.8901 12.1875 14.1083 12.1875 14.3891C12.1875 14.6944 11.9537 15.1781 11.3258 15.1781C10.8363 15.1781 10.7684 15.1437 10.3516 14.1129C9.38477 11.7255 7.93984 10.3218 7.18828 10.3218C6.64922 10.3218 6.25 10.7495 6.25 11.2322C6.25 11.4994 6.37043 11.7642 6.60219 11.9441C9.30078 14.04 8.25781 17 11.3242 17C13.0391 17 14.0625 15.6718 14.0625 14.3891C14.0625 13.9072 13.8544 13.0529 13.4832 12.1376H17.384C18.793 12.1388 20 11.0003 20 9.56583C20 8.71957 19.5273 7.93024 18.8086 7.47865Z" fill="black"/>
</svg>
