<svg width="18" height="20" viewBox="0 0 18 20" fill="none" xmlns="http://www.w3.org/2000/svg">
<path d="M1.88789 6.30469L5.45625 17.1641C2.96016 15.8203 1.24102 12.9766 1.24102 9.6875C1.24102 8.48047 1.47305 7.33984 1.88789 6.30469ZM13.7672 9.26953C13.7672 8.24219 13.4367 7.53125 13.152 6.97656C12.7723 6.29297 12.4172 5.71094 12.4172 5.02734C12.4172 4.26172 12.9375 3.55078 13.6723 3.55078C13.7039 3.55078 13.7355 3.55469 13.7707 3.55859C12.4383 2.20312 10.6664 1.375 8.71875 1.375C6.10664 1.375 3.80742 2.86328 2.46797 5.12109C2.64375 5.12891 2.80898 5.13281 2.94961 5.13281C3.73008 5.13281 4.94297 5.02734 4.94297 5.02734C5.34727 5 5.39297 5.66016 4.99219 5.71094C4.99219 5.71094 4.58789 5.76172 4.13789 5.78906L6.8625 14.7891L8.50078 9.33594L7.33711 5.78906C6.93281 5.76172 6.55312 5.71094 6.55312 5.71094C6.14883 5.68359 6.19805 5 6.59883 5.02734C6.59883 5.02734 7.83281 5.13281 8.56758 5.13281C9.34805 5.13281 10.5609 5.02734 10.5609 5.02734C10.9652 5 11.0109 5.66016 10.6102 5.71094C10.6102 5.71094 10.2059 5.76172 9.75586 5.78906L12.4594 14.7227L13.2047 11.9531C13.5211 10.8047 13.7672 9.98047 13.7672 9.26953ZM8.84883 10.4141L6.60586 17.6602C7.27734 17.8789 7.98398 18 8.71875 18C9.59062 18 10.4238 17.832 11.2008 17.5273C11.1797 17.4922 11.1621 17.4531 11.148 17.4141L8.84883 10.4141ZM15.2824 5.69922C15.3141 5.96484 15.3316 6.24609 15.3316 6.55469C15.3316 7.39844 15.191 8.34375 14.7621 9.53125L12.477 16.8711C14.7023 15.4297 16.1965 12.7539 16.1965 9.6875C16.1965 8.24219 15.866 6.88281 15.2824 5.69922ZM17.4375 9.6875C17.4375 15.0312 13.5246 19.375 8.71875 19.375C3.90937 19.375 0 15.0273 0 9.6875C0 4.34375 3.90937 0 8.71875 0C13.5246 0 17.4375 4.34375 17.4375 9.6875ZM17.0367 9.6875C17.0367 4.58984 13.3031 0.445312 8.71875 0.445312C4.13086 0.445312 0.400781 4.58984 0.400781 9.6875C0.400781 14.7852 4.13438 18.9297 8.71875 18.9297C13.3066 18.9297 17.0367 14.7852 17.0367 9.6875Z" fill="black"/>
</svg>
