<svg width="18" height="20" viewBox="0 0 18 20" fill="none" xmlns="http://www.w3.org/2000/svg">
<path d="M9 0C4.02942 0 0 4.33723 0 9.6875C0 15.0378 4.02942 19.375 9 19.375C13.9706 19.375 18 15.0378 18 9.6875C18 4.33723 13.9706 0 9 0ZM13.1716 6.58828C13.0362 8.12012 12.4502 11.8374 12.1519 13.5531C12.0257 14.2791 11.7773 14.5225 11.5368 14.5463C11.0143 14.5981 10.6173 14.1745 10.1111 13.8173C9.31899 13.2584 8.8715 12.9105 8.10258 12.3651C7.21401 11.7348 7.79004 11.3886 8.29644 10.8221C8.42897 10.674 10.7318 8.41941 10.7763 8.21488C10.7819 8.1893 10.7872 8.09379 10.7345 8.04363C10.6817 7.99348 10.6042 8.01047 10.5481 8.0241C10.4687 8.04353 9.20326 8.94382 6.75185 10.725C6.3927 10.9904 6.06737 11.1198 5.77586 11.113C5.45451 11.1055 4.83637 10.9175 4.37683 10.7566C3.81321 10.5595 3.36524 10.4552 3.40425 10.1203C3.42457 9.9458 3.64776 9.76741 4.07381 9.58512C6.6975 8.3547 8.44703 7.5435 9.3224 7.15152C11.8218 6.0325 12.3411 5.83812 12.6797 5.83164C12.7541 5.83031 12.9206 5.85016 13.0284 5.94434C13.1001 6.01143 13.1458 6.10505 13.1565 6.20668C13.1748 6.33287 13.1799 6.46087 13.1716 6.58828Z" fill="black"/>
</svg>
