<svg width="19" height="17" viewBox="0 0 19 17" fill="none" xmlns="http://www.w3.org/2000/svg">
<path d="M3.5625 6.03679H1.1875C0.531777 6.03679 0 6.58058 0 7.21697V15.6832C0 16.3537 0.531777 16.8634 1.1875 16.8634H3.5625C4.21822 16.8634 4.75 16.3196 4.75 15.6832V7.25113C4.75 6.6136 4.21934 6.03679 3.5625 6.03679ZM19 7.39912C19 5.99922 17.8849 4.85964 16.5148 4.85964H12.809C13.1627 3.91169 13.3594 3.09201 13.3594 2.61007C13.3594 1.32743 12.3871 0 10.7595 0C9.02982 0 8.55668 1.23104 8.17631 2.21996C7.00143 5.27479 5.9375 4.73934 5.9375 5.76698C5.9375 6.25423 6.32195 6.67735 6.82887 6.67735C7.02391 6.67735 7.22037 6.61204 7.38439 6.47774C10.2329 4.14887 9.53563 1.82151 10.7595 1.82151C11.3562 1.82151 11.5781 2.30535 11.5781 2.61045C11.5781 2.89142 11.2963 4.1113 10.63 5.32716C10.5541 5.46552 10.5162 5.61883 10.5162 5.77191C10.5162 6.30015 10.9404 6.64851 11.4068 6.64851H16.5131C16.9033 6.6819 17.2188 7.00446 17.2188 7.39912C17.2188 7.77136 16.9306 8.08333 16.563 8.10913C16.0932 8.14174 15.7333 8.54174 15.7333 9.01761C15.7333 9.60467 16.1559 9.62288 16.1559 10.1147C16.1559 11.0774 14.856 10.583 14.856 11.7142C14.856 12.14 15.0932 12.2087 15.0932 12.5586C15.0932 13.4185 13.9885 13.0807 13.9885 14.1008C13.9885 14.2721 14.0296 14.327 14.0296 14.4596C14.0296 14.8562 13.7136 15.1787 13.3257 15.1787H11.3763C10.4256 15.1787 9.483 14.8574 8.723 14.2752L7.36257 13.2312C7.20245 13.1081 7.01486 13.0487 6.82894 13.0487C6.31498 13.0487 5.9372 13.4805 5.9372 13.9609C5.9372 14.2375 6.06011 14.5081 6.2933 14.6869L7.65411 15.7312C8.7207 16.5484 10.0418 17 11.3777 17H13.3271C14.6382 17 15.7154 15.9568 15.806 14.6396C16.4654 14.1755 16.8759 13.4059 16.8759 12.5589C16.8759 12.4433 16.8677 12.3272 16.8521 12.2128C17.5141 11.7517 17.9387 10.9764 17.9387 10.115C17.9387 9.91345 17.9149 9.71502 17.8691 9.52149C18.551 9.03469 19 8.27952 19 7.39912Z" fill="black"/>
</svg>
