<svg width="18" height="20" viewBox="0 0 18 20" fill="none" xmlns="http://www.w3.org/2000/svg">
<path d="M10.2851 1.25V2C13.218 2.5793 15.4277 5.10156 15.4277 8.125V8.85938C15.4277 10.6992 16.1228 12.4688 17.3763 13.8438L17.6736 14.168C18.011 14.5391 18.0954 15.0625 17.8865 15.5117C17.6776 15.9609 17.2196 16.25 16.7134 16.25H1.28563C0.779412 16.25 0.320236 15.9609 0.112846 15.5117C-0.0945446 15.0625 -0.0115925 14.5391 0.324776 14.168L0.622724 13.8438C1.87783 12.4688 2.57128 10.6992 2.57128 8.85938V8.125C2.57128 5.10156 4.74482 2.5793 7.71385 2V1.25C7.71385 0.559766 8.28837 0 8.99949 0C9.71061 0 10.2851 0.559766 10.2851 1.25ZM8.99949 20C8.31649 20 7.66162 19.7383 7.1795 19.2695C6.69739 18.8008 6.42821 18.1289 6.42821 17.5H11.5708C11.5708 18.1289 11.3016 18.8008 10.8195 19.2695C10.3374 19.7383 9.64633 20 8.99949 20Z" fill="black"/>
</svg>
