<svg xmlns="http://www.w3.org/2000/svg" width="19" height="17" fill="none" viewBox="0 0 19 17"><path fill="#000" d="M18.7526 4.71243L14.0026 0.218514C13.6851 -0.0860471 13.1842 -0.0694152 12.884 0.250737C12.583 0.570899 12.5975 1.07601 12.916 1.37871L16.2179 4.52411H10.828C9.48351 4.43301 8.23663 4.99184 7.28993 5.93653C6.33333 6.89452 5.80556 8.17517 5.80556 9.54895V12.4462C5.80556 12.887 6.16016 13.2146 6.59722 13.2146C7.03429 13.2146 7.38889 12.9186 7.38889 12.4762V9.54895C7.38889 8.60527 7.74976 7.72478 8.4042 7.07082C9.04809 6.42883 9.85955 6.05628 10.8194 6.08954H16.216L12.9141 9.23495C12.5955 9.53744 12.5812 10.0426 12.8821 10.3629C13.0378 10.4993 13.2469 10.6134 13.4574 10.6134C13.6522 10.6134 13.8479 10.5417 14.0007 10.3951L18.7507 5.90123C18.9109 5.72031 19 5.51075 19 5.29121C19 5.07167 18.9109 4.86211 18.7526 4.71243ZM11.875 12.7423C11.4379 12.7423 11.0833 13.0998 11.0833 13.5106V15.0774C11.0833 15.2239 10.9648 15.3135 10.8194 15.3135H1.84722C1.70189 15.3135 1.58333 15.194 1.58333 15.0774V6.08954C1.58333 5.94298 1.70189 5.85337 1.84722 5.85337H3.69444C4.13151 5.85337 4.48611 5.49578 4.48611 5.08498C4.48611 4.67417 4.13151 4.31659 3.69444 4.31659H1.84722C0.828611 4.31659 0 5.15217 0 6.14941V15.1672C0 16.1651 0.828941 17 1.84722 17H10.8194C11.8381 17 12.6667 16.1644 12.6667 15.1672V13.6005C12.6667 13.1015 12.3137 12.7423 11.875 12.7423Z"/></svg>