<svg width="18" height="20" viewBox="0 0 18 20" fill="none" xmlns="http://www.w3.org/2000/svg">
<path d="M5.2312 4.70697C5.87807 3.33511 6.90181 2.33747 8.09993 1.99997V1.24998C8.09993 0.559753 8.50211 4.70428e-06 8.99992 4.70428e-06C9.49773 4.70428e-06 9.89991 0.559753 9.89991 1.24998V1.99997C11.953 2.57926 13.4999 5.1015 13.4999 8.12491V8.85927C13.4999 10.6991 13.9864 12.4686 14.8639 13.8436L15.0721 14.1678C15.3083 14.5389 15.3674 15.0623 15.2211 15.5115C15.1902 15.5272 15.2099 15.5115 15.2042 15.5623L17.7411 18.324C18.0336 18.6443 18.087 19.2342 17.8564 19.6404C17.6258 20.0467 17.2011 20.1209 16.9086 19.8006L0.25863 1.67537C-0.0347672 1.35584 -0.0862074 0.766782 0.143769 0.359208C0.373773 -0.0482877 0.797894 -0.119732 1.09152 0.199678L5.2312 4.70697ZM4.49996 8.85927V8.67568L11.4243 16.2498H3.59996C3.24559 16.2498 2.89966 15.9608 2.779 15.5115C2.63388 15.0623 2.69182 14.5389 2.92778 14.1678L3.13591 13.8436C4.0134 12.4686 4.49996 10.6991 4.49996 8.85927ZM8.99992 19.9998C8.5218 19.9998 8.06336 19.7381 7.72587 19.2693C7.38837 18.8006 7.19993 18.1287 7.19993 17.4998H10.7999C10.7999 18.1287 10.6115 18.8006 10.274 19.2693C9.93647 19.7381 9.45273 19.9998 8.99992 19.9998Z" fill="black"/>
</svg>
