<svg width="18" height="18" viewBox="0 0 18 18" fill="none" xmlns="http://www.w3.org/2000/svg">
<path d="M17.0771 6.02914L12.1605 5.28069L9.96314 0.626117C9.76936 0.209913 9.38316 -7.02931e-05 8.97008 1.76512e-08C8.61746 1.76512e-08 8.23125 0.207381 8.03647 0.625765L5.83678 5.28033L0.922557 6.02914C0.0403284 6.16273 -0.312966 7.29825 0.326457 7.94863L3.88291 11.538L3.04266 16.6847C2.92176 17.4124 3.47924 17.9995 4.10389 17.9995C4.26952 17.9995 4.44005 17.9583 4.6036 17.8677L9.00031 15.4543L13.3963 17.8695C13.5597 17.9592 13.7297 18 13.8951 18C14.52 18 15.0775 17.4161 14.958 16.6848L14.1167 11.5697L17.6732 7.98037C18.3129 7.29825 17.9603 6.16273 17.0771 6.02914ZM12.4325 11.2708L13.1848 15.8445L9.24882 13.6832C9.09249 13.5973 8.90594 13.5973 8.74944 13.6832L4.81585 15.8445L5.56811 11.2708C5.59834 11.088 5.51102 10.9017 5.41363 10.7716L2.23331 7.53414L6.62934 6.86479C6.80397 6.83772 6.9551 6.7217 7.03234 6.55647L9.00031 2.39021L10.9679 6.55612C11.0462 6.72195 11.1974 6.83687 11.3723 6.86352L15.7683 7.53288L12.588 10.7703C12.4594 10.9017 12.4023 11.088 12.4325 11.2708Z" fill="black"/>
</svg>
