<svg width="17" height="18" viewBox="0 0 17 18" fill="none" xmlns="http://www.w3.org/2000/svg">
<path d="M9.80067 5.25134C7.89281 5.32366 3.16036 5.87411 3.16036 9.97232C3.16036 14.3719 8.57839 14.5527 10.3491 11.708C10.6038 12.1179 11.736 13.2147 12.1238 13.5884L14.349 11.3384C14.349 11.3384 13.0836 10.3219 13.0836 9.21696V3.3067C13.0836 2.29018 12.1238 0 8.68416 0C5.23668 0 3.40717 2.20982 3.40717 4.19063L6.2866 4.46384C6.92516 2.475 8.40993 2.475 8.40993 2.475C10.0044 2.47098 9.80067 3.67232 9.80067 5.25134ZM9.80067 8.73884C9.80067 11.9531 6.50206 11.471 6.50206 9.42991C6.50206 7.53348 8.48045 7.15179 9.80067 7.10759V8.73884ZM15.1286 15.308C14.8269 15.7098 12.3863 18 8.2924 18C4.19852 18 1.06445 15.1272 0.104642 13.942C-0.161754 13.6326 0.143818 13.4879 0.320109 13.6085C3.1917 15.3964 7.67734 18.3415 14.9131 14.8259C15.2069 14.6772 15.4342 14.9062 15.1286 15.308ZM16.6878 15.3964C16.4331 16.0312 16.061 16.4732 15.8573 16.642C15.6418 16.8228 15.4851 16.7504 15.6026 16.4893C15.7201 16.2281 16.3587 14.621 16.1002 14.2795C15.8455 13.946 14.6506 14.1067 14.2197 14.1509C13.7966 14.1911 13.7104 14.2312 13.6712 14.1388C13.5811 13.9098 14.5214 13.5161 15.1403 13.4357C15.7554 13.3634 16.7466 13.4036 16.9424 13.6647C17.0874 13.8696 16.9424 14.7536 16.6878 15.3964Z" fill="black"/>
</svg>
