<svg xmlns="http://www.w3.org/2000/svg" width="20" height="20" fill="none" viewBox="0 0 20 20"><path fill="#000" d="M10 20C15.5234 20 20 15.5234 20 10C20 4.47656 15.5234 0 10 0C4.47656 0 0 4.47656 0 10C0 15.5234 4.47656 20 10 20ZM5.04688 10.3867C5.14453 10.1523 5.37109 10 5.625 10H8.125V6.25C8.125 5.55977 8.68477 5 9.375 5H10.625C11.3152 5 11.875 5.55977 11.875 6.25V10H14.375C14.6277 10 14.8559 10.152 14.9523 10.3857C15.0494 10.6195 14.9957 10.8881 14.8168 11.067L10.4418 15.442C10.1978 15.6861 9.80199 15.6861 9.55824 15.442L5.18324 11.067C5.00391 10.8867 4.94922 10.6211 5.04688 10.3867Z"/></svg>