<svg width="20" height="20" viewBox="0 0 20 20" fill="none" xmlns="http://www.w3.org/2000/svg">
<path d="M10 0C4.47656 0 0 4.47656 0 10C0 15.5234 4.47656 20 10 20C15.5234 20 20 15.5234 20 10C20 4.47656 15.5234 0 10 0ZM8.75 7.46484V12.4648C8.75 13.1914 8.19141 13.75 7.5 13.75C6.80859 13.75 6.25 13.1914 6.25 12.5V7.46484C6.25 6.80859 6.80859 6.25 7.46484 6.25C8.12109 6.25 8.75 6.80859 8.75 7.46484ZM13.75 7.46484V12.4648C13.75 13.1914 13.1914 13.75 12.5 13.75C11.8086 13.75 11.25 13.1914 11.25 12.5V7.46484C11.25 6.80859 11.8086 6.25 12.4648 6.25C13.1211 6.25 13.75 6.80859 13.75 7.46484Z" fill="black"/>
</svg>
