<svg width="20" height="20" viewBox="0 0 20 20" fill="none" xmlns="http://www.w3.org/2000/svg">
<path d="M10 0C4.47656 0 0 4.47656 0 10C0 15.5234 4.47656 20 10 20C15.5234 20 20 15.5234 20 10C20 4.47656 15.5234 0 10 0ZM14.5508 10.8008L8.92578 14.2383C8.77734 14.3281 8.60547 14.375 8.4375 14.375C7.90273 14.375 7.5 13.9375 7.5 13.4375V6.5625C7.5 6.06641 7.89844 5.625 8.4375 5.625C8.60719 5.625 8.77648 5.67094 8.92617 5.76234L14.5512 9.19984C14.8281 9.37109 15 9.67188 15 10C15 10.3281 14.8281 10.6289 14.5508 10.8008Z" fill="black"/>
</svg>
