<svg width="20" height="20" viewBox="0 0 20 20" fill="none" xmlns="http://www.w3.org/2000/svg">
<path d="M17.7778 1.25H2.22222C0.994792 1.25 0 2.36914 0 3.75V16.25C0 17.6309 0.994792 18.75 2.22222 18.75H17.7778C19.0052 18.75 20 17.6309 20 16.25V3.75C20 2.36914 19.0035 1.25 17.7778 1.25ZM5.85417 11.3242C6.50313 12.0555 7.56215 12.0555 8.21076 11.3242C8.53629 10.958 9.06354 10.958 9.38924 11.3242C9.71493 11.6904 9.71476 12.2836 9.38924 12.65C8.73924 13.3812 7.88646 13.7469 7.03264 13.7469C6.17882 13.7469 5.32569 13.3813 4.67604 12.65C4.04514 11.9453 3.69792 11 3.69792 10C3.69792 9 4.01389 8.05664 4.67431 7.34844C5.97431 5.88594 8.08785 5.88594 9.38611 7.34844C9.71163 7.71465 9.71163 8.30781 9.38611 8.67422C9.06059 9.04063 8.53333 9.04043 8.20764 8.67422C7.55868 7.94297 6.49965 7.94297 5.85104 8.67422C5.53819 9.02734 5.36458 9.5 5.36458 10C5.36458 10.5 5.5382 10.9727 5.85417 11.3242ZM12.5208 11.3242C13.1698 12.0555 14.2288 12.0555 14.8774 11.3242C15.203 10.958 15.7302 10.958 16.0559 11.3242C16.3816 11.6904 16.3814 12.2836 16.0559 12.65C15.4059 13.3812 14.5531 13.7469 13.6993 13.7469C12.8455 13.7469 11.9924 13.3813 11.3427 12.65C10.7118 11.9453 10.3646 11 10.3646 10C10.3646 9 10.6806 8.05664 11.341 7.34844C12.641 5.88594 14.7545 5.88594 16.0528 7.34844C16.3783 7.71465 16.3783 8.30781 16.0528 8.67422C15.7273 9.04063 15.2 9.04043 14.8743 8.67422C14.2253 7.94297 13.1663 7.94297 12.5177 8.67422C12.2049 9.02734 12.0313 9.5 12.0313 10C12.0313 10.5 12.2049 10.9727 12.5208 11.3242Z" fill="black"/>
</svg>
