<svg xmlns="http://www.w3.org/2000/svg" width="24" height="19" fill="none" viewBox="0 0 24 19"><path fill="#000" d="M20.16 8.40898C20.3137 8.01191 20.4 7.57773 20.4 7.125C20.4 5.1582 18.7875 3.5625 16.8 3.5625C16.0616 3.5625 15.3716 3.78516 14.8009 4.16367C13.7625 2.38242 11.8238 1.1875 9.6 1.1875C6.285 1.1875 3.6 3.84453 3.6 7.125C3.6 7.22531 3.6041 7.32706 3.60762 7.42681C1.5075 8.15664 0 10.1383 0 12.4688C0 15.4189 2.41875 17.8125 5.4 17.8125H19.2C21.8509 17.8125 24 15.6861 24 13.0625C24 10.7654 22.35 8.84688 20.16 8.40898ZM15.9038 11.8787L12.6038 15.1443C12.54 15.2705 12.3188 15.4375 12 15.4375C11.6813 15.4375 11.46 15.2717 11.3636 15.1766L8.06363 11.911C7.71206 11.5631 7.71206 10.9996 8.06363 10.6515C8.41519 10.3034 8.98463 10.3036 9.33638 10.6515L11.1 12.3982V6.82812C11.1 6.33828 11.505 5.9375 12 5.9375C12.495 5.9375 12.9 6.33643 12.9 6.82812V12.3982L14.6636 10.653C15.0152 10.3051 15.5846 10.3051 15.9364 10.653C16.2881 11.0009 16.2863 11.5633 15.9038 11.8787Z"/></svg>