<svg xmlns="http://www.w3.org/2000/svg" width="24" height="19" fill="none" viewBox="0 0 24 19"><path fill="#000" d="M20.16 8.40898C20.3137 8.01191 20.4 7.57773 20.4 7.125C20.4 5.1582 18.7875 3.5625 16.8 3.5625C16.0616 3.5625 15.3716 3.78516 14.8009 4.16367C13.7625 2.38242 11.8238 1.1875 9.6 1.1875C6.285 1.1875 3.6 3.84453 3.6 7.125C3.6 7.22531 3.6041 7.32706 3.60762 7.42681C1.5075 8.15664 0 10.1383 0 12.4688C0 15.4189 2.41875 17.8125 5.4 17.8125H19.2C21.8509 17.8125 24 15.6861 24 13.0625C24 10.7654 22.35 8.84688 20.16 8.40898ZM8.0625 9.46289L11.3625 6.19727C11.46 6.10449 11.6813 5.9375 12 5.9375C12.3188 5.9375 12.54 6.10327 12.6364 6.19842L15.9364 9.46404C16.2879 9.81194 16.2879 10.3754 15.9364 10.7235C15.5848 11.0716 15.0154 11.0714 14.6636 10.7235L12.9 8.97676V14.5469C12.9 15.0386 12.4969 15.4375 12 15.4375C11.5031 15.4375 11.1 15.0386 11.1 14.5469V8.97676L9.30375 10.6912C8.95219 11.0391 8.38275 11.0391 8.031 10.6912C7.67925 10.3433 7.71375 9.81172 8.0625 9.46289Z"/></svg>