<svg width="20" height="20" viewBox="0 0 20 20" fill="none" xmlns="http://www.w3.org/2000/svg">
<path d="M10 0C4.47656 0 0 4.47656 0 10C0 15.5234 4.47656 20 10 20C15.5234 20 20 15.5234 20 10C20 4.47656 15.5234 0 10 0ZM3.15313 10H3.11055C2.75594 10 2.46992 9.68707 2.50273 9.32266C2.82656 5.70312 5.72266 2.81484 9.34766 2.50234C9.69922 2.47187 10 2.76367 10 3.12852C10 3.45469 9.75723 3.72539 9.44258 3.75313C6.43359 4.01953 4.02734 6.41797 3.75586 9.42969C3.72656 9.75 3.46758 10 3.15313 10ZM10 13.7148C7.92891 13.7148 6.25 12.0352 6.25 10C6.25 7.96484 7.92891 6.25 10 6.25C12.0711 6.25 13.75 7.92969 13.75 10C13.75 12.0703 12.0703 13.7148 10 13.7148ZM10 8.75C9.30859 8.75 8.75 9.30469 8.75 10C8.75 10.6953 9.30859 11.25 10 11.25C10.6914 11.25 11.25 10.6934 11.25 10C11.25 9.30664 10.6914 8.75 10 8.75Z" fill="black"/>
</svg>
