<svg width="12" height="20" viewBox="0 0 12 20" fill="none" xmlns="http://www.w3.org/2000/svg">
<path d="M10.2 2.46484H9C8.00588 2.46484 7.2 3.30429 7.2 4.30468V15.5547C7.2 16.5902 8.00588 17.4297 9 17.4297L10.2 17.5C11.1941 17.5 12 16.6605 12 15.625V4.37499C12 3.33945 11.1938 2.46484 10.2 2.46484ZM3 2.46484H1.8C0.805875 2.46484 0 3.30429 0 4.33984V15.5898C0 16.6601 0.805875 17.5 1.8 17.5H3C3.99413 17.5 4.8 16.6605 4.8 15.625V4.37499C4.8 3.33945 3.99375 2.46484 3 2.46484Z" fill="black"/>
</svg>
