<svg width="18" height="20" viewBox="0 0 18 20" fill="none" xmlns="http://www.w3.org/2000/svg">
<g clip-path="url(#clip0_140_2)">
<path d="M11.6044 10.0156C11.3152 9.69006 10.8897 9.74736 10.6552 10.1485C10.4187 10.5485 10.4609 11.1387 10.7501 11.4665C11.0672 11.8281 11.25 12.3515 11.25 12.8711C11.25 13.4246 11.0672 13.9488 10.7491 14.3097C10.46 14.6377 10.4178 15.2277 10.6542 15.6277C10.7869 15.8545 10.981 15.9715 11.1762 15.9715C11.3265 15.9715 11.4785 15.902 11.6034 15.7606C12.2372 15.0742 12.6 14.0234 12.6 12.8711C12.6 11.7187 12.2372 10.7344 11.6044 10.0156ZM13.3059 7.13279C13.0185 6.80724 12.5933 6.86334 12.3559 7.26326C12.1195 7.66326 12.1616 8.25349 12.4499 8.58123C13.4044 9.62888 13.95 11.2383 13.95 12.8711C13.95 14.5039 13.4032 16.0781 12.4507 17.1953C12.1624 17.5233 12.1202 18.1133 12.3566 18.5133C12.4902 18.7388 12.6834 18.8559 12.8786 18.8559C13.0298 18.8559 13.181 18.7864 13.3067 18.6437C14.5744 17.2383 15.3 15.1328 15.3 12.8711C15.3 10.6094 14.5744 8.57029 13.3059 7.13279ZM15.03 4.21092C14.7426 3.88537 14.3173 3.94267 14.0799 4.34138C13.8435 4.74138 13.8857 5.33162 14.174 5.65935C15.7472 7.4492 16.65 10.0898 16.65 12.8711C16.65 15.6523 15.7475 18.3281 14.1733 20.1172C13.885 20.4451 13.8428 21.0351 14.0793 21.4351C14.2116 21.6953 14.4056 21.8125 14.6025 21.8125C14.7537 21.8125 14.9048 21.743 15.0306 21.6003C16.9172 19.4531 18 16.2851 18 12.8711C18 9.45701 16.9172 6.35701 15.03 4.21092ZM8.47125 4.27263C8.14781 4.07025 7.76784 4.15248 7.50291 4.47927L3.70688 9.16013H1.35C0.604406 9.16013 0 9.9992 0 11.0336V14.7804C0 15.8148 0.604406 16.6539 1.35 16.6539H3.708L7.50206 21.3336C7.66969 21.539 7.88344 21.6484 8.1 21.6484C8.22482 21.6484 8.35197 21.612 8.47013 21.5377C8.79469 21.3359 9 20.8906 9 20.4023V5.41092C9 4.9199 8.79469 4.47381 8.47125 4.27263Z" fill="black"/>
</g>
<defs>
<clipPath id="clip0_140_2">
<rect width="18" height="20" fill="white"/>
</clipPath>
</defs>
</svg>
