<svg width="18" height="18" viewBox="0 0 18 18" fill="none" xmlns="http://www.w3.org/2000/svg">
<path d="M16.5777 5.8549C16.1646 5.52896 15.5567 5.58635 15.2217 5.98795C14.8839 6.38834 14.9442 6.97896 15.3573 7.30748C15.8103 7.67131 16.0714 8.19475 16.0714 8.74943C16.0714 9.30373 15.8103 9.82834 15.3558 10.1897C14.9428 10.518 14.8825 11.1088 15.2202 11.5092C15.4098 11.7362 15.6871 11.8534 15.966 11.8534C16.1807 11.8534 16.3979 11.7838 16.5763 11.6422C17.4817 10.9213 18 9.87053 18 8.74943C18 7.62834 17.4817 6.57756 16.5777 5.8549ZM12.1018 0.110365C11.6397 -0.0922524 11.0969 -0.0113539 10.7184 0.315795L5.29554 4.99943H1.92857C0.863437 4.99943 0 5.83888 0 6.83928V10.5541C0 11.5897 0.863437 12.394 1.92857 12.394H5.29714L10.7172 17.0776C10.9567 17.3901 11.2621 17.4994 11.5714 17.4994C11.7497 17.4994 11.9314 17.4631 12.1002 17.3886C12.5638 17.1869 12.8571 16.7416 12.8571 16.2494V1.24943C12.8571 0.757631 12.5638 0.276771 12.1018 0.110365Z" fill="black"/>
</svg>
