<svg xmlns="http://www.w3.org/2000/svg" width="18" height="18" fill="none" viewBox="0 0 18 18"><path fill="#000" d="M15.4286 0H2.57143C1.15112 0 0 1.11914 0 2.5V15C0 16.3805 1.15112 17.5 2.57143 17.5H15.4286C16.8489 17.5 18 16.3805 18 15V2.5C18 1.11914 16.8469 0 15.4286 0ZM14.0263 10.6875C13.9098 11.0273 13.5603 11.25 13.1786 11.25H4.82143C4.43849 11.25 4.09058 11.0291 3.9375 10.6871C3.78442 10.3438 3.85353 9.94922 4.11429 9.67578L8.29286 5.30078C8.65949 4.91992 9.33991 4.91992 9.70674 5.30078L13.8853 9.67578C14.1469 9.94922 14.2152 10.3438 14.0263 10.6875Z"/></svg>