<svg xmlns="http://www.w3.org/2000/svg" width="18" height="13" fill="none" viewBox="0 0 18 13"><path fill="#000" d="M0 11.8877V1.08533C0 0.487096 0.503789 0.032414 1.09336 0.032414C1.74621 0.00194387 2.25 0.487096 2.25 1.08533V5.54751L8.2793 0.24909C9.00352 -0.328149 10.125 0.158696 10.125 1.08533V5.55089L16.1543 0.252476C16.8785 -0.328149 18 0.158696 18 1.08533V11.9158C18 12.8424 16.8792 13.3289 16.1543 12.7493L10.125 7.48981V11.9147C10.125 12.8414 9.00422 13.3279 8.2793 12.7483L2.25 7.48981V11.9147C2.25 12.513 1.74621 12.9677 1.15664 12.9677C0.503789 12.971 0 12.514 0 11.8877Z"/></svg>