<svg width="18" height="18" viewBox="0 0 18 18" fill="none" xmlns="http://www.w3.org/2000/svg">
<path d="M9.4125 0.110453C9.05313 -0.0922028 8.63063 -0.0114997 8.33625 0.315649L4.11875 4.99912H1.5C0.671562 4.99912 0 5.83858 0 6.83897V10.5538C0 11.5894 0.671562 12.3937 1.5 12.3937H4.12L8.33562 17.0772C8.52262 17.2847 8.76 17.3934 9 17.3934C9.13869 17.3934 9.28038 17.3568 9.41156 17.2823C9.77094 17.0809 9.99969 16.6354 9.99969 16.1433V1.24912C9.97187 0.757328 9.77188 0.311625 9.4125 0.110453ZM16.0594 8.71397L17.5291 6.87686C17.822 6.51065 17.822 5.91748 17.5291 5.55108C17.2361 5.18467 16.7616 5.18487 16.4684 5.55108L15 7.4249L13.5031 5.58506C13.2102 5.21885 12.7356 5.21885 12.4425 5.58506C12.1494 5.95127 12.1495 6.54444 12.4425 6.91084L13.9122 8.74795L12.4425 10.5851C12.1495 10.9513 12.1495 11.5444 12.4425 11.9108C12.7354 12.277 13.21 12.2773 13.5031 11.9108L15 10.0733L16.4697 11.9104C16.7626 12.2766 17.2372 12.2769 17.5303 11.9104C17.8233 11.5442 17.8233 10.9511 17.5303 10.5847L16.0594 8.71397Z" fill="black"/>
</svg>
