<svg width="11" height="13" viewBox="0 0 11 13" fill="none" xmlns="http://www.w3.org/2000/svg">
<path d="M1.06923 0.00175323C0.461728 0.00175323 0 0.486944 0 1.08522V11.9165C0 12.5148 0.492671 13 1.10017 13C1.70767 12.9719 2.20034 12.5148 2.20034 11.8884V1.08522C2.20034 0.486944 1.70767 0.00175323 1.06923 0.00175323ZM9.19675 0.251629L2.59572 5.6385C2.33168 5.88533 2.20034 6.19344 2.20034 6.50155C2.20034 6.80946 2.33168 7.1171 2.59366 7.33515L9.19469 12.722C9.90395 13.3017 11 12.8151 11 11.8884V1.05712C10.9708 0.158518 9.90498 -0.328366 9.19675 0.251629Z" fill="black"/>
</svg>
