<svg width="18" height="12" viewBox="0 0 18 12" fill="none" xmlns="http://www.w3.org/2000/svg">
<path d="M13.9249 0.000633038C12.4307 0.000633038 11.0562 1.14321 10.3531 2.97446C9.64994 4.80571 9.72728 7.02915 10.557 8.7518H7.41682C8.44703 6.60805 8.29572 3.75962 7.05119 1.84555C5.803 -0.0634296 3.77744 -0.551711 2.14057 0.663914C0.50369 1.87954 -0.331059 4.48735 0.122597 6.99204C0.572597 9.49204 2.19344 11.2147 4.04885 11.2147H13.9488C16.1862 11.2506 18.0003 8.7311 18.0003 5.62563C18.0003 2.52016 16.1862 0.000633038 13.9249 0.000633038ZM1.79997 5.62563C1.79997 3.9022 2.8091 2.50063 4.04997 2.50063C5.29085 2.50063 6.29997 3.9022 6.29997 5.62563C6.29997 7.34907 5.29085 8.71548 4.04997 8.71548C2.8091 8.71548 1.79997 7.34829 1.79997 5.62563ZM13.9249 8.75063C12.6838 8.75063 11.6749 7.34907 11.6749 5.66079C11.6749 3.97251 12.6841 2.53579 13.9249 2.53579C15.1658 2.53579 16.1749 3.93735 16.1749 5.66079C16.1749 7.38423 15.1906 8.75063 13.9249 8.75063Z" fill="black"/>
</svg>
