<svg xmlns="http://www.w3.org/2000/svg" width="14" height="18" fill="none" viewBox="0 0 14 18"><path fill="#000" d="M13.3182 3.28289L10.5973 0.658832C10.1573 0.237027 9.56302 3.51562e-06 8.94687 3.51562e-06L2.33333 0C1.04453 0 0 1.00723 0 2.25L0.000236979 15.75C0.000236979 16.9924 1.04477 18 2.33357 18H11.6667C12.95 18 14 16.9875 14 15.75V4.87266C14 4.27852 13.7557 3.70547 13.3182 3.28289ZM12.25 15.75C12.25 16.0606 11.9888 16.3125 11.6667 16.3125H2.33406C2.01184 16.3125 1.75073 16.0606 1.75073 15.75L1.75 2.25457C1.75 1.94393 2.01119 1.69207 2.33333 1.69207H8.16667V4.5C8.16667 5.12121 8.68911 5.625 9.33333 5.625H12.2172V15.75H12.25ZM6.2526 9.12305L4.95833 10.4063H3.35417C3.11281 10.4063 2.91667 10.5961 2.91667 10.8281V12.7969C2.91667 13.0324 3.11281 13.2188 3.35417 13.2188H4.95833L6.2526 14.502C6.52969 14.7656 7 14.5828 7 14.2031V9.42188C7 9.04571 6.52969 8.85586 6.2526 9.12305ZM8.57135 9.16524C8.34349 9.38496 8.34349 9.7411 8.57135 9.96047C8.57865 9.9668 9.33333 10.7262 9.33333 11.8125C9.33333 12.9002 8.57609 13.6593 8.57099 13.6649C8.34312 13.8846 8.34312 14.2407 8.57099 14.4601C8.68437 14.5688 8.83385 14.625 8.98333 14.625C9.13281 14.625 9.28185 14.5701 9.39568 14.4602C9.40989 14.4176 10.5 13.377 10.5 11.8125C10.5 10.248 9.44089 9.20883 9.39604 9.16489C9.16927 8.94375 8.7974 8.94375 8.57135 9.16524Z"/></svg>