<svg width="20" height="15" viewBox="0 0 20 15" fill="none" xmlns="http://www.w3.org/2000/svg">
<path d="M20 1.25112V13.7485C20 14.4388 19.4402 14.9635 18.7852 14.9635C18.0586 14.9662 17.5 14.4388 17.5 13.7161V8.59838L10.8008 14.7123C9.99609 15.3803 8.75 14.8178 8.75 13.7161V8.59838L2.05078 14.7123C1.24531 15.3803 0 14.8178 0 13.7161V1.25112C0 0.181866 1.24531 -0.379521 2.05078 0.289299L8.75 6.35986V1.25112C8.75 0.181866 9.99531 -0.379521 10.8008 0.289299L17.5 6.35986V1.25112C17.5 0.560812 18.0598 0.0361475 18.7148 0.0361475C19.4414 0.000987497 20 0.560812 20 1.25112Z" fill="black"/>
</svg>
