<svg xmlns="http://www.w3.org/2000/svg" width="698.667" height="698.667" preserveAspectRatio="xMidYMid meet" version="1.0" viewBox="0 0 524 524"><metadata>Created by potrace 1.14, written by Peter Selinger 2001-2017</metadata><g fill="#000" stroke="none"><path d="M2429 5236 c-2 -2 -33 -6 -69 -10 -98 -8 -146 -16 -250 -37 -52 -11 -108 -22 -125 -25 -65 -11 -357 -115 -458 -162 -293 -138 -528 -302 -753 -526 -434 -432 -694 -976 -761 -1594 -10 -88 -10 -449 0 -532 30 -254 104 -550 184 -730 89 -200 165 -341 261 -480 47 -68 93 -131 102 -140 3 -3 38 -45 79 -93 198 -236 503 -475 796 -624 178 -91 460 -192 606 -218 18 -3 36 -8 40 -10 4 -3 22 -7 40 -9 19 -3 65 -10 103 -16 160 -26 473 -34 656 -17 482 43 979 245 1370 556 52 42 149 130 216 196 169 168 259 284 421 540 35 55 156 312 187 396 111 301 158 560 161 884 2 213 -1 266 -29 460 -3 16 -31 156 -41 200 -51 231 -207 589 -350 805 -208 313 -490 592 -787 779 -287 180 -650 324 -922 365 -21 4 -41 8 -45 10 -3 2 -35 7 -71 11 -36 3 -78 9 -95 11 -35 6 -461 14 -466 10z" transform="translate(0.000000,524.000000) scale(0.100000,-0.100000)"/></g></svg>