<svg xmlns="http://www.w3.org/2000/svg" width="22" height="17" fill="none" viewBox="0 0 22 17"><g clip-path="url(#clip0_117_108)"><path fill="#000" d="M2.2011 7.93885C2.2011 9.58539 2.93604 11.0633 4.15945 12.2785C3.72976 13.9516 2.29254 15.4428 2.27536 15.4594C2.20018 15.5356 2.17976 15.6487 2.22379 15.7483C2.26889 15.8479 2.36559 15.9076 2.47514 15.9076C4.75455 15.9076 6.46264 14.8517 7.30827 14.2006C8.43302 14.6094 9.68083 14.8451 11.0001 14.8451C12.2854 14.8451 13.502 14.6239 14.6026 14.2355L2.85079 5.36892C2.43417 6.17244 2.2011 7.049 2.2011 7.93885ZM21.6838 15.5756L17.6241 12.5013C18.9441 11.289 19.8001 9.70857 19.8001 7.96873C19.8001 4.15369 15.8607 1.09236 11.031 1.09236C8.70245 1.09236 6.5932 1.80789 5.01882 2.96734L1.33417 0.169877C0.969793 -0.104746 0.452449 -0.0364137 0.175902 0.305114C-0.105526 0.651754 -0.0428607 1.15279 0.315911 1.42406L20.635 16.8004C20.9959 17.0728 21.5139 17.0107 21.7934 16.6652C22.1066 16.3492 22.0413 15.8478 21.6838 15.5756Z"/></g><defs><clipPath id="clip0_117_108"><rect width="22" height="17" fill="#fff"/></clipPath></defs></svg>