<svg width="20" height="20" viewBox="0 0 20 20" fill="none" xmlns="http://www.w3.org/2000/svg">
<path d="M10 0C7.69792 0 5.83333 2.09883 5.83333 4.6875C5.83333 6.57734 6.41875 7.10547 9.57292 12.2461C9.77976 12.5822 10.2219 12.5822 10.4288 12.2461C13.5799 7.10547 14.1667 6.57812 14.1667 4.6875C14.1667 2.09883 12.3021 0 10 0ZM10 6.875C9.07986 6.875 8.33333 6.03516 8.33333 5C8.33333 3.96484 9.07986 3.125 10 3.125C10.9194 3.125 11.6667 3.96602 11.6667 5C11.6667 6.03398 10.9201 6.875 10 6.875ZM0.349306 8.89062C0.138333 8.98438 0 9.21484 0 9.46875V19.3711C0 19.8133 0.398958 20.1148 0.763889 19.9508L5.55556 17.5V7.86719C5.29514 7.375 5.11111 6.95312 4.97917 6.54297L0.349306 8.89062ZM11.3403 12.9609C11.0382 13.4531 10.5347 13.75 10 13.75C9.46458 13.75 8.96319 13.4545 8.65764 12.9578C8.09722 12.043 6.83681 10.0234 6.66667 9.75V17.4648L13.3333 20V9.75C13.1632 10.0234 11.9028 12.043 11.3403 12.9609ZM19.2396 6.29688L14.4444 8.75V20L19.6493 17.3598C19.8611 17.2305 20 17.0352 20 16.7812V6.875C20 6.43359 19.6042 6.09766 19.2396 6.29688Z" fill="black"/>
</svg>
