<svg width="20" height="20" viewBox="0 0 20 20" fill="none" xmlns="http://www.w3.org/2000/svg">
<g clip-path="url(#clip0_117_29)">
<path d="M17.4649 0H2.46487C1.08792 0 -0.0351257 1.12305 -0.0351257 2.46484V13.6797C-0.0351257 15.0566 1.08792 16.1445 2.46487 16.1445H6.21487V19.425C6.21487 19.8092 6.64534 20.0324 6.96175 19.8039L11.8407 16.1445H17.4657C18.8426 16.1445 19.9657 15.0215 19.9657 13.6797V2.46484C19.9649 1.12305 18.875 0 17.4649 0ZM18.125 13.75C18.125 14.0918 17.8418 14.375 17.5 14.375H11.25L8.12503 16.7188V14.375H2.50003C2.15823 14.375 1.87503 14.0918 1.87503 13.75V2.5C1.87503 2.1582 2.15823 1.875 2.50003 1.875H17.5C17.8418 1.875 18.125 2.1582 18.125 2.5V13.75Z" fill="black"/>
</g>
<defs>
<clipPath id="clip0_117_29">
<rect width="20" height="20" fill="white"/>
</clipPath>
</defs>
</svg>
