<svg width="21" height="17" viewBox="0 0 21 17" fill="none" xmlns="http://www.w3.org/2000/svg">
<path d="M13.65 5.84375C13.65 2.61641 10.5952 0 6.82504 0C3.0549 0 6.08328e-05 2.61641 6.08328e-05 5.84375C6.08328e-05 7.1576 0.512591 8.36586 1.36735 9.34336C0.829558 10.4311 0.0801231 11.2466 0.0683106 11.2585C-0.000595415 11.3317 -0.0192985 11.4403 0.021028 11.5359C0.0624044 11.6311 0.151064 11.6875 0.251404 11.6875C1.50976 11.6875 2.57321 11.3183 3.39286 10.8893C4.40349 11.392 5.57161 11.6875 6.82504 11.6875C10.5952 11.6875 13.65 9.07109 13.65 5.84375ZM19.6744 14.7322C20.5012 13.7428 21 12.5043 21 11.1562C21 7.92891 18.1781 5.3125 14.7 5.3125C14.6897 5.3125 14.6797 5.31386 14.6694 5.31393C14.6836 5.48848 14.7 5.66445 14.7 5.84375C14.7 9.11824 12.0855 11.8602 8.59363 12.5674C9.27613 15.1107 11.7174 17 14.7 17C15.8055 17 16.8433 16.7341 17.7466 16.2702C18.5456 16.668 19.5595 17 20.7473 17C20.8477 17 20.9363 16.9427 20.9777 16.8471C21.018 16.7515 20.9993 16.643 20.9304 16.5697C20.9213 16.5584 20.2092 15.7814 19.6744 14.7322Z" fill="black"/>
</svg>
