<svg xmlns="http://www.w3.org/2000/svg" width="16" height="22" fill="none" viewBox="0 0 16 22"><path fill="#000" d="M6.22222 13.6175V19.7753C6.22222 19.9887 6.28644 20.1992 6.40994 20.3902L7.20494 21.62C7.5325 22.1267 8.46717 22.1267 8.79494 21.62L9.58994 20.3902C9.71111 20.2007 9.77778 19.9901 9.77778 19.7753V13.6175C9.2 13.7035 8.60556 13.7507 8 13.7507C7.39444 13.7507 6.8 13.7035 6.22222 13.6175ZM8 0C3.58167 0 0 2.77034 0 6.18783C0 9.60532 3.58167 12.3757 8 12.3757C12.4183 12.3757 16 9.60533 16 6.18784C16 2.77035 12.4167 0 8 0ZM8 3.39902C6.04 3.39902 4.44444 4.63315 4.44444 6.14916C4.44444 6.5292 4.04689 6.8367 3.55556 6.8367C3.06422 6.8367 2.66667 6.56598 2.66667 6.14916C2.66667 3.87428 5.05889 2.02394 8 2.02394C8.49133 2.02394 8.88889 2.33145 8.88889 2.67281C8.88889 3.01417 8.48889 3.39902 8 3.39902Z"/></svg>