<svg xmlns="http://www.w3.org/2000/svg" width="24" height="18" fill="none" viewBox="0 0 24 18"><path fill="#000" d="M21 0H3C1.34297 0 0 1.34297 0 3V15C0 16.657 1.34297 18 3 18H21C22.657 18 24 16.657 24 15V3C24 1.34297 22.6547 0 21 0ZM3 2.25H21C21.4135 2.25 21.75 2.58647 21.75 3V4.03875L13.9313 10.5122C12.8442 11.4159 11.1497 11.4155 10.0655 10.5129L2.25 4.04062V3C2.25 2.5875 2.58656 2.25 3 2.25ZM21 15.75H3C2.58647 15.75 2.25 15.4135 2.25 15V6.97031L8.62969 12.2859C9.57656 13.0688 10.7719 13.5 12 13.5C13.2281 13.5 14.4258 13.0693 15.3736 12.2822L21.75 6.97031V15C21.75 15.4125 21.4125 15.75 21 15.75Z"/></svg>