<svg width="20" height="18" viewBox="0 0 20 18" fill="none" xmlns="http://www.w3.org/2000/svg">
<path d="M9.98345 0C4.45024 0 0.000978451 3.74168 0.000978451 8.3577C0.000978451 10.3515 0.836438 12.1741 2.2303 13.6094C1.74116 15.6333 0.106634 17.4375 0.0870679 17.4576C-0.000978135 17.548 -0.0254354 17.688 0.0283706 17.8085C0.0772459 17.929 0.185719 18 0.312896 18C2.90536 18 4.81694 16.7238 5.8148 15.9351C7.09166 16.4273 8.51566 16.7142 10.0175 16.7142C15.5507 16.7142 20 12.9721 20 8.39266C20 3.8132 15.5167 0 9.98345 0ZM4.93938 9.6435C4.2448 9.6435 3.68717 9.07092 3.68717 8.39386C3.68717 7.71681 4.2448 7.10806 4.93938 7.10806C5.63397 7.10806 6.1916 7.68065 6.1916 8.39386C6.1916 9.10708 5.66723 9.6435 4.93938 9.6435ZM9.98345 9.6435C9.28886 9.6435 8.76645 9.07092 8.76645 8.39386C8.76645 7.71681 9.32408 7.10806 9.98345 7.10806C10.6428 7.10806 11.2004 7.68065 11.2004 8.39386C11.2004 9.10708 10.68 9.6435 9.98345 9.6435ZM14.9571 9.6435C14.2625 9.6435 13.7049 9.07092 13.7049 8.39386C13.7049 7.71681 14.2625 7.10806 14.9571 7.10806C15.6517 7.10806 16.2093 7.68065 16.2093 8.39386C16.2093 9.10708 15.6849 9.6435 14.9571 9.6435Z" fill="black"/>
</svg>
