<svg xmlns="http://www.w3.org/2000/svg" width="21" height="17" fill="none" viewBox="0 0 21 17"><path fill="#000" d="M2.10173 7.9526C2.10173 9.60203 2.80343 11.0825 3.97152 12.2999C3.56126 13.9759 2.18903 15.4697 2.17262 15.4863C2.10084 15.5627 2.08135 15.676 2.12339 15.7758C2.16645 15.8756 2.25877 15.9353 2.36337 15.9353C4.53971 15.9353 6.17057 14.8776 6.97795 14.2254C8.05185 14.6348 9.24323 14.871 10.5029 14.871C11.7301 14.871 12.8916 14.6494 13.9425 14.2603L2.72204 5.37817C2.32425 6.1831 2.10173 7.0612 2.10173 7.9526ZM20.7035 15.6027L16.8274 12.523C18.0877 11.3087 18.9049 9.72543 18.9049 7.98254C18.9049 4.1608 15.1437 1.0941 10.5324 1.0941C8.30909 1.0941 6.29522 1.81089 4.79204 2.97237L1.27399 0.170003C0.926093 -0.105102 0.432143 -0.0366505 0.168101 0.305476C-0.100602 0.652725 -0.0407697 1.15464 0.301779 1.42638L19.7021 16.8297C20.0467 17.1026 20.5413 17.0404 20.8081 16.6943C21.1072 16.3777 21.0448 15.8755 20.7035 15.6027Z"/></svg>