<svg width="17" height="20" viewBox="0 0 17 20" fill="none" xmlns="http://www.w3.org/2000/svg">
<path d="M15.7857 6.25H13.0536V4.6875C13.0536 2.10273 11.0121 0 8.5 0C5.98795 0 3.94643 2.10273 3.94643 4.6875V6.25H1.21429C0.543772 6.25 0 6.80859 0 7.5V16.875C0 18.6016 1.35924 20 3.03571 20H13.9643C15.6408 20 17 18.6008 17 16.875V7.5C17 6.80859 16.4574 6.25 15.7857 6.25ZM5.76786 4.6875C5.76786 3.13672 6.99353 1.875 8.5 1.875C10.0065 1.875 11.2321 3.13672 11.2321 4.6875V6.25H5.76786V4.6875ZM4.85714 9.6875C4.35625 9.6875 3.94643 9.26953 3.94643 8.75C3.94643 8.23047 4.35625 7.8125 4.85714 7.8125C5.35804 7.8125 5.76786 8.23438 5.76786 8.75C5.76786 9.26562 5.36183 9.6875 4.85714 9.6875ZM12.1429 9.6875C11.6401 9.6875 11.2321 9.26758 11.2321 8.75C11.2321 8.23242 11.642 7.8125 12.1429 7.8125C12.6438 7.8125 13.0536 8.23438 13.0536 8.75C13.0536 9.26562 12.6475 9.6875 12.1429 9.6875Z" fill="black"/>
</svg>
