<svg width="18" height="20" viewBox="0 0 18 20" fill="none" xmlns="http://www.w3.org/2000/svg">
<path d="M14.5408 9.47805C15.8406 8.92414 16.6679 7.93937 16.4758 6.30227C16.2246 4.06199 14.0168 3.31113 11.0922 3.10191V0H8.81746V3.01574C8.2266 3.01574 7.62098 3.02805 7.0154 3.04035V0H4.74065V3.10191C3.9043 3.12297 2.93024 3.1127 0.17643 3.10191V5.12059C1.9724 5.0941 2.91473 4.99793 3.13063 5.95758V14.4509C2.99352 15.2123 2.26232 15.1027 0.634305 15.0787L0.176477 17.3312C4.32402 17.3312 4.7407 17.3436 4.7407 17.3436V20H7.01544V17.3805C7.63579 17.3928 8.24141 17.3928 8.81751 17.3928V20H11.0923V17.3436C14.9031 17.1712 17.4507 16.3711 17.7905 13.38C18.0563 10.9798 16.6973 9.90883 14.5408 9.47805ZM7.05974 5.25598C8.34482 5.25598 12.3625 4.92367 12.3625 7.1516C12.3625 9.28109 8.34487 9.03488 7.05974 9.03488V5.25598ZM7.05974 15.091V10.9305C8.59593 10.9305 13.3001 10.5736 13.3001 13.0108C13.3 15.3618 8.59593 15.091 7.05974 15.091Z" fill="black"/>
</svg>
