<svg width="18" height="20" viewBox="0 0 18 20" fill="none" xmlns="http://www.w3.org/2000/svg">
<path d="M9.44375 8.53125C9.44375 9.20312 9.11563 9.58984 8.5375 9.58984H7.77812V7.47266H8.54062C9.11562 7.47266 9.44375 7.85547 9.44375 8.53125ZM10.9281 10.9766C10.9281 11.3008 11.1531 11.5117 11.5063 11.5117C11.9563 11.5117 12.2937 11.1562 12.2937 10.6562V10.3555L11.5594 10.4141C11.1438 10.4492 10.9281 10.6406 10.9281 10.9766ZM18 3.08594V16.8359C18 17.8711 17.3281 18.7109 16.5 18.7109H1.5C0.671875 18.7109 0 17.8711 0 16.8359V3.08594C0 2.05078 0.671875 1.21094 1.5 1.21094H16.5C17.3281 1.21094 18 2.05078 18 3.08594ZM3.99375 7.70312C4.25625 7.73047 4.51875 7.53906 4.68437 7.29688C4.84687 7.04688 4.95312 6.71094 4.925 6.37109C4.69375 6.38281 4.40625 6.5625 4.24062 6.8125C4.09062 7.02734 3.9625 7.375 3.99375 7.70312ZM5.8875 10.6133C5.88125 10.6055 5.275 10.3164 5.26875 9.44141C5.2625 8.71094 5.74688 8.35938 5.76875 8.33984C5.49375 7.83203 5.06875 7.77734 4.92188 7.76562C4.54063 7.73828 4.21563 8.03516 4.03438 8.03516C3.85 8.03516 3.575 7.77734 3.275 7.78516C2.88438 7.79297 2.51875 8.07031 2.32188 8.51172C1.9125 9.39453 2.21563 10.6992 2.6125 11.418C2.80625 11.7734 3.04062 12.1641 3.34687 12.1484C3.6375 12.1328 3.75313 11.9141 4.10313 11.9141C4.45625 11.9141 4.55625 12.1484 4.8625 12.1445C5.18125 12.1367 5.37812 11.7891 5.575 11.4336C5.79062 11.0273 5.88125 10.6367 5.8875 10.6133ZM10.1187 8.52734C10.1187 7.48828 9.54062 6.77734 8.71562 6.77734H7.11562V12.1055H7.77812V10.2852H8.69375C9.53125 10.2852 10.1187 9.56641 10.1187 8.52734ZM12.9312 9.45312C12.9312 8.68359 12.4375 8.1875 11.6812 8.1875C10.9781 8.1875 10.4594 8.69141 10.4406 9.37891H11.0375C11.0875 9.05078 11.3313 8.83594 11.6625 8.83594C12.0688 8.83594 12.2937 9.07031 12.2937 9.50781V9.80078L11.4688 9.86328C10.7 9.92188 10.2844 10.3164 10.2844 11C10.2844 11.6914 10.7125 12.1484 11.3281 12.1484C11.7437 12.1484 12.1281 11.8867 12.3031 11.4688H12.3156V12.1094H12.9281V9.45312H12.9312ZM16.125 8.23828H15.4531L14.675 11.3867H14.6625L13.8844 8.23828H13.1875L14.3094 12.1172L14.25 12.3516C14.15 12.75 13.9844 12.9062 13.6906 12.9062C13.6375 12.9062 13.5375 12.8984 13.4969 12.8945V13.5352C13.5344 13.5508 13.7 13.5547 13.75 13.5547C14.3969 13.5547 14.7 13.2461 14.9656 12.3125L16.125 8.23828Z" fill="black"/>
</svg>
