<svg width="18" height="20" viewBox="0 0 18 20" fill="none" xmlns="http://www.w3.org/2000/svg">
<path d="M3.89687 7.88281C3.9 7.42188 3.89687 6.96484 3.89687 6.50391V5.125C3.89687 5.07422 3.90937 5.04688 3.94062 5.01953C4.3 4.70703 4.69375 4.54688 5.13438 4.58594C5.525 4.62109 5.84375 4.85938 6.0125 5.43359C6.11562 5.78125 6.14062 6.14453 6.14062 6.51562C6.14062 6.85547 6.11875 7.19141 6.03438 7.51562C5.85625 8.21094 5.45 8.48047 4.91875 8.44922C4.55312 8.42969 4.23438 8.25391 3.9375 7.99219C3.90937 7.96094 3.89375 7.92969 3.89687 7.88281ZM8.7375 8.45312C8.88125 8.52344 9.02813 8.53125 9.17813 8.51172C9.54063 8.46484 9.8625 8.28906 10.1562 8.02344C10.1844 8 10.1969 7.97266 10.1969 7.92578C10.1937 7.77344 10.1969 7.61719 10.1969 7.46484C10.1969 7.30859 10.1937 7.15234 10.1969 6.99609C10.1969 6.94141 10.1844 6.91797 10.1406 6.91016C9.92188 6.875 9.70625 6.82422 9.4875 6.79688C9.26875 6.77344 9.05 6.78516 8.8375 6.87109C8.62812 6.95703 8.47188 7.11328 8.40938 7.38281C8.35938 7.59375 8.35938 7.80469 8.4125 8.01562C8.4625 8.23047 8.575 8.375 8.7375 8.45312ZM18 3.125V16.875C18 17.9102 17.3281 18.75 16.5 18.75H1.5C0.671875 18.75 0 17.9102 0 16.875V3.125C0 2.08984 0.671875 1.25 1.5 1.25H16.5C17.3281 1.25 18 2.08984 18 3.125ZM11.5156 4.05859C11.5281 4.125 11.5437 4.19141 11.5656 4.25781C12.0813 5.84375 12.5938 7.43359 13.1125 9.01953C13.1562 9.15625 13.1656 9.26953 13.1187 9.40625C13.0312 9.64844 12.9656 9.89844 12.875 10.1367C12.7937 10.3516 12.6656 10.5078 12.4781 10.5742C12.3469 10.6172 12.2125 10.625 12.075 10.6094C12.0094 10.6016 11.9438 10.582 11.8781 10.5781C11.7906 10.5703 11.7469 10.6211 11.7437 10.7344C11.7406 10.8437 11.7406 10.9531 11.7437 11.0586C11.7469 11.2383 11.7937 11.3203 11.9375 11.3516C12.0844 11.3828 12.2313 11.4141 12.3813 11.418C12.8281 11.4297 13.1844 11.207 13.4156 10.7188C13.5062 10.5273 13.5906 10.3242 13.6562 10.1172C14.275 8.16016 14.8906 6.19922 15.5063 4.23828C15.525 4.17969 15.5406 4.12109 15.5469 4.05859C15.5594 3.96484 15.525 3.91797 15.45 3.91406C15.275 3.91016 15.1031 3.91406 14.9281 3.91406C14.8313 3.91406 14.7625 3.96875 14.7281 4.08203C14.7156 4.125 14.7 4.17188 14.6875 4.21484L13.7781 7.48438C13.7125 7.72266 13.6469 7.95703 13.575 8.21094C13.5625 8.17578 13.5563 8.15625 13.55 8.13672C13.2125 6.96875 12.875 5.79688 12.5375 4.62891C12.4844 4.44531 12.4281 4.25781 12.3719 4.07422C12.3438 3.97656 12.2875 3.91797 12.2031 3.91797C12.0031 3.91406 11.8031 3.91016 11.6031 3.91406C11.5344 3.91406 11.5 3.97656 11.5156 4.05859ZM7.575 8.04688C7.62812 8.50391 7.8125 8.85938 8.1375 9.08594C8.44687 9.30078 8.78438 9.32812 9.12813 9.26562C9.525 9.19141 9.875 8.98047 10.1844 8.66016C10.1969 8.64844 10.2094 8.63672 10.2281 8.62109C10.2437 8.74609 10.2562 8.86328 10.275 8.98047C10.2906 9.08203 10.3406 9.14844 10.4156 9.15234C10.5594 9.15625 10.7 9.15625 10.8438 9.15234C10.9156 9.14844 10.9625 9.08984 10.9688 9C10.9719 8.96875 10.9719 8.9375 10.9719 8.91016V5.44141C10.9719 5.30078 10.9656 5.16016 10.95 5.01953C10.9 4.59766 10.7563 4.25 10.4531 4.02734C10.2781 3.89844 10.0844 3.83203 9.88437 3.79688C9.79062 3.78125 9.69688 3.76953 9.6 3.75391H9.2875C9.2625 3.75781 9.2375 3.76562 9.20938 3.76562C8.95312 3.78125 8.7 3.82031 8.45312 3.90234C8.29375 3.95312 8.14062 4.02734 7.98438 4.09375C7.89062 4.13281 7.84375 4.21875 7.84688 4.34766C7.85 4.45703 7.84375 4.56641 7.84688 4.67188C7.85 4.83203 7.90312 4.875 8.025 4.83203C8.22812 4.76562 8.43437 4.69531 8.64062 4.64453C8.9625 4.57031 9.2875 4.53906 9.6125 4.59766C9.78125 4.62891 9.94063 4.69141 10.0531 4.87109C10.15 5.02734 10.1844 5.21484 10.1906 5.40625C10.2 5.67578 10.1969 5.94922 10.2 6.21875C10.2 6.23438 10.1969 6.24609 10.1938 6.26562C10.1813 6.26562 10.1687 6.26562 10.1594 6.26172C9.88438 6.17969 9.60625 6.12109 9.32187 6.10156C9.025 6.08203 8.73125 6.10547 8.45 6.22656C8.1125 6.375 7.84063 6.62891 7.68125 7.03906C7.55312 7.36328 7.5375 7.70312 7.575 8.04688ZM3.08437 4.17578V11.0234C3.08437 11.0547 3.08438 11.0898 3.0875 11.1211C3.09375 11.2188 3.14062 11.2812 3.21563 11.2852C3.4 11.2891 3.58437 11.2891 3.76875 11.2852C3.84687 11.2852 3.89375 11.2188 3.89687 11.125C3.9 11.0937 3.9 11.0586 3.9 11.0273V8.65625C3.92813 8.68359 3.94375 8.70312 3.95937 8.71875C4.42812 9.20703 4.96563 9.36719 5.55625 9.22266C6.09063 9.08984 6.45937 8.67969 6.70312 8.08203C6.88438 7.62891 6.9625 7.14062 6.975 6.63672C6.99062 6.07812 6.94375 5.52734 6.7625 5.00781C6.54062 4.36719 6.17188 3.94141 5.61562 3.80078C5.53125 3.77734 5.44375 3.76953 5.35938 3.75391H5.14062C5.10313 3.76172 5.06562 3.76562 5.02812 3.77344C4.6625 3.82812 4.33125 4 4.03438 4.26953C3.97188 4.32422 3.9125 4.38672 3.85 4.44531C3.84687 4.42578 3.84063 4.41406 3.8375 4.39844C3.825 4.30859 3.81562 4.21875 3.80312 4.12891C3.78437 3.97656 3.725 3.91406 3.60313 3.91016H3.3C3.11562 3.90625 3.08437 3.94922 3.08437 4.17578ZM15.425 13.2422C15.3406 13.2148 15.2656 13.2422 15.1875 13.2812C13.8156 14 12.3906 14.4609 10.9125 14.6797C10.4594 14.7461 10.0031 14.7891 9.54688 14.8047C8.71562 14.832 7.88437 14.7734 7.05937 14.6367C6.50312 14.543 5.95 14.4141 5.40312 14.25C4.24687 13.9023 3.13125 13.4023 2.06875 12.7344C1.79375 12.5625 1.525 12.3711 1.25312 12.1875C1.13437 12.1055 1.05938 12.1289 0.996875 12.2695V12.3359C1.03437 12.3984 1.06562 12.4688 1.1125 12.5234C2.2375 13.7812 3.50625 14.7305 4.925 15.3711C5.60938 15.6797 6.3125 15.9062 7.02812 16.0547C7.46562 16.1445 7.90313 16.2031 8.34688 16.2305C8.44063 16.2344 8.53438 16.2383 8.62813 16.2461C8.65 16.2461 8.67188 16.2539 8.69375 16.2578H9.24687C9.26875 16.2539 9.29062 16.2461 9.3125 16.2461C9.77812 16.2305 10.2438 16.1758 10.7063 16.0898C11.375 15.9648 12.0312 15.7734 12.6719 15.5156C13.5969 15.1406 14.475 14.6406 15.2781 13.9492C15.3656 13.875 15.4563 13.8008 15.5281 13.707C15.6625 13.5352 15.6 13.3008 15.425 13.2422ZM17 12.1602C16.975 11.9961 16.875 11.9336 16.7625 11.8867C16.5844 11.8125 16.4 11.7773 16.2125 11.7578C15.8687 11.7227 15.525 11.7422 15.1875 11.8203C14.8125 11.9062 14.4563 12.0586 14.1406 12.332C14.1031 12.3633 14.0656 12.4023 14.0437 12.4492C14.025 12.4844 14.0219 12.5391 14.0281 12.582C14.0375 12.6328 14.0813 12.6445 14.1219 12.6406C14.1406 12.6406 14.1594 12.6406 14.1781 12.6367L14.7875 12.5547C15.0875 12.5195 15.3875 12.4961 15.6875 12.5234C15.8156 12.5352 15.9406 12.5703 16.0625 12.6094C16.1969 12.6523 16.2563 12.7812 16.2625 12.9492C16.2719 13.2109 16.225 13.4609 16.1719 13.7109C16.0625 14.2148 15.9125 14.7031 15.7563 15.1875C15.7469 15.2188 15.7344 15.2539 15.7312 15.2852C15.7188 15.3828 15.7625 15.4414 15.8375 15.4219C15.8812 15.4102 15.9312 15.3789 15.9625 15.3398C16.0781 15.1992 16.1969 15.0586 16.2938 14.9023C16.6281 14.3633 16.825 13.7461 16.9406 13.082C16.9625 12.9648 16.9781 12.8438 16.9937 12.7266C17 12.543 17 12.3516 17 12.1602Z" fill="black"/>
</svg>
