<svg width="18" height="20" viewBox="0 0 18 20" fill="none" xmlns="http://www.w3.org/2000/svg">
<g clip-path="url(#clip0_139_12)">
<path d="M10.1594 6.55469C10.1594 5.91406 9.71875 5.83594 9.30313 5.83594L8.08125 5.82422V8.53125H8.59375V7.55078H9.15625C9.73125 7.55078 9.60938 7.95312 9.61875 8.53125H10.1375V8.00391C10.1375 7.64453 10.0906 7.41406 9.79375 7.28516C10.025 7.16797 10.1625 6.86719 10.1594 6.55469ZM9.24063 6.99609H8.59375V6.39844H9.25C9.40938 6.39844 9.58438 6.4375 9.58438 6.6875C9.58438 6.94531 9.41875 6.99609 9.24063 6.99609ZM8.71875 10.4922H7.07187L6.41562 11.3828L5.775 10.4922H3.69687L3.69375 13.1992H5.7375L6.40312 12.3008L7.04062 13.1992H8.04688L8.05 12.2891C8.64063 12.2891 9.59063 12.4687 9.59063 11.3789C9.59063 10.7031 9.20625 10.4922 8.71875 10.4922ZM5.475 12.6289H4.20625V12.0898H5.34062V11.5391H4.20625V11.0508H5.50937L6.06875 11.8398L5.475 12.6289ZM7.53125 12.9492L6.74062 11.8516L7.53125 10.7812V12.9492ZM8.7125 11.7383H8.05V11.0508H8.72188C8.89688 11.0508 9.04063 11.1406 9.04063 11.3789C9.04063 11.6289 8.89688 11.7383 8.7125 11.7383ZM7.725 6.39844V5.82812H5.99062V8.53516H7.725V7.97656H6.50937V7.4375H7.69062V6.88672H6.50937V6.39844H7.725ZM18 9.97656H17.9938H18ZM11.9188 11.2227C11.9188 10.582 11.4781 10.4922 11.0719 10.4922H9.84063L9.8375 13.1992H10.3563L10.3594 12.2109H10.9094C11.2531 12.2109 11.3719 12.2891 11.3719 12.75L11.3688 13.1992H11.8875L11.8906 12.6602C11.8906 12.3125 11.8344 12.0703 11.5469 11.9414C11.7875 11.8203 11.9156 11.5195 11.9188 11.2227ZM11.0063 11.6602H10.3594V11.0508H11.0156C11.175 11.0508 11.35 11.0898 11.35 11.3398C11.35 11.6094 11.1813 11.6602 11.0063 11.6602ZM5.60625 8.53516V5.82812H4.74375L4.12812 7.66406L3.45 5.82812H2.60312V8.39453L1.725 5.82812H0.95937L0.0312439 8.53516H0.590619L0.790619 7.9375H1.86875L2.06875 8.53516H3.125V6.41797L3.875 8.53516H4.33125L5.08125 6.41797V8.53516H5.60625ZM0.974995 7.375L1.32499 6.29688L1.68437 7.375H0.974995ZM15.8938 13.582V13.4062C15.5563 13.625 15.7719 13.582 10.9969 13.582C10.9969 12.5977 11 12.6484 10.9969 12.5977C10.9438 12.5938 10.8969 12.5938 10.7031 12.5938C10.7031 13.293 10.7 12.8594 10.7 13.582H9.4625C9.4625 13.1094 9.46563 12.9844 9.46563 12.4414C9.15313 12.6758 8.75313 12.6914 8.39375 12.6836C8.39375 13.2578 8.39062 13.0078 8.39062 13.582H6.8625C6.70312 13.3594 6.77812 13.4609 6.38125 12.9023C6.28125 13.0391 5.98125 13.4453 5.87812 13.582H3.31562V9.97656H5.9125C6.06875 10.1953 6 10.0977 6.39687 10.6484C6.49687 10.5117 6.77812 10.125 6.8875 9.97656H8.7C9.00625 9.97656 9.2625 10.0508 9.45938 10.1953V9.97656C11.1563 9.97656 11.4688 9.92188 11.825 10.1758V9.97656H14.2688V10.1797C14.625 9.91016 14.8813 9.97656 16.2969 9.97656V10.1719C16.6188 9.94141 16.8156 9.96875 17.9938 9.97656V3.125C17.9938 2.08984 17.3219 1.25 16.4938 1.25H1.49374C0.665619 1.25 -0.0062561 2.08984 -0.0062561 3.125V7.41406C0.287494 6.55859 0.609369 5.61719 0.715619 5.30859H1.95625C2.09062 5.70312 2.00625 5.45312 2.2375 6.13281V5.30859H3.675C3.76562 5.55078 4.02187 6.24609 4.10937 6.48047C4.29062 5.94922 4.425 5.54687 4.50312 5.30859H7.72187C7.72187 5.30469 8.08125 5.30859 8.08438 5.30859C9.45 5.31641 9.75938 5.27734 10.0969 5.51562V5.30859H11.3438V5.67188C11.5813 5.43359 11.9031 5.30859 12.3031 5.30859H13.1656C13.1656 5.32812 13.225 5.32031 13.2375 5.32031H14.25C14.3813 5.70312 14.3313 5.55469 14.525 6.125V5.32031H15.8781C16.0313 5.63281 15.8469 5.25 16.2281 6.03906V5.32031H17.475V8.91406H16.175C16.0063 8.5625 16.1313 8.82812 15.7625 8.05859V8.91406H14.1125C13.9125 8.33594 14.1094 8.90234 13.9063 8.31641H13.3125C13.1813 8.70703 13.2438 8.51953 13.1125 8.91406H12.275C11.8906 8.91406 11.5781 8.79688 11.3469 8.56641V8.91406H9.26875C9.25938 8.37109 9.26563 7.94531 9.26563 7.94531C9.20938 7.93359 9.15938 7.9375 8.95938 7.9375V8.91797H4.725V8.47266C4.64687 8.69141 4.64062 8.70312 4.56562 8.91797H3.64375C3.51875 8.57031 3.55312 8.66797 3.48437 8.47266V8.91797H1.83125C1.7 8.52344 1.7625 8.71094 1.63125 8.32031H1.03124C0.899995 8.71094 0.962495 8.52344 0.831245 8.91797H-6.09877e-06V16.875C-6.09877e-06 17.9102 0.671869 18.75 1.49999 18.75H16.5031C17.3313 18.75 18.0031 17.9102 18.0031 16.875V13.3438C17.6063 13.668 16.9813 13.582 15.8938 13.582ZM17.0281 11.0625H17.9688V10.4922H16.9406C16.5406 10.4922 16.1969 10.75 16.1969 11.3008C16.1969 12.5898 17.5313 11.8008 17.5313 12.3711C17.5313 12.5703 17.3969 12.6211 17.2688 12.6211H16.2688L16.2656 13.1992H17.2656C17.5281 13.1992 17.8156 13.1289 17.9688 12.8516V11.8438C17.6406 11.3047 16.7406 11.793 16.7406 11.3164C16.7406 11.0898 16.8844 11.0625 17.0281 11.0625ZM15.2469 12.6172H14.2406L14.2375 13.1953H15.2438C15.7063 13.1953 16.0625 12.9766 16.0625 12.3359C16.0625 11.0391 14.7219 11.8984 14.7219 11.3086C14.7219 11.0898 14.875 11.0586 15.0094 11.0586H15.9594V10.4883H14.9219C14.5219 10.4883 14.1875 10.7461 14.1875 11.2969C14.1875 12.5859 15.5219 11.7852 15.5219 12.3672C15.5188 12.5781 15.375 12.6172 15.2469 12.6172ZM13.9281 11.0508V10.4922H12.2031L12.2 13.1992H13.925L13.9281 12.6406L12.7219 12.6289V12.0898H13.9063V11.5391H12.725V11.0508H13.9281ZM12.1688 6.82812C12.1594 6.83594 12.125 6.91406 12.125 7.125C12.125 7.35938 12.1531 7.42578 12.1594 7.43359C12.1656 7.4375 12.1938 7.45312 12.2656 7.45312L12.4938 6.79297C12.4594 6.79297 12.4281 6.78906 12.3969 6.78906C12.2219 6.78906 12.1781 6.81641 12.1688 6.82812ZM12.8063 6.41797H12.8031H12.8063ZM12.3 5.82422C11.5656 5.82422 11.2375 6.29297 11.2375 7.20312C11.2375 8.07031 11.5563 8.53125 12.2688 8.53125H12.8688L13.0688 7.93359H14.1406L14.3469 8.53125H15.4V6.50391L16.375 8.53125H17.1125V5.83594H16.5844V7.71484L15.675 5.83594H14.8844V8.39062L14.0125 5.83594H13.2375L12.5031 7.96484H12.2719C11.8563 7.96484 11.7688 7.64844 11.7688 7.1875C11.7688 6.25781 12.2594 6.40625 12.8031 6.41797V5.82422H12.3ZM13.6156 6.29688L13.9656 7.375H13.2531L13.6156 6.29688ZM10.4563 5.82812V8.53516H10.9844V5.82812H10.4563Z" fill="black"/>
</g>
<defs>
<clipPath id="clip0_139_12">
<rect width="18" height="20" fill="white"/>
</clipPath>
</defs>
</svg>
