<svg width="18" height="20" viewBox="0 0 18 20" fill="none" xmlns="http://www.w3.org/2000/svg">
<path d="M7.49062 3.12109C4.4625 3.12109 1.99688 6.19141 1.99688 9.98828C1.99688 13.7734 4.4625 16.8555 7.49062 16.8555C10.5281 16.8555 12.9844 13.7734 12.9844 9.98828C12.9844 6.19141 10.5281 3.12109 7.49062 3.12109ZM6.24375 14.043C4.94063 13.4219 4.0125 11.8398 4.0125 9.98828C4.0125 8.13672 4.94063 6.55469 6.24375 5.92188V14.043ZM8.7375 14.0547V5.92188C10.0406 6.55469 10.9688 8.13672 10.9688 9.98828C10.9688 11.8398 10.0406 13.4219 8.7375 14.0547ZM16.5 1.25H1.5C0.671875 1.25 0 2.08984 0 3.125V16.875C0 17.9102 0.671875 18.75 1.5 18.75H16.5C17.3281 18.75 18 17.9102 18 16.875V3.125C18 2.08984 17.3281 1.25 16.5 1.25ZM10.3031 17.5H7.48125C4.1625 17.5 1.425 14.1602 1.425 10.0703C1.425 5.59375 4.1625 2.5 7.48125 2.5H10.3031C13.5844 2.5 16.575 5.59375 16.575 10.0703C16.575 14.1602 13.5844 17.5 10.3031 17.5Z" fill="black"/>
</svg>
