<svg xmlns="http://www.w3.org/2000/svg" width="18" height="20" fill="none" viewBox="0 0 18 20"><path fill="#000" d="M16.2625 7.66016C16.2625 7.35156 16.0906 7.1875 15.775 7.1875H15.6219V8.16016H15.7688C16.0906 8.16016 16.2625 7.98828 16.2625 7.66016ZM16.5 1.25H1.5C0.671875 1.25 0 2.08984 0 3.125V16.875C0 17.9102 0.671875 18.75 1.5 18.75H16.5C17.3281 18.75 18 17.9102 18 16.875V3.125C18 2.08984 17.3281 1.25 16.5 1.25ZM15.1219 6.67578C15.8281 6.67578 16.775 6.51562 16.775 7.62891C16.775 8.12109 16.5687 8.4375 16.1906 8.53516L16.9969 9.87891H16.3844L15.6906 8.59766H15.6219V9.87891H15.1219V6.67578ZM13.375 6.67969H14.7906V7.22656H13.875V7.9375H14.7594V8.47656H13.875V9.34375H14.7906V9.88281H13.375V6.67969ZM11.2281 6.67969L11.9125 8.83594L12.6062 6.67969H13.1531L12.0437 9.96875H11.775L10.6812 6.67969H11.2281ZM9.48125 6.5625C10.2531 6.5625 10.875 7.34375 10.875 8.30469C10.875 9.26953 10.25 10.0469 9.48125 10.0469C8.70937 10.0469 8.0875 9.26562 8.0875 8.30469C8.0875 7.33984 8.7125 6.5625 9.48125 6.5625ZM7.94063 6.80078V7.54297C7.3125 6.75781 6.47813 7.35938 6.47813 8.28516C6.47813 9.26172 7.3375 9.78906 7.94063 9.03516V9.77734C7.0125 10.3359 5.9625 9.55469 5.9625 8.28516C5.9625 7.06641 6.99688 6.21484 7.94063 6.80078ZM4.90312 9.39062C5.25937 9.39062 5.60313 8.79297 4.8 8.4375C4.33125 8.22266 4.16875 7.99219 4.16875 7.55078C4.16875 6.64453 5.125 6.32422 5.72188 6.99219L5.45937 7.41406C5.13438 6.96094 4.68125 7.17188 4.68125 7.51172C4.68125 7.68359 4.76562 7.78125 5.06563 7.91406C5.63438 8.17188 5.80312 8.40234 5.80312 8.91406C5.80312 10.0664 4.59063 10.375 4.03438 9.35547L4.35625 8.96875C4.47187 9.24609 4.66562 9.39062 4.90312 9.39062ZM1.73125 9.88281H1V6.67969H1.73125C2.54688 6.67969 3.10938 7.34375 3.10938 8.28516C3.10938 9.00781 2.69688 9.88281 1.73125 9.88281ZM3.84063 9.88281H3.34063V6.67969H3.84063V9.88281ZM17 16.9141C17 17.2344 16.7875 17.5 16.5312 17.5H4C9.925 16.1094 15.9594 12.0625 17 11.25V16.9141ZM2.31562 7.48438C2.15313 7.29297 1.95312 7.22656 1.63125 7.22656H1.5V9.34375H1.63125C1.95312 9.34375 2.1625 9.26562 2.31562 9.09375C2.49375 8.89062 2.59375 8.59375 2.59375 8.28516C2.59375 7.97656 2.49375 7.67969 2.31562 7.48438Z"/></svg>