<svg xmlns="http://www.w3.org/2000/svg" width="18" height="20" fill="none" viewBox="0 0 18 20"><path fill="#000" d="M13.4844 9.54297V8.28125C14.7719 8.28125 14.6875 8.28906 14.6875 8.28906C14.9156 8.33984 15.1031 8.57422 15.1031 8.91406C15.1031 9.25781 14.9156 9.48047 14.6875 9.53125C14.65 9.54688 14.5844 9.54297 13.4844 9.54297ZM14.8219 10.332C14.7344 10.3047 14.7188 10.3125 13.4844 10.3125V11.6797C14.7219 11.6797 14.7344 11.6875 14.8219 11.6602C15.0562 11.6016 15.2437 11.3477 15.2437 10.9961C15.2437 10.6562 15.0562 10.3906 14.8219 10.332ZM18 3.125V16.875C18 17.9102 17.3281 18.75 16.5 18.75H1.5C0.671875 18.75 0 17.9102 0 16.875V3.125C0 2.08984 0.671875 1.25 1.5 1.25H16.5C17.3281 1.25 18 2.08984 18 3.125ZM5.6875 7.51172H3.90625C3.90625 10.1328 4.24062 11.7969 2.7875 11.7969C2.17812 11.7969 1.575 11.5742 1 11.2188V12.3125C1.9375 12.6367 3.125 12.6367 3.125 12.6367C6.18437 12.6367 5.6875 10.7734 5.6875 7.51172ZM11.2656 7.6875C9.28438 7.0625 6.10938 7.10547 6.10938 10.0039C6.10938 13.0156 9.49063 12.8789 11.2656 12.3164V11.2109C9.77812 12.1758 7.90625 12.0703 7.90625 10C7.90625 7.92969 9.775 7.82812 11.2656 8.78125V7.6875ZM17 11.1914C17 10.4688 16.4844 10 15.8125 9.94141V9.91016C16.4219 9.80469 16.7594 9.30469 16.7594 8.73047C16.7594 7.98828 16.2687 7.55859 15.6031 7.51953C15.6031 7.51953 15.8 7.50781 11.8438 7.50781V12.4883H15.6781C16.4375 12.4922 17 11.9844 17 11.1914Z"/></svg>