<svg width="18" height="20" viewBox="0 0 18 20" fill="none" xmlns="http://www.w3.org/2000/svg">
<path d="M15.0906 16.0273C15.0906 16.293 14.9469 16.4844 14.7406 16.4844C14.5281 16.4844 14.3906 16.2812 14.3906 16.0273C14.3906 15.7734 14.5281 15.5703 14.7406 15.5703C14.9469 15.5703 15.0906 15.7734 15.0906 16.0273ZM5.37813 15.5703C5.15625 15.5703 5.02812 15.7734 5.02812 16.0273C5.02812 16.2812 5.15625 16.4844 5.37813 16.4844C5.58125 16.4844 5.71875 16.293 5.71875 16.0273C5.71562 15.7734 5.58125 15.5703 5.37813 15.5703ZM9.05 15.5586C8.88125 15.5586 8.77812 15.6953 8.75313 15.8984H9.35C9.32188 15.6758 9.2125 15.5586 9.05 15.5586ZM12.4187 15.5703C12.2063 15.5703 12.0781 15.7734 12.0781 16.0273C12.0781 16.2812 12.2063 16.4844 12.4187 16.4844C12.6312 16.4844 12.7688 16.293 12.7688 16.0273C12.7688 15.7734 12.6312 15.5703 12.4187 15.5703ZM15.7281 16.5898C15.7281 16.6016 15.7375 16.6094 15.7375 16.6328C15.7375 16.6445 15.7281 16.6523 15.7281 16.6758C15.7188 16.6875 15.7188 16.6953 15.7125 16.707C15.7031 16.7188 15.6969 16.7266 15.6781 16.7266C15.6688 16.7383 15.6625 16.7383 15.6438 16.7383C15.6344 16.7383 15.6281 16.7383 15.6094 16.7266C15.6 16.7266 15.5938 16.7148 15.5844 16.707C15.575 16.6953 15.5688 16.6875 15.5688 16.6758C15.5594 16.6562 15.5594 16.6445 15.5594 16.6328C15.5594 16.6133 15.5594 16.6016 15.5688 16.5898C15.5688 16.5703 15.5781 16.5586 15.5844 16.5469C15.5938 16.5352 15.6 16.5352 15.6094 16.5273C15.625 16.5156 15.6344 16.5156 15.6438 16.5156C15.6594 16.5156 15.6688 16.5156 15.6781 16.5273C15.6938 16.5391 15.7031 16.5391 15.7125 16.5469C15.7219 16.5547 15.7188 16.5703 15.7281 16.5898ZM15.6594 16.6445C15.675 16.6445 15.675 16.6328 15.6844 16.6328C15.6937 16.6211 15.6938 16.6133 15.6938 16.6016C15.6938 16.5898 15.6937 16.582 15.6844 16.5703C15.675 16.5703 15.6687 16.5586 15.65 16.5586H15.6V16.6953H15.625V16.6406H15.6344L15.6687 16.6953H15.6938L15.6594 16.6445ZM18 3.16406V16.9141C18 17.9492 17.3281 18.7891 16.5 18.7891H1.5C0.671875 18.7891 0 17.9492 0 16.9141V3.16406C0 2.12891 0.671875 1.28906 1.5 1.28906H16.5C17.3281 1.28906 18 2.12891 18 3.16406ZM2 8.61719C2 11.6055 3.94062 14.0273 6.32812 14.0273C7.17812 14.0273 8.0125 13.707 8.71875 13.125C6.44063 10.8086 6.45625 6.4375 8.71875 4.12109C8.0125 3.53516 7.17812 3.21875 6.32812 3.21875C3.94062 3.21484 2 5.64063 2 8.61719ZM9 12.8672C11.2031 10.7188 11.1938 6.53125 9 4.37109C6.80625 6.53125 6.79688 10.7227 9 12.8672ZM4.55312 15.8477C4.55312 15.5078 4.375 15.2852 4.09375 15.2734C3.95 15.2734 3.79688 15.3281 3.69375 15.5273C3.61875 15.3672 3.49062 15.2734 3.3125 15.2734C3.19375 15.2734 3.075 15.3281 2.98125 15.4844V15.3125H2.725V16.7461H2.98125C2.98125 16.0078 2.90313 15.5664 3.2625 15.5664C3.58125 15.5664 3.51875 15.9648 3.51875 16.7461H3.76562C3.76562 16.0313 3.6875 15.5664 4.04688 15.5664C4.36562 15.5664 4.30312 15.957 4.30312 16.7461H4.55937V15.8477H4.55312ZM5.95625 15.3125H5.70937V15.4844C5.625 15.3555 5.50625 15.2734 5.34375 15.2734C5.02187 15.2734 4.775 15.5937 4.775 16.0273C4.775 16.4648 5.02187 16.7812 5.34375 16.7812C5.50625 16.7812 5.625 16.707 5.70937 16.5703V16.75H5.95625V15.3125ZM7.22188 16.3125C7.22188 15.7266 6.50625 15.9922 6.50625 15.7188C6.50625 15.4961 6.87812 15.5312 7.08437 15.6758L7.1875 15.4219C6.89375 15.1836 6.24375 15.1875 6.24375 15.7422C6.24375 16.3008 6.95937 16.0664 6.95937 16.3281C6.95937 16.5742 6.5375 16.5547 6.3125 16.3594L6.20312 16.6055C6.55312 16.9023 7.22188 16.8398 7.22188 16.3125ZM8.32812 16.6758L8.25937 16.4102C8.14062 16.4922 7.87813 16.582 7.87813 16.25V15.6016H8.2875V15.3125H7.87813V14.875H7.62187V15.3125H7.38438V15.5977H7.62187V16.25C7.62187 16.9375 8.1625 16.8125 8.32812 16.6758ZM8.74375 16.1523H9.60312C9.60312 15.5195 9.37187 15.2695 9.05937 15.2695C8.72812 15.2695 8.49063 15.5781 8.49063 16.0234C8.49063 16.8242 9.19687 16.957 9.54688 16.5781L9.42813 16.3438C9.18438 16.5938 8.81562 16.5703 8.74375 16.1523ZM10.5906 15.3125C10.4469 15.2344 10.2281 15.2422 10.1156 15.4844V15.3125H9.85938V16.7461H10.1156V15.9375C10.1156 15.4844 10.4125 15.543 10.5156 15.6094L10.5906 15.3125ZM10.9219 16.0273C10.9219 15.582 11.2844 15.4375 11.5688 15.6992L11.6875 15.4453C11.325 15.0898 10.6656 15.2852 10.6656 16.0312C10.6656 16.8047 11.3656 16.9609 11.6875 16.6172L11.5688 16.3633C11.2812 16.6172 10.9219 16.4648 10.9219 16.0273ZM13.0063 15.3125H12.75V15.4844C12.4906 15.0547 11.8156 15.2969 11.8156 16.0273C11.8156 16.7773 12.5156 16.9922 12.75 16.5703V16.75H13.0063V15.3125ZM14.0594 15.3125C13.9844 15.2656 13.7156 15.1992 13.5844 15.4844V15.3125H13.3375V16.7461H13.5844V15.9375C13.5844 15.5078 13.8656 15.5352 13.9844 15.6094L14.0594 15.3125ZM15.3188 14.7305H15.0719V15.4844C14.8156 15.0586 14.1375 15.2852 14.1375 16.0273C14.1375 16.7852 14.8406 16.9883 15.0719 16.5703V16.75H15.3188V14.7305ZM15.5562 11.7969V11.9766H15.5813V11.7969H15.6406V11.7656H15.4969V11.7969H15.5562ZM15.7625 16.6328C15.7625 16.6133 15.7625 16.5898 15.7531 16.5703C15.7438 16.5586 15.7375 16.5391 15.7281 16.5273C15.7188 16.5156 15.7031 16.5078 15.6938 16.4961C15.6781 16.4961 15.6594 16.4844 15.6438 16.4844C15.6344 16.4844 15.6188 16.4961 15.6 16.4961C15.5844 16.5078 15.575 16.5156 15.5656 16.5273C15.55 16.5391 15.5406 16.5586 15.5406 16.5703C15.5312 16.5898 15.5312 16.6133 15.5312 16.6328C15.5312 16.6445 15.5312 16.6641 15.5406 16.6875C15.5406 16.6992 15.55 16.7187 15.5656 16.7305C15.575 16.7422 15.5813 16.75 15.6 16.7617C15.6156 16.7734 15.6344 16.7734 15.6438 16.7734C15.6594 16.7734 15.6781 16.7734 15.6938 16.7617C15.7031 16.75 15.7188 16.7422 15.7281 16.7305C15.7375 16.7187 15.7438 16.6992 15.7531 16.6875C15.7625 16.6641 15.7625 16.6445 15.7625 16.6328ZM15.8625 11.7617H15.8188L15.7688 11.8984L15.7188 11.7617H15.675V11.9727H15.7V11.8125L15.75 11.9492H15.7844L15.8281 11.8125V11.9727H15.8625V11.7617ZM16 8.61719C16 5.64063 14.0594 3.21484 11.6719 3.21484C10.8219 3.21484 9.9875 3.53516 9.28125 4.11719C11.5344 6.43359 11.5688 10.8164 9.28125 13.1211C9.9875 13.707 10.8281 14.0234 11.6719 14.0234C14.0594 14.0273 16 11.6055 16 8.61719Z" fill="black"/>
</svg>
