<svg width="18" height="20" viewBox="0 0 18 20" fill="none" xmlns="http://www.w3.org/2000/svg">
<path d="M5.82188 10.0859C5.82188 10.5625 5.51875 10.9258 5.13438 10.9258C4.84688 10.9258 4.63438 10.7227 4.63438 10.3398C4.63438 9.86328 4.93125 9.48047 5.3125 9.48047C5.60313 9.48047 5.82188 9.70312 5.82188 10.0859ZM2.51562 8.19141H2.36875C2.32188 8.19141 2.275 8.23047 2.26875 8.29688L2.13438 9.33984L2.39062 9.32812C2.73438 9.32812 3 9.26953 3.0625 8.77344C3.13438 8.25 2.86875 8.19141 2.51562 8.19141ZM11.3906 8.19141H11.25C11.1938 8.19141 11.1562 8.23047 11.15 8.29688L11.0188 9.33984L11.2688 9.32812C11.675 9.32812 11.9563 9.21094 11.9563 8.625C11.9531 8.21094 11.6562 8.19141 11.3906 8.19141ZM18 3.125V16.875C18 17.9102 17.3281 18.75 16.5 18.75H1.5C0.671875 18.75 0 17.9102 0 16.875V3.125C0 2.08984 0.671875 1.25 1.5 1.25H16.5C17.3281 1.25 18 2.08984 18 3.125ZM4.00938 8.41406C4.00938 7.59375 3.50312 7.32031 2.925 7.32031H1.675C1.59687 7.32031 1.51875 7.39844 1.5125 7.50391L1 11.4922C0.990625 11.5703 1.0375 11.6484 1.1 11.6484H1.69375C1.77813 11.6484 1.85625 11.5352 1.86563 11.4258L2.00625 10.3867C2.0375 10.1055 2.41875 10.2031 2.56875 10.2031C3.4625 10.2031 4.00938 9.53906 4.00938 8.41406ZM6.64062 8.75781H6.04688C5.92812 8.75781 5.92188 8.97266 5.91563 9.07812C5.73438 8.74609 5.47188 8.6875 5.175 8.6875C4.40938 8.6875 3.825 9.52734 3.825 10.4531C3.825 11.2148 4.20625 11.7109 4.81563 11.7109C5.09688 11.7109 5.44688 11.5195 5.64375 11.2461C5.62813 11.3047 5.6125 11.4297 5.6125 11.4883C5.6125 11.5781 5.64375 11.6445 5.7125 11.6445H6.25C6.33437 11.6445 6.40625 11.5312 6.42188 11.4219L6.74062 8.91016C6.75 8.83594 6.70312 8.75781 6.64062 8.75781ZM7.90625 12.582L9.89688 8.96484C9.9125 8.94531 9.9125 8.92578 9.9125 8.89844C9.9125 8.83203 9.86563 8.76172 9.8125 8.76172H9.2125C9.15937 8.76172 9.10312 8.80078 9.07187 8.85938L8.24375 10.3828L7.9 8.91797C7.875 8.83203 7.80625 8.76172 7.72813 8.76172H7.14375C7.09063 8.76172 7.04375 8.83203 7.04375 8.89844C7.04375 8.94531 7.65313 11.1172 7.70625 11.3242C7.62188 11.4727 7.06563 12.4414 7.06563 12.5586C7.06563 12.6289 7.1125 12.6836 7.16563 12.6836H7.76562C7.82188 12.6797 7.875 12.6406 7.90625 12.582ZM12.8844 8.41406C12.8844 7.59375 12.3781 7.32031 11.8 7.32031H10.5594C10.475 7.32031 10.3969 7.39844 10.3875 7.50391L9.88125 11.4883C9.875 11.5664 9.92188 11.6445 9.98125 11.6445H10.6219C10.6844 11.6445 10.7312 11.5859 10.7469 11.5195L10.8875 10.3867C10.9187 10.1055 11.3 10.2031 11.45 10.2031C12.3375 10.2031 12.8844 9.53906 12.8844 8.41406ZM15.5156 8.75781H14.9219C14.8031 8.75781 14.7969 8.97266 14.7875 9.07812C14.6156 8.74609 14.35 8.6875 14.0469 8.6875C13.2812 8.6875 12.6969 9.52734 12.6969 10.4531C12.6969 11.2148 13.0781 11.7109 13.6875 11.7109C13.9781 11.7109 14.3281 11.5195 14.5156 11.2461C14.5063 11.3047 14.4844 11.4297 14.4844 11.4883C14.4844 11.5781 14.5156 11.6445 14.5844 11.6445H15.125C15.2094 11.6445 15.2812 11.5312 15.2969 11.4219L15.6156 8.91016C15.625 8.83594 15.5781 8.75781 15.5156 8.75781ZM17 7.45703C17 7.37891 16.9531 7.32031 16.9 7.32031H16.3219C16.275 7.32031 16.2281 7.36719 16.2219 7.42578L15.7156 11.4883L15.7063 11.5078C15.7063 11.5781 15.7531 11.6445 15.8156 11.6445H16.3312C16.4094 11.6445 16.4875 11.5312 16.4937 11.4219L17 7.46875V7.45703ZM14.1875 9.48047C13.8062 9.48047 13.5094 9.85938 13.5094 10.3398C13.5094 10.7188 13.7281 10.9258 14.0156 10.9258C14.3906 10.9258 14.6938 10.5664 14.6938 10.0859C14.6969 9.70312 14.4781 9.48047 14.1875 9.48047Z" fill="black"/>
</svg>
