<svg width="18" height="20" viewBox="0 0 18 20" fill="none" xmlns="http://www.w3.org/2000/svg">
<path d="M15.3875 8.625C15.1094 8.625 14.8031 8.88672 14.8031 9.51172H15.95C15.95 8.88672 15.6594 8.625 15.3875 8.625ZM11.7188 8.72656C11.4625 8.72656 11.3031 8.83984 11.1875 9L11.1938 11.0625C11.3031 11.207 11.4594 11.3242 11.7188 11.3242C12.1281 11.3242 12.4031 10.7656 12.4031 10.0195C12.4031 9.29297 12.1219 8.72266 11.7188 8.72656ZM16.5 1.25H1.5C0.671875 1.25 0 2.08984 0 3.125V16.875C0 17.9102 0.671875 18.75 1.5 18.75H16.5C17.3281 18.75 18 17.9102 18 16.875V3.125C18 2.08984 17.3281 1.25 16.5 1.25ZM3.81875 10.9805C3.81875 11.9805 3.18438 12.5469 2.25938 12.5547C1.87813 12.5547 1.45938 12.4609 1.04688 12.2383V10.9141C1.42188 11.1641 1.89375 11.3555 2.2625 11.3555C2.50938 11.3555 2.6875 11.2734 2.6875 11.0156C2.6875 10.3516 1 10.6016 1 9.06641C1 8.08203 1.6 7.49609 2.5 7.49609C2.86875 7.49609 3.23438 7.56641 3.60313 7.75V9.05469C3.26562 8.82812 2.8375 8.69922 2.5 8.69922C2.26562 8.69922 2.12188 8.78516 2.12188 9C2.12188 9.625 3.81875 9.32812 3.81875 10.9805ZM5.96875 8.76953H5.125V10.7422C5.125 11.5586 5.82812 11.3047 5.96875 11.2344V12.3633C5.82188 12.4648 5.55313 12.5469 5.19063 12.5469C4.53125 12.5469 4.0375 11.9414 4.0375 11.1211L4.04375 6.67188L5.12813 6.38281V7.58594H5.96875V8.76953ZM8.28125 8.86328C8.14062 8.80469 7.69687 8.72266 7.43437 9.15234V12.4492H6.325V7.58594H7.28438L7.35313 7.99609C7.6125 7.39844 8.13125 7.51953 8.27812 7.58594H8.28125V8.86328ZM9.65938 12.4492H8.54375V7.58594H9.65938V12.4492ZM9.65938 6.86719L8.54375 7.16406V6.03516L9.65938 5.73828V6.86719ZM11.975 12.5508C11.5875 12.5508 11.35 12.3438 11.1906 12.1992L11.1875 13.7695L10.0781 14.0625V7.58594H11.0562L11.1125 7.92969C11.2656 7.75391 11.5469 7.49609 11.9812 7.49609C12.7594 7.49609 13.4937 8.375 13.4937 9.98828C13.4937 11.75 12.7688 12.5469 11.975 12.5508ZM16.9875 10.5391H14.8156C14.8656 11.1875 15.2469 11.3789 15.6781 11.3789C16.1187 11.3789 16.4656 11.2617 16.7687 11.0703V12.1875C16.4656 12.3945 16.0688 12.5469 15.5375 12.5469C14.4563 12.5469 13.7 11.6992 13.7 10.0273C13.7 8.61328 14.3406 7.49219 15.3969 7.49219C16.45 7.49219 17 8.61328 17 10.0352C17 10.1719 16.9906 10.4609 16.9875 10.5391Z" fill="black"/>
</svg>
