<svg width="18" height="20" viewBox="0 0 18 20" fill="none" xmlns="http://www.w3.org/2000/svg">
<path d="M14.6906 9.03516C14.6906 9.03516 14.9281 10.4883 14.9812 10.793H13.9375C14.0406 10.4453 14.4375 9.09375 14.4375 9.09375C14.4312 9.10547 14.5406 8.73828 14.6031 8.51172L14.6906 9.03516ZM18 3.125V16.875C18 17.9102 17.3281 18.75 16.5 18.75H1.5C0.671875 18.75 0 17.9102 0 16.875V3.125C0 2.08984 0.671875 1.25 1.5 1.25H16.5C17.3281 1.25 18 2.08984 18 3.125ZM4.76562 12.9375L6.74062 6.875H5.4125L4.18437 11.0156L4.05 10.1758L3.6125 7.38672C3.54062 7 3.31875 6.89062 3.04375 6.875H1.02188L1 6.99609C1.49375 7.15234 1.93437 7.37891 2.31875 7.66406L3.4375 12.9375H4.76562ZM7.71562 12.9453L8.50313 6.875H7.24687L6.4625 12.9453H7.71562ZM12.0875 10.9609C12.0938 10.2695 11.7563 9.74219 11.0344 9.30859C10.5938 9.03125 10.325 8.84375 10.325 8.55859C10.3313 8.30078 10.5531 8.03516 11.0469 8.03516C11.4563 8.02344 11.7562 8.14453 11.9812 8.26562L12.0938 8.33203L12.2656 7.01953C12.0188 6.89844 11.625 6.76172 11.1406 6.76172C9.9 6.76172 9.02813 7.58984 9.02188 8.76953C9.0125 9.64062 9.64687 10.125 10.1219 10.418C10.6062 10.7148 10.7719 10.9102 10.7719 11.1719C10.7656 11.5781 10.3781 11.7656 10.0188 11.7656C9.51875 11.7656 9.25 11.668 8.84062 11.4414L8.675 11.3438L8.5 12.707C8.79375 12.875 9.3375 13.0234 9.9 13.0312C11.2188 13.0352 12.0781 12.2188 12.0875 10.9609ZM16.5 12.9453L15.4875 6.875H14.5156C14.2156 6.875 13.9875 6.98437 13.8594 7.37891L11.9937 12.9453H13.3125C13.3125 12.9453 13.5281 12.1953 13.575 12.0352H15.1875C15.225 12.25 15.3375 12.9453 15.3375 12.9453H16.5Z" fill="black"/>
</svg>
