<svg width="20" height="20" viewBox="0 0 20 20" fill="none" xmlns="http://www.w3.org/2000/svg">
<path d="M0 15.832V17.5C0 18.877 3.32422 20 7.5 20C11.6055 20 15 18.877 15 17.5V15.8301C13.3906 16.9688 10.4375 17.5 7.5 17.5C4.5625 17.5 1.61133 16.9688 0 15.832ZM12.5 5C16.6055 5 20 3.87695 20 2.5C20 1.12305 16.6406 0 12.5 0C8.32422 0 5 1.12305 5 2.5C5 3.87695 8.32422 5 12.5 5ZM0 11.7344V13.75C0 15.127 3.32422 16.25 7.5 16.25C11.6055 16.25 15 15.127 15 13.75V11.7344C13.3906 13.0625 10.4336 13.75 7.5 13.75C4.56641 13.75 1.61133 13.0625 0 11.7344ZM16.25 12.1641C18.4883 11.7266 20 10.9297 20 10V8.32812C19.0918 8.97266 17.7637 9.40742 16.25 9.67578V12.1641ZM7.5 6.25C3.32422 6.25 0 7.64844 0 9.375C0 11.1016 3.32422 12.5 7.5 12.5C11.6055 12.5 15 11.1035 15 9.375C15 7.64648 11.6055 6.25 7.5 6.25ZM16.0625 8.44531C18.4102 8.02734 20 7.19531 20 6.25V4.57812C18.6133 5.55977 16.2305 6.08711 13.7188 6.21406C14.875 6.77344 15.7227 7.52344 16.0625 8.44531Z" fill="black"/>
</svg>
