<svg width="14" height="22" viewBox="0 0 14 22" fill="none" xmlns="http://www.w3.org/2000/svg">
<path d="M13.2169 15.3871C12.8275 17.5227 10.9988 18.8805 8.4 19.1812V20.625C8.4 21.3843 7.77525 22 7.00175 22C6.22825 22 5.6 21.3855 5.6 20.625V19.1228C5.5806 19.12 5.56343 19.1215 5.54396 19.1186C4.39814 18.9568 3.19502 18.5514 2.13408 18.1935L1.65152 18.0317C0.920063 17.7891 0.526313 17.007 0.773938 16.2895C1.02156 15.5719 1.81869 15.1839 2.54844 15.4266L3.04325 15.5925C3.98781 15.9107 5.05706 16.2718 5.94869 16.3973C8.00888 16.696 10.1951 16.361 10.4593 14.9325C10.6863 13.7057 9.97106 13.2184 6.62988 12.3243L5.97188 12.1473C4.05081 11.6188 0.0546879 10.523 0.786188 6.57422C1.17338 4.47305 2.99425 3.11438 5.6 2.81488V1.375C5.6 0.615742 6.22694 0 7.00088 0C7.77481 0 8.4 0.615742 8.4 1.375V2.87676C8.41931 2.87944 8.43674 2.87869 8.45605 2.88154C9.19586 2.99029 10.0407 3.20247 11.1125 3.5497C11.848 3.78736 12.2474 4.5642 12.0055 5.28607C11.7635 6.00666 10.969 6.39724 10.2375 6.16177C9.33105 5.86907 8.61354 5.68568 8.04305 5.60232C5.99375 5.30234 3.80494 5.6375 3.53981 7.06836C3.34688 8.1125 3.74763 8.67969 6.72875 9.49609L7.36706 9.66866C9.98813 10.3727 13.9519 11.434 13.2169 15.3871Z" fill="black"/>
</svg>
