<svg width="17" height="23" viewBox="0 0 17 23" fill="none" xmlns="http://www.w3.org/2000/svg">
<path d="M15.5479 19.5949C15.7243 20.3685 15.2491 21.1407 14.4867 21.3204C13.7855 21.4846 13.0785 21.5647 12.3799 21.5647C9.86354 21.5647 7.43484 20.5216 5.61531 18.5913C4.64401 17.5645 3.93523 16.3695 3.47482 15.0938H2.125C1.34273 15.0938 0.708332 14.4509 0.708332 13.6563C0.708332 12.8616 1.34273 12.2188 2.125 12.2188H2.87495C2.84269 11.7399 2.84278 11.2601 2.87495 10.7813H2.125C1.34273 10.7813 0.708332 10.1389 0.708332 9.3442C0.708332 8.54953 1.34273 7.90625 2.125 7.90625H3.47482C3.93567 6.63047 4.64357 5.43285 5.61354 4.40639C7.9413 1.94108 11.2581 0.924942 14.4854 1.67873C15.2478 1.85842 15.7228 2.63063 15.5466 3.40418C15.3709 4.17774 14.6116 4.66065 13.8475 4.48096C11.6034 3.95717 9.28802 4.67188 7.65885 6.39688C7.225 6.85508 6.88854 7.37168 6.59635 7.90625H12.0417C12.8239 7.90625 13.4185 8.54953 13.4185 9.3442C13.4185 10.1389 12.8253 10.7813 12.0417 10.7813H5.72864C5.68358 11.261 5.68349 11.739 5.72864 12.2188H12.0417C12.8239 12.2188 13.4185 12.8616 13.4185 13.6158C13.4185 14.3701 12.8253 15.0938 12.0417 15.0938H6.59635C6.88801 15.6297 7.22367 16.1454 7.65619 16.6027C9.28669 18.3295 11.5976 19.0437 13.8453 18.519C14.5695 18.3371 15.3708 18.8223 15.5479 19.5949Z" fill="black"/>
</svg>
