<svg width="20" height="20" viewBox="0 0 20 20" fill="none" xmlns="http://www.w3.org/2000/svg">
<path d="M17.7031 16.375C19.1367 14.6445 20 12.4258 20 10C20 7.57422 19.1371 5.35547 17.7023 3.625L18.1629 3.16445C18.5291 2.79824 18.5291 2.20508 18.1629 1.83867C17.7967 1.47227 17.2035 1.47246 16.8371 1.83867L16.3766 2.29922C14.6445 0.862891 12.4258 0 10 0C7.57422 0 5.35547 0.862891 3.62344 2.29766L3.16289 1.83711C2.79668 1.4709 2.20352 1.4709 1.83711 1.83711C1.4707 2.20332 1.4709 2.79648 1.83711 3.16289L2.29766 3.62344C0.862891 5.35547 0 7.57422 0 10C0 12.4258 0.862891 14.6445 2.29766 16.375L1.83711 16.8355C1.4709 17.2018 1.4709 17.7949 1.83711 18.1613C2.02031 18.3477 2.26016 18.4375 2.5 18.4375C2.73984 18.4375 2.97969 18.3459 3.16289 18.1629L3.62344 17.7023C5.35547 19.1367 7.57422 20 10 20C12.4258 20 14.6445 19.1371 16.375 17.7023L16.8355 18.1629C17.0195 18.3477 17.2617 18.4375 17.5 18.4375C17.7383 18.4375 17.9797 18.3459 18.1629 18.1629C18.5291 17.7966 18.5291 17.2035 18.1629 16.8371L17.7031 16.375ZM18.125 10C18.125 11.9027 17.4629 13.6512 16.3629 15.0039L13.2195 11.8605C13.5469 11.3359 13.75 10.6953 13.75 10C13.75 9.30469 13.5484 8.66367 13.2195 8.10625L16.3629 4.96289C17.4609 6.34766 18.125 8.09766 18.125 10ZM8.125 10C8.125 8.96602 8.96602 8.125 10 8.125C11.034 8.125 11.875 8.96602 11.875 10C11.875 11.034 11.0352 11.875 10 11.875C8.96484 11.875 8.125 11.0352 8.125 10ZM10 1.875C11.9027 1.875 13.6512 2.53711 15.0039 3.63711L11.8605 6.78047C11.3359 6.45312 10.6953 6.25 10 6.25C9.30469 6.25 8.66406 6.45313 8.10547 6.78125L4.96094 3.63711C6.34766 2.53711 8.09766 1.875 10 1.875ZM1.875 10C1.875 8.09727 2.53711 6.34883 3.63711 4.99609L6.78047 8.13945C6.45312 8.66406 6.25 9.30469 6.25 10C6.25 10.6953 6.45156 11.3363 6.78047 11.8938L3.63711 15.0371C2.53711 13.6523 1.875 11.9023 1.875 10ZM10 18.125C8.09727 18.125 6.34883 17.4629 4.99609 16.3629L8.13945 13.2195C8.66406 13.5469 9.30469 13.75 10 13.75C10.6953 13.75 11.3363 13.5484 11.8938 13.2195L15.0371 16.3629C13.6523 17.4609 11.9023 18.125 10 18.125Z" fill="black"/>
</svg>
