<svg width="21" height="16" viewBox="0 0 21 16" fill="none" xmlns="http://www.w3.org/2000/svg">
<path d="M18.6667 0H2.33333C1.04453 0 0 1.02321 0 2.28571V13.7143C0 14.9768 1.04453 16 2.33333 16H18.6667C19.9555 16 21 14.9768 21 13.7143V2.28571C21 1.02321 19.9536 0 18.6667 0ZM1.75474 2.28571C1.75474 1.97007 2.01593 1.71429 2.33807 1.71429H18.6641C18.9863 1.71429 19.2474 1.97007 19.2474 2.28571V3.42857H1.75474V2.28571ZM19.2464 13.7143C19.2464 14.0299 18.9852 14.2857 18.663 14.2857H2.33807C2.01593 14.2857 1.75474 14.0299 1.75474 13.7143L1.75 6.85714H19.25L19.2464 13.7143ZM4.375 12.5714H6.125C6.60807 12.5714 6.96719 12.1875 6.96719 11.7143C6.96719 11.2411 6.6099 10.8571 6.125 10.8571H4.375C3.89375 10.8571 3.5 11.2429 3.5 11.7143C3.5 12.1857 3.89375 12.5714 4.375 12.5714ZM9.04167 12.5714H13.125C13.6081 12.5714 14 12.1875 14 11.7143C14 11.2407 13.6081 10.8571 13.125 10.8571H9.04167C8.55677 10.8571 8.16667 11.2393 8.16667 11.7143C8.16667 12.1893 8.55677 12.5714 9.04167 12.5714Z" fill="black"/>
</svg>
