<svg width="23" height="20" viewBox="0 0 23 20" fill="none" xmlns="http://www.w3.org/2000/svg">
<path d="M22.3611 7.50092L18.3042 7.501L14.5862 0.50542C14.3442 0.0476415 13.7633 -0.133986 13.2941 0.106231C12.8237 0.34426 12.6416 0.910469 12.886 1.36942L16.1447 7.49787H6.85608L10.1148 1.36942C10.358 0.912343 10.1783 0.346057 9.70712 0.108028C9.23594 -0.131213 8.65694 0.0494383 8.41337 0.507295L4.69543 7.50287L0.638889 7.50092C0.286062 7.50092 0 7.78074 0 8.09072V9.34063C0 9.68576 0.286062 9.93043 0.638889 9.93043H1.56168L3.38851 17.9728C3.64845 19.1876 4.68385 20 5.88177 20H17.1142C18.2762 20 19.3491 19.1864 19.6091 18.0423L21.4359 9.99996H22.3611C22.714 9.99996 23 9.72013 23 9.41016V8.16025C23 7.78215 22.7125 7.50092 22.3611 7.50092ZM7.66667 16.8752C7.66667 17.2203 7.38052 17.465 7.02778 17.465C6.67511 17.465 6.38889 17.1851 6.38889 16.8752V11.8756C6.38889 11.5305 6.67511 11.2858 7.02778 11.2858C7.38052 11.2858 7.66667 11.5657 7.66667 11.8756V16.8752ZM12.1389 16.8752C12.1389 17.2203 11.8527 17.465 11.5 17.465C11.1473 17.465 10.8611 17.1852 10.8611 16.8752V11.8756C10.8611 11.5305 11.1473 11.2858 11.5 11.2858C11.8527 11.2858 12.1389 11.5657 12.1389 11.8756V16.8752ZM16.6111 16.8752C16.6111 17.2203 16.325 17.465 15.9722 17.465C15.6196 17.465 15.3333 17.1851 15.3333 16.8752V11.8756C15.3333 11.5305 15.6196 11.2858 15.9722 11.2858C16.325 11.2858 16.6111 11.5657 16.6111 11.8756V16.8752Z" fill="black"/>
</svg>
