<svg width="20" height="15" viewBox="0 0 20 15" fill="none" xmlns="http://www.w3.org/2000/svg">
<path d="M12.7778 10.4464H16.1111C16.5712 10.4464 16.9444 10.0865 16.9444 9.64286C16.9444 9.19922 16.5712 8.83929 16.1111 8.83929H12.7778C12.3177 8.83929 11.9444 9.19922 11.9444 9.64286C11.9444 10.0865 12.3194 10.4464 12.7778 10.4464ZM7.22222 9.64286C8.44965 9.64286 9.44444 8.68359 9.44444 7.5C9.44444 6.31641 8.44965 5.35714 7.22222 5.35714C5.99479 5.35714 5 6.31641 5 7.5C5 8.68192 5.99653 9.64286 7.22222 9.64286ZM17.7778 0H2.22222C0.994792 0 0 0.959263 0 2.14286V12.8571C0 14.0407 0.994792 15 2.22222 15H17.7778C19.0052 15 20 14.0407 20 12.8571V2.14286C20 0.959263 19.0035 0 17.7778 0ZM18.3333 12.8571C18.3333 13.1525 18.0841 13.3929 17.7778 13.3929H11.1111C11.1111 11.9136 9.86736 10.7143 8.33333 10.7143H6.11111C4.57639 10.7143 3.33333 11.9129 3.33333 13.3929H2.22222C1.9159 13.3929 1.66667 13.1525 1.66667 12.8571V4.28571H18.3333V12.8571ZM12.7778 7.76786H16.1111C16.5712 7.76786 16.9444 7.40792 16.9444 6.96429C16.9444 6.52065 16.5712 6.16071 16.1111 6.16071H12.7778C12.3177 6.16071 11.9444 6.52065 11.9444 6.96429C11.9444 7.40792 12.3194 7.76786 12.7778 7.76786Z" fill="black"/>
</svg>
